SplineFontDB: 3.0
FontName: LCD
FullName: LCD Display: 14 Segment
FamilyName: LCD
Weight: Regular
Copyright: Copyright (c) 2015, fredrick
UComments: "2015-7-11: Created with FontForge (http://fontforge.org)"
Version: 001.000
ItalicAngle: 0
UnderlinePosition: -100
UnderlineWidth: 50
Ascent: 800
Descent: 200
InvalidEm: 0
LayerCount: 2
Layer: 0 0 "Back" 1
Layer: 1 0 "Fore" 0
XUID: [1021 885 -1366194050 9688128]
StyleMap: 0x0000
FSType: 0
OS2Version: 0
OS2_WeightWidthSlopeOnly: 0
OS2_UseTypoMetrics: 1
CreationTime: 1436597031
ModificationTime: 1436845136
PfmFamily: 17
TTFWeight: 400
TTFWidth: 5
LineGap: 90
VLineGap: 90
OS2TypoAscent: 0
OS2TypoAOffset: 1
OS2TypoDescent: 0
OS2TypoDOffset: 1
OS2TypoLinegap: 90
OS2WinAscent: 0
OS2WinAOffset: 1
OS2WinDescent: 0
OS2WinDOffset: 1
HheadAscent: 0
HheadAOffset: 1
HheadDescent: 0
HheadDOffset: 1
OS2Vendor: 'PfEd'
OS2CodePages: 0000002d.c2430000
OS2UnicodeRanges: 80000aa7.00001861.00008000.00000000
MarkAttachClasses: 1
DEI: 91125
Encoding: UnicodeBmp
UnicodeInterp: none
NameList: AGL For New Fonts
DisplaySize: -48
AntiAlias: 1
FitToEm: 0
WinInfo: 0 19 10
BeginPrivate: 0
EndPrivate
BeginChars: 65539 707

StartChar: zero
Encoding: 48 48 1
Width: 718
VWidth: 0
Flags: W
HStem: 0 80<159 319 399 559> 40 21G<99 139 579 619> 40 21G<99 139 579 619> 700 20G<99 139 507 559 579 619> 720 80<159 319 399 559> 740 20G<99 139 579 619>
VStem: 79 80<160 360 440 720> 559 80<80 360 440 720>
LayerCount: 2
Fore
SplineSet
399 80 m 1x83
 451 80 507 80 559 80 c 1x83
 599 40 l 1x43
 559 0 l 1
 159 0 l 1x83
 119 40 l 1x43
 159 80 l 1
 319 80 l 1x83
 359 40 l 1x23
 399 80 l 1x83
519 720 m 1x13
 559 720 l 1
 559 640 l 1
 439 440 l 1
 399 440 l 1
 399 520 l 1
 519 720 l 1x13
199 80 m 1x83
 159 80 l 1
 159 160 l 1
 279 360 l 1
 319 360 l 1
 319 280 l 1
 199 80 l 1x83
79 440 m 1
 79 720 l 1x0b
 119 760 l 1x07
 159 720 l 1x0b
 159 440 l 1
 119 400 l 1
 79 440 l 1
79 80 m 1x83
 79 360 l 1
 119 400 l 1
 159 360 l 1
 159 80 l 1x83
 119 40 l 1x43
 79 80 l 1x83
559 440 m 1
 559 720 l 1
 599 760 l 1x17
 639 720 l 1x0b
 639 440 l 1
 599 400 l 1
 559 440 l 1
559 80 m 1x83
 559 360 l 1
 599 400 l 1
 639 360 l 1
 639 80 l 1x83
 599 40 l 1x43
 559 80 l 1x83
559 800 m 1x0b
 599 760 l 1
 559 720 l 1x17
 399 720 l 1x0b
 359 760 l 1x07
 319 720 l 1
 159 720 l 1x0b
 119 760 l 1x07
 159 800 l 1
 559 800 l 1x0b
EndSplineSet
Validated: 5
EndChar

StartChar: one
Encoding: 49 49 2
Width: 718
VWidth: 0
Flags: W
HStem: 40 21G<579 619> 40 21G<579 619> 700 20G<507 559 579 619> 740 20G<579 619>
VStem: 559 80<80 360 440 720>
LayerCount: 2
Fore
SplineSet
519 720 m 1x38
 559 720 l 1
 559 640 l 1
 439 440 l 1
 399 440 l 1
 399 520 l 1
 519 720 l 1x38
559 440 m 1
 559 720 l 1
 599 760 l 1
 639 720 l 1
 639 440 l 1
 599 400 l 1
 559 440 l 1
559 80 m 1
 559 360 l 1
 599 400 l 1
 639 360 l 1
 639 80 l 1
 599 40 l 1xb8
 559 80 l 1
EndSplineSet
Validated: 5
EndChar

StartChar: two
Encoding: 50 50 3
Width: 718
VWidth: 0
Flags: W
HStem: 0 80<159 319 399 559> 40 21G<99 139> 40 21G<99 139> 360 80<159 319 399 559> 720 80<159 319 399 559> 740 20G<579 619> 740 20G<579 619>
VStem: 79 80<80 360> 559 80<440 720>
LayerCount: 2
Fore
SplineSet
399 80 m 1x9180
 451 80 507 80 559 80 c 1x9180
 599 40 l 1x3180
 559 0 l 1
 159 0 l 1x9180
 119 40 l 1x5180
 159 80 l 1
 319 80 l 1x9180
 359 40 l 1x3180
 399 80 l 1x9180
79 80 m 1
 79 360 l 1
 119 400 l 1
 159 360 l 1
 159 80 l 1x9180
 119 40 l 1x5180
 79 80 l 1
559 440 m 1
 559 720 l 1x1980
 599 760 l 1x1580
 639 720 l 1x1980
 639 440 l 1
 599 400 l 1
 559 440 l 1
159 440 m 1
 319 440 l 1
 359 400 l 1
 319 360 l 1
 159 360 l 1
 119 400 l 1
 159 440 l 1
399 440 m 1
 559 440 l 1
 599 400 l 1
 559 360 l 1
 399 360 l 1
 359 400 l 1
 399 440 l 1
559 800 m 1
 599 760 l 1x1580
 559 720 l 1
 399 720 l 1x1980
 359 760 l 1x1380
 319 720 l 1
 159 720 l 1x1980
 119 760 l 1x1380
 159 800 l 1
 559 800 l 1
EndSplineSet
Validated: 5
EndChar

StartChar: three
Encoding: 51 51 4
Width: 718
VWidth: 0
Flags: W
HStem: 0 80<159 319 399 559> 40 21G<579 619> 40 21G<579 619> 360 80<159 319 399 559> 720 80<159 319 399 559> 740 20G<579 619> 740 20G<579 619>
VStem: 559 80<80 360 440 720>
LayerCount: 2
Fore
SplineSet
399 80 m 1x91
 451 80 507 80 559 80 c 1x91
 599 40 l 1x51
 559 0 l 1
 159 0 l 1x91
 119 40 l 1x31
 159 80 l 1
 319 80 l 1x91
 359 40 l 1x31
 399 80 l 1x91
559 440 m 1
 559 720 l 1x19
 599 760 l 1x15
 639 720 l 1x19
 639 440 l 1
 599 400 l 1
 559 440 l 1
559 80 m 1x91
 559 360 l 1
 599 400 l 1
 639 360 l 1
 639 80 l 1x91
 599 40 l 1x51
 559 80 l 1x91
159 440 m 1
 319 440 l 1
 359 400 l 1
 319 360 l 1
 159 360 l 1
 119 400 l 1
 159 440 l 1
399 440 m 1
 559 440 l 1
 599 400 l 1
 559 360 l 1
 399 360 l 1
 359 400 l 1
 399 440 l 1
559 800 m 1x19
 599 760 l 1x15
 559 720 l 1
 399 720 l 1x19
 359 760 l 1x13
 319 720 l 1
 159 720 l 1x19
 119 760 l 1x13
 159 800 l 1
 559 800 l 1x19
EndSplineSet
Validated: 5
EndChar

StartChar: four
Encoding: 52 52 5
Width: 718
VWidth: 0
Flags: W
HStem: 40 21G<579 619> 40 21G<579 619> 360 80<159 319 399 559> 740 20G<99 139 579 619> 740 20G<99 139 579 619>
VStem: 79 80<440 720> 559 80<80 360 440 720>
LayerCount: 2
Fore
SplineSet
79 440 m 1x36
 79 720 l 1
 119 760 l 1
 159 720 l 1
 159 440 l 1
 119 400 l 1
 79 440 l 1x36
559 440 m 1
 559 720 l 1
 599 760 l 1
 639 720 l 1
 639 440 l 1
 599 400 l 1
 559 440 l 1
559 80 m 1
 559 360 l 1
 599 400 l 1
 639 360 l 1
 639 80 l 1
 599 40 l 1xa6
 559 80 l 1
159 440 m 1
 319 440 l 1
 359 400 l 1
 319 360 l 1
 159 360 l 1
 119 400 l 1
 159 440 l 1
399 440 m 1
 559 440 l 1
 599 400 l 1
 559 360 l 1
 399 360 l 1
 359 400 l 1
 399 440 l 1
EndSplineSet
Validated: 5
EndChar

StartChar: five
Encoding: 53 53 6
Width: 718
VWidth: 0
Flags: W
HStem: 0 80<159 319 399 559> 40 21G<579 619> 40 21G<579 619> 360 80<399 559> 700 20G<159 211> 720 80<159 319 399 559>
VStem: 559 80<80 360>
LayerCount: 2
Fore
SplineSet
399 80 m 1x92
 451 80 507 80 559 80 c 1x92
 599 40 l 1x52
 559 0 l 1
 159 0 l 1x92
 119 40 l 1x32
 159 80 l 1
 319 80 l 1x92
 359 40 l 1x32
 399 80 l 1x92
199 720 m 1x1a
 319 520 l 1
 319 440 l 1
 279 440 l 1
 159 640 l 1
 159 720 l 1
 199 720 l 1x1a
559 80 m 1x92
 559 360 l 1
 599 400 l 1
 639 360 l 1
 639 80 l 1x92
 599 40 l 1x52
 559 80 l 1x92
399 440 m 1
 559 440 l 1
 599 400 l 1
 559 360 l 1
 399 360 l 1
 359 400 l 1
 399 440 l 1
559 800 m 1x16
 599 760 l 1
 559 720 l 1
 399 720 l 1
 359 760 l 1
 319 720 l 1x16
 159 720 l 1x1a
 119 760 l 1
 159 800 l 1
 559 800 l 1x16
EndSplineSet
Validated: 5
EndChar

StartChar: six
Encoding: 54 54 7
Width: 718
VWidth: 0
Flags: W
HStem: 0 80<159 319 399 559> 40 21G<99 139 579 619> 40 21G<99 139 579 619> 360 80<159 319 399 559> 720 80<159 319 399 559> 740 20G<99 139> 740 20G<99 139>
VStem: 79 80<80 360 440 720> 559 80<80 360>
LayerCount: 2
Fore
SplineSet
399 80 m 1x9180
 451 80 507 80 559 80 c 1x9180
 599 40 l 1x5180
 559 0 l 1
 159 0 l 1x9180
 119 40 l 1x5180
 159 80 l 1
 319 80 l 1x9180
 359 40 l 1x3180
 399 80 l 1x9180
79 440 m 1
 79 720 l 1x1980
 119 760 l 1x1580
 159 720 l 1x1980
 159 440 l 1
 119 400 l 1
 79 440 l 1
79 80 m 1x9180
 79 360 l 1
 119 400 l 1
 159 360 l 1
 159 80 l 1x9180
 119 40 l 1x5180
 79 80 l 1x9180
559 80 m 1
 559 360 l 1
 599 400 l 1
 639 360 l 1
 639 80 l 1x9180
 599 40 l 1x5180
 559 80 l 1
159 440 m 1
 319 440 l 1
 359 400 l 1
 319 360 l 1
 159 360 l 1
 119 400 l 1
 159 440 l 1
399 440 m 1
 559 440 l 1
 599 400 l 1
 559 360 l 1
 399 360 l 1
 359 400 l 1
 399 440 l 1
559 800 m 1x1980
 599 760 l 1x1380
 559 720 l 1
 399 720 l 1x1980
 359 760 l 1x1380
 319 720 l 1
 159 720 l 1x1980
 119 760 l 1x1580
 159 800 l 1
 559 800 l 1x1980
EndSplineSet
Validated: 5
EndChar

StartChar: seven
Encoding: 55 55 8
Width: 718
VWidth: 0
Flags: W
HStem: 40 21G<579 619> 40 21G<579 619> 720 80<159 319 399 559> 740 20G<579 619> 740 20G<579 619>
VStem: 559 80<80 360 440 720>
LayerCount: 2
Fore
SplineSet
559 440 m 1x24
 559 720 l 1x24
 599 760 l 1x14
 639 720 l 1
 639 440 l 1
 599 400 l 1
 559 440 l 1x24
559 80 m 1
 559 360 l 1
 599 400 l 1
 639 360 l 1
 638.746476074 266.666666667 636.883588189 173.333333333 639 80 c 1
 599 40 l 1x84
 559 80 l 1
559 800 m 1x24
 599 760 l 1x14
 559 720 l 1
 399 720 l 1x24
 359 760 l 1x0c
 319 720 l 1
 159 720 l 1x24
 119 760 l 1x0c
 159 800 l 1
 559 800 l 1x24
EndSplineSet
Validated: 37
EndChar

StartChar: eight
Encoding: 56 56 9
Width: 718
VWidth: 0
Flags: W
HStem: 0 80<159 319 399 559> 40 21G<99 139 579 619> 40 21G<99 139 579 619> 360 80<159 319 399 559> 720 80<159 319 399 559> 740 20G<99 139 579 619> 740 20G<99 139 579 619>
VStem: 79 80<80 360 440 720> 559 80<80 360 440 720>
LayerCount: 2
Fore
SplineSet
399 80 m 1x9180
 451 80 507 80 559 80 c 1x9180
 599 40 l 1x5180
 559 0 l 1
 159 0 l 1x9180
 119 40 l 1x5180
 159 80 l 1
 319 80 l 1x9180
 359 40 l 1x3180
 399 80 l 1x9180
79 440 m 1
 79 720 l 1x1980
 119 760 l 1x1580
 159 720 l 1x1980
 159 440 l 1
 119 400 l 1
 79 440 l 1
79 80 m 1x9180
 79 360 l 1
 119 400 l 1
 159 360 l 1
 159 80 l 1x9180
 119 40 l 1x5180
 79 80 l 1x9180
559 440 m 1
 559 720 l 1x1980
 599 760 l 1x1580
 639 720 l 1x1980
 639 440 l 1
 599 400 l 1
 559 440 l 1
559 80 m 1x9180
 559 360 l 1
 599 400 l 1
 639 360 l 1
 639 80 l 1x9180
 599 40 l 1x5180
 559 80 l 1x9180
159 440 m 1
 319 440 l 1
 359 400 l 1
 319 360 l 1
 159 360 l 1
 119 400 l 1
 159 440 l 1
399 440 m 1
 559 440 l 1
 599 400 l 1
 559 360 l 1
 399 360 l 1
 359 400 l 1
 399 440 l 1
559 800 m 1x1980
 599 760 l 1x1580
 559 720 l 1
 399 720 l 1x1980
 359 760 l 1x1380
 319 720 l 1
 159 720 l 1x1980
 119 760 l 1x1580
 159 800 l 1
 559 800 l 1x1980
EndSplineSet
Validated: 5
EndChar

StartChar: nine
Encoding: 57 57 10
Width: 718
VWidth: 0
Flags: W
HStem: 0 80<159 319 399 559> 40 21G<579 619> 40 21G<579 619> 360 80<159 319 399 559> 720 80<159 319 399 559> 740 20G<99 139 579 619> 740 20G<99 139 579 619>
VStem: 79 80<440 720> 559 80<80 360 440 720>
LayerCount: 2
Fore
SplineSet
399 80 m 1x9180
 451 80 507 80 559 80 c 1x9180
 599 40 l 1x5180
 559 0 l 1
 159 0 l 1x9180
 119 40 l 1x3180
 159 80 l 1
 319 80 l 1x9180
 359 40 l 1x3180
 399 80 l 1x9180
79 440 m 1
 79 720 l 1x1980
 119 760 l 1x1580
 159 720 l 1x1980
 159 440 l 1
 119 400 l 1
 79 440 l 1
559 440 m 1
 559 720 l 1x1980
 599 760 l 1x1580
 639 720 l 1
 639 440 l 1
 599 400 l 1
 559 440 l 1
559 80 m 1x9180
 559 360 l 1
 599 400 l 1
 639 360 l 1
 639 80 l 1x9180
 599 40 l 1x5180
 559 80 l 1x9180
159 440 m 1
 319 440 l 1
 359 400 l 1
 319 360 l 1
 159 360 l 1
 119 400 l 1
 159 440 l 1
399 440 m 1
 559 440 l 1
 599 400 l 1
 559 360 l 1
 399 360 l 1
 359 400 l 1
 399 440 l 1
559 800 m 1x1980
 599 760 l 1x1580
 559 720 l 1
 399 720 l 1x1980
 359 760 l 1x1380
 319 720 l 1
 159 720 l 1x1980
 119 760 l 1x1580
 159 800 l 1
 559 800 l 1x1980
EndSplineSet
Validated: 5
EndChar

StartChar: A
Encoding: 65 65 11
Width: 718
VWidth: 0
Flags: W
HStem: 40 21G<99 139 579 619> 40 21G<99 139 579 619> 360 80<159 319 399 559> 720 80<159 319 399 559> 740 20G<99 139 579 619> 740 20G<99 139 579 619>
VStem: 79 80<80 360 440 720> 559 80<80 360 440 720>
LayerCount: 2
Fore
SplineSet
79 440 m 1x33
 79 720 l 1x33
 119 760 l 1x2b
 159 720 l 1
 159 440 l 1
 119 400 l 1
 79 440 l 1x33
79 80 m 1
 79 360 l 1
 119 400 l 1
 159 360 l 1
 159 80 l 1
 119 40 l 1xa3
 79 80 l 1
559 440 m 1
 559 720 l 1x33
 599 760 l 1x2b
 639 720 l 1x33
 639 440 l 1
 599 400 l 1
 559 440 l 1
559 80 m 1
 559 360 l 1
 599 400 l 1
 639 360 l 1
 639 80 l 1
 599 40 l 1xa3
 559 80 l 1
159 440 m 1
 319 440 l 1
 359 400 l 1
 319 360 l 1
 159 360 l 1
 119 400 l 1
 159 440 l 1
399 440 m 1
 559 440 l 1
 599 400 l 1
 559 360 l 1
 399 360 l 1
 359 400 l 1
 399 440 l 1
559 800 m 1x33
 599 760 l 1x2b
 559 720 l 1
 399 720 l 1x33
 359 760 l 1x27
 319 720 l 1
 159 720 l 1x33
 119 760 l 1x2b
 159 800 l 1
 559 800 l 1x33
EndSplineSet
Validated: 5
EndChar

StartChar: B
Encoding: 66 66 12
Width: 718
VWidth: 0
Flags: W
HStem: 0 80<159 319 399 559> 40 21G<339 379 579 619> 40 21G<339 379 579 619> 360 80<399 559> 720 80<159 319 399 559> 740 20G<339 379 579 619> 740 20G<339 379 579 619>
VStem: 319 80<80 360 440 720> 559 80<80 360 440 720>
LayerCount: 2
Fore
SplineSet
399 80 m 1x9180
 451 80 507 80 559 80 c 1x9180
 599 40 l 1x5180
 559 0 l 1
 159 0 l 1x9180
 119 40 l 1x3180
 159 80 l 1
 319 80 l 1x9180
 359 40 l 1x5180
 399 80 l 1x9180
319 440 m 1
 319 720 l 1x1980
 359 760 l 1x1580
 399 720 l 1x1980
 399 440 l 1
 359 400 l 1
 319 440 l 1
319 80 m 1x9180
 319 360 l 1
 359 400 l 1
 399 360 l 1
 399 80 l 1x9180
 359 40 l 1x5180
 319 80 l 1x9180
559 440 m 1
 559 720 l 1x1980
 599 760 l 1x1580
 639 720 l 1x1980
 639 440 l 1
 599 400 l 1
 559 440 l 1
559 80 m 1x9180
 559 360 l 1
 599 400 l 1
 639 360 l 1
 639 80 l 1x9180
 599 40 l 1x5180
 559 80 l 1x9180
399 440 m 1
 559 440 l 1
 599 400 l 1
 559 360 l 1
 399 360 l 1
 359 400 l 1
 399 440 l 1
559 800 m 1x1980
 599 760 l 1x1580
 559 720 l 1
 399 720 l 1x1980
 359 760 l 1x1580
 319 720 l 1
 159 720 l 1x1980
 119 760 l 1x1380
 159 800 l 1
 559 800 l 1x1980
EndSplineSet
Validated: 5
EndChar

StartChar: C
Encoding: 67 67 13
Width: 718
VWidth: 0
Flags: W
HStem: 0 80<159 319 399 559> 40 21G<99 139> 40 21G<99 139> 720 80<159 319 399 559> 740 20G<99 139> 740 20G<99 139>
VStem: 79 80<80 360 440 720>
LayerCount: 2
Fore
SplineSet
399 80 m 1x82
 451 80 507 80 559 80 c 1x82
 599 40 l 1x22
 559 0 l 1
 159 0 l 1x82
 119 40 l 1x42
 159 80 l 1
 319 80 l 1x82
 359 40 l 1x22
 399 80 l 1x82
79 440 m 1
 79 720 l 1x12
 119 760 l 1x0a
 159 720 l 1x12
 159 440 l 1
 119 400 l 1
 79 440 l 1
79 80 m 1x82
 79 360 l 1
 119 400 l 1
 159 360 l 1
 159 80 l 1x82
 119 40 l 1x42
 79 80 l 1x82
559 800 m 1x12
 599 760 l 1x06
 559 720 l 1
 399 720 l 1x12
 359 760 l 1x06
 319 720 l 1
 159 720 l 1x12
 119 760 l 1x0a
 159 800 l 1
 559 800 l 1x12
EndSplineSet
Validated: 5
EndChar

StartChar: D
Encoding: 68 68 14
Width: 718
VWidth: 0
Flags: W
HStem: 0 80<159 319 399 559> 40 21G<339 379 579 619> 40 21G<339 379 579 619> 720 80<159 319 399 559> 740 20G<339 379 579 619> 740 20G<339 379 579 619>
VStem: 319 80<80 360 440 720> 559 80<80 360 440 720>
LayerCount: 2
Fore
SplineSet
399 80 m 1x83
 451 80 507 80 559 80 c 1x83
 599 40 l 1x43
 559 0 l 1
 159 0 l 1x83
 119 40 l 1x23
 159 80 l 1
 319 80 l 1x83
 359 40 l 1x43
 399 80 l 1x83
319 440 m 1
 319 720 l 1x13
 359 760 l 1x0b
 399 720 l 1x13
 399 440 l 1
 359 400 l 1
 319 440 l 1
319 80 m 1x83
 319 360 l 1
 359 400 l 1
 399 360 l 1
 399 80 l 1x83
 359 40 l 1x43
 319 80 l 1x83
559 440 m 1
 559 720 l 1x13
 599 760 l 1x0b
 639 720 l 1x13
 639 440 l 1
 599 400 l 1
 559 440 l 1
559 80 m 1x83
 559 360 l 1
 599 400 l 1
 639 360 l 1
 639 80 l 1x83
 599 40 l 1x43
 559 80 l 1x83
559 800 m 1x13
 599 760 l 1x0b
 559 720 l 1
 399 720 l 1x13
 359 760 l 1x0b
 319 720 l 1
 159 720 l 1x13
 119 760 l 1x07
 159 800 l 1
 559 800 l 1x13
EndSplineSet
Validated: 5
EndChar

StartChar: E
Encoding: 69 69 15
Width: 718
VWidth: 0
Flags: W
HStem: 0 80<159 319 399 559> 40 21G<99 139> 40 21G<99 139> 360 80<159 319 399 559> 720 80<159 319 399 559> 740 20G<99 139> 740 20G<99 139>
VStem: 79 80<80 360 440 720>
LayerCount: 2
Fore
SplineSet
399 80 m 5x91
 451 80 507 80 559 80 c 5x91
 599 40 l 5x31
 559 0 l 5
 159 0 l 5x91
 119 40 l 5x51
 159 80 l 5
 319 80 l 5x91
 359 40 l 5x31
 399 80 l 5x91
79 440 m 5
 79 720 l 5x19
 119 760 l 5x15
 159 720 l 5x19
 159 440 l 5
 119 400 l 5
 79 440 l 5
79 80 m 5x91
 79 360 l 5
 119 400 l 5
 159 360 l 5
 159 80 l 5x91
 119 40 l 5x51
 79 80 l 5x91
159 440 m 5
 319 440 l 5
 359 400 l 5
 319 360 l 5
 159 360 l 5
 119 400 l 5
 159 440 l 5
399 440 m 5
 559 440 l 5
 599 400 l 5
 559 360 l 5
 399 360 l 5
 359 400 l 5
 399 440 l 5
559 800 m 5x19
 599 760 l 5x13
 559 720 l 5
 399 720 l 5x19
 359 760 l 5x13
 319 720 l 5
 159 720 l 5x19
 119 760 l 5x15
 159 800 l 5
 559 800 l 5x19
EndSplineSet
Validated: 5
EndChar

StartChar: F
Encoding: 70 70 16
Width: 718
VWidth: 0
Flags: W
HStem: 40 21G<99 139> 40 21G<99 139> 360 80<159 319 399 559> 720 80<159 319 399 559> 740 20G<99 139> 740 20G<99 139>
VStem: 79 80<80 360 440 720>
LayerCount: 2
Fore
SplineSet
79 440 m 1x32
 79 720 l 1x32
 119 760 l 1x2a
 159 720 l 1
 159 440 l 1
 119 400 l 1
 79 440 l 1x32
79 80 m 1
 79 360 l 1
 119 400 l 1
 159 360 l 1
 159 80 l 1
 119 40 l 1xa2
 79 80 l 1
159 440 m 1
 319 440 l 1
 359 400 l 1
 319 360 l 1
 159 360 l 1
 119 400 l 1
 159 440 l 1
399 440 m 1
 559 440 l 1
 599 400 l 1
 559 360 l 1
 399 360 l 1
 359 400 l 1
 399 440 l 1
559 800 m 1x32
 599 760 l 1x26
 559 720 l 1
 399 720 l 1x32
 359 760 l 1x26
 319 720 l 1
 159 720 l 1x32
 119 760 l 1x2a
 159 800 l 1
 559 800 l 1x32
EndSplineSet
Validated: 5
EndChar

StartChar: G
Encoding: 71 71 17
Width: 718
VWidth: 0
Flags: W
HStem: 0 80<159 319 399 559> 40 21G<99 139 579 619> 40 21G<99 139 579 619> 360 80<399 559> 720 80<159 319 399 559> 740 20G<99 139> 740 20G<99 139>
VStem: 79 80<80 360 440 720> 559 80<80 360>
LayerCount: 2
Fore
SplineSet
399 80 m 1x9180
 451 80 507 80 559 80 c 1x9180
 599 40 l 1x5180
 559 0 l 1
 159 0 l 1x9180
 119 40 l 1x5180
 159 80 l 1
 319 80 l 1x9180
 359 40 l 1x3180
 399 80 l 1x9180
79 440 m 1
 79 720 l 1x1980
 119 760 l 1x1580
 159 720 l 1x1980
 159 440 l 1
 119 400 l 1
 79 440 l 1
79 80 m 1x9180
 79 360 l 1
 119 400 l 1
 159 360 l 1
 159 80 l 1x9180
 119 40 l 1x5180
 79 80 l 1x9180
559 80 m 1
 559 360 l 1
 599 400 l 1
 639 360 l 1
 639 80 l 1x9180
 599 40 l 1x5180
 559 80 l 1
399 440 m 1
 559 440 l 1
 599 400 l 1
 559 360 l 1
 399 360 l 1
 359 400 l 1
 399 440 l 1
559 800 m 1x1980
 599 760 l 1x1380
 559 720 l 1
 399 720 l 1x1980
 359 760 l 1x1380
 319 720 l 1
 159 720 l 1x1980
 119 760 l 1x1580
 159 800 l 1
 559 800 l 1x1980
EndSplineSet
Validated: 5
EndChar

StartChar: H
Encoding: 72 72 18
Width: 718
VWidth: 0
Flags: W
HStem: 40 21G<99 139 579 619> 40 21G<99 139 579 619> 360 80<159 319 399 559> 740 20G<99 139 579 619> 740 20G<99 139 579 619>
VStem: 79 80<80 360 440 720> 559 80<80 360 440 720>
LayerCount: 2
Fore
SplineSet
79 440 m 1x36
 79 720 l 1
 119 760 l 1
 159 720 l 1
 159 440 l 1
 119 400 l 1
 79 440 l 1x36
79 80 m 1
 79 360 l 1
 119 400 l 1
 159 360 l 1
 159 80 l 1
 119 40 l 1xa6
 79 80 l 1
559 440 m 1
 559 720 l 1
 599 760 l 1x36
 639 720 l 1
 639 440 l 1
 599 400 l 1
 559 440 l 1
559 80 m 1
 559 360 l 1
 599 400 l 1
 639 360 l 1
 639 80 l 1
 599 40 l 1xa6
 559 80 l 1
159 440 m 1
 319 440 l 1
 359 400 l 1
 319 360 l 1
 159 360 l 1
 119 400 l 1
 159 440 l 1
399 440 m 1
 559 440 l 1
 599 400 l 1
 559 360 l 1
 399 360 l 1
 359 400 l 1
 399 440 l 1
EndSplineSet
Validated: 5
EndChar

StartChar: I
Encoding: 73 73 19
Width: 718
VWidth: 0
Flags: W
HStem: 0 80<159 319 399 559> 40 21G<339 379> 40 21G<339 379> 720 80<159 319 399 559> 740 20G<339 379> 740 20G<339 379>
VStem: 319 80<80 360 440 720>
LayerCount: 2
Fore
SplineSet
399 80 m 1x82
 451 80 507 80 559 80 c 1x82
 599 40 l 1x22
 559 0 l 1
 159 0 l 1x82
 119 40 l 1x22
 159 80 l 1
 319 80 l 1x82
 359 40 l 1x42
 399 80 l 1x82
319 440 m 1
 319 720 l 1x12
 359 760 l 1x0a
 399 720 l 1x12
 399 440 l 1
 359 400 l 1
 319 440 l 1
319 80 m 1x82
 319 360 l 1
 359 400 l 1
 399 360 l 1
 399 80 l 1x82
 359 40 l 1x42
 319 80 l 1x82
559 800 m 1x12
 599 760 l 1x06
 559 720 l 1
 399 720 l 1x12
 359 760 l 1x0a
 319 720 l 1
 159 720 l 1x12
 119 760 l 1x06
 159 800 l 1
 559 800 l 1x12
EndSplineSet
Validated: 5
EndChar

StartChar: J
Encoding: 74 74 20
Width: 718
VWidth: 0
Flags: W
HStem: 0 80<159 319 399 559> 40 21G<99 139 579 619> 40 21G<99 139 579 619> 740 20G<579 619> 740 20G<579 619>
VStem: 79 80<80 360> 559 80<80 360 440 720>
LayerCount: 2
Fore
SplineSet
399 80 m 1x86
 451 80 507 80 559 80 c 1x86
 599 40 l 1x46
 559 0 l 1
 159 0 l 1x86
 119 40 l 1x46
 159 80 l 1
 319 80 l 1x86
 359 40 l 1x26
 399 80 l 1x86
79 80 m 1
 79 360 l 1
 119 400 l 1
 159 360 l 1
 159 80 l 1x86
 119 40 l 1x46
 79 80 l 1
559 440 m 1
 559 720 l 1
 599 760 l 1x16
 639 720 l 1
 639 440 l 1
 599 400 l 1
 559 440 l 1
559 80 m 1x86
 559 360 l 1
 599 400 l 1
 639 360 l 1
 639 80 l 1x86
 599 40 l 1x46
 559 80 l 1x86
EndSplineSet
Validated: 5
EndChar

StartChar: K
Encoding: 75 75 21
Width: 718
VWidth: 0
Flags: W
HStem: 40 21G<99 139> 40 21G<99 139> 360 80<159 319> 700 20G<99 139 507 559> 740 20G<99 139>
VStem: 79 80<80 360 440 720>
LayerCount: 2
Fore
SplineSet
519 720 m 1x3c
 559 720 l 1
 559 640 l 1
 439 440 l 1
 399 440 l 1
 399 520 l 1
 519 720 l 1x3c
519 80 m 1
 399 280 l 1
 399 360 l 1
 439 360 l 1
 559 160 l 1
 559 80 l 1
 519 80 l 1
79 440 m 1
 79 720 l 1
 119 760 l 1
 159 720 l 1
 159 440 l 1
 119 400 l 1
 79 440 l 1
79 80 m 1
 79 360 l 1
 119 400 l 1
 159 360 l 1
 159 80 l 1
 119 40 l 1xbc
 79 80 l 1
159 440 m 1
 319 440 l 1
 359 400 l 1
 319 360 l 1
 159 360 l 1
 119 400 l 1
 159 440 l 1
EndSplineSet
Validated: 5
EndChar

StartChar: L
Encoding: 76 76 22
Width: 718
VWidth: 0
Flags: W
HStem: 0 80<159 319 399 559> 40 21G<99 139> 40 21G<99 139> 740 20G<99 139> 740 20G<99 139>
VStem: 79 80<80 360 440 720>
LayerCount: 2
Fore
SplineSet
399 80 m 1x84
 451 80 507 80 559 80 c 1x84
 599 40 l 1x24
 559 0 l 1
 159 0 l 1x84
 119 40 l 1x44
 159 80 l 1
 319 80 l 1x84
 359 40 l 1x24
 399 80 l 1x84
79 440 m 1
 79 720 l 1
 119 760 l 1x14
 159 720 l 1
 159 440 l 1
 119 400 l 1
 79 440 l 1
79 80 m 1x84
 79 360 l 1
 119 400 l 1
 159 360 l 1
 159 80 l 1x84
 119 40 l 1x44
 79 80 l 1x84
EndSplineSet
Validated: 5
EndChar

StartChar: M
Encoding: 77 77 23
Width: 718
VWidth: 0
Flags: W
HStem: 40 21G<99 139 579 619> 40 21G<99 139 579 619> 700 20G<99 139 159 211 507 559 579 619> 740 20G<99 139 579 619>
VStem: 79 80<80 360 440 640> 559 80<80 360 440 720>
LayerCount: 2
Fore
SplineSet
199 720 m 1x3c
 319 520 l 1
 319 440 l 1
 279 440 l 1
 159 640 l 1
 159 720 l 1
 199 720 l 1x3c
519 720 m 1
 559 720 l 1
 559 640 l 1
 439 440 l 1
 399 440 l 1
 399 520 l 1
 519 720 l 1
79 440 m 1
 79 720 l 1
 119 760 l 1
 159 720 l 1
 159 440 l 1
 119 400 l 1
 79 440 l 1
79 80 m 1
 79 360 l 1
 119 400 l 1
 159 360 l 1
 159 80 l 1
 119 40 l 1xbc
 79 80 l 1
559 440 m 1
 559 720 l 1
 599 760 l 1
 639 720 l 1
 639 440 l 1
 599 400 l 1
 559 440 l 1
559 80 m 1
 559 360 l 1
 599 400 l 1
 639 360 l 1
 639 80 l 1
 599 40 l 1
 559 80 l 1
EndSplineSet
Validated: 5
EndChar

StartChar: N
Encoding: 78 78 24
Width: 718
VWidth: 0
Flags: W
HStem: 40 21G<99 139 579 619> 40 21G<99 139 579 619> 700 20G<99 139 159 211 579 619> 740 20G<99 139 579 619>
VStem: 79 80<80 360 440 640> 559 80<80 360 440 720>
LayerCount: 2
Fore
SplineSet
199 720 m 1x3c
 319 520 l 1
 319 440 l 1
 279 440 l 1
 159 640 l 1
 159 720 l 1
 199 720 l 1x3c
519 80 m 1
 399 280 l 1
 399 360 l 1
 439 360 l 1
 559 160 l 1
 559 80 l 1
 519 80 l 1
79 440 m 1
 79 720 l 1
 119 760 l 1
 159 720 l 1
 159 440 l 1
 119 400 l 1
 79 440 l 1
79 80 m 1
 79 360 l 1
 119 400 l 1
 159 360 l 1
 159 80 l 1
 119 40 l 1xbc
 79 80 l 1
559 440 m 1
 559 720 l 1
 599 760 l 1
 639 720 l 1
 639 440 l 1
 599 400 l 1
 559 440 l 1
559 80 m 1
 559 360 l 1
 599 400 l 1
 639 360 l 1
 639 80 l 1
 599 40 l 1
 559 80 l 1
EndSplineSet
Validated: 5
EndChar

StartChar: O
Encoding: 79 79 25
Width: 718
VWidth: 0
Flags: W
HStem: 0 80<159 319 399 559> 40 21G<99 139 579 619> 40 21G<99 139 579 619> 720 80<159 319 399 559> 740 20G<99 139 579 619> 740 20G<99 139 579 619>
VStem: 79 80<80 360 440 720> 559 80<80 360 440 720>
LayerCount: 2
Fore
SplineSet
399 80 m 5x83
 451 80 507 80 559 80 c 5x83
 599 40 l 5x43
 559 0 l 5
 159 0 l 5x83
 119 40 l 5x43
 159 80 l 5
 319 80 l 5x83
 359 40 l 5x23
 399 80 l 5x83
79 440 m 5
 79 720 l 5x13
 119 760 l 5x0b
 159 720 l 5x13
 159 440 l 5
 119 400 l 5
 79 440 l 5
79 80 m 5x83
 79 360 l 5
 119 400 l 5
 159 360 l 5
 159 80 l 5x83
 119 40 l 5x43
 79 80 l 5x83
559 440 m 5
 559 720 l 5x13
 599 760 l 5x0b
 639 720 l 5x13
 639 440 l 5
 599 400 l 5
 559 440 l 5
559 80 m 5x83
 559 360 l 5
 599 400 l 5
 639 360 l 5
 639 80 l 5x83
 599 40 l 5x43
 559 80 l 5x83
559 800 m 5x13
 599 760 l 5x0b
 559 720 l 5
 399 720 l 5x13
 359 760 l 5x07
 319 720 l 5
 159 720 l 5x13
 119 760 l 5x0b
 159 800 l 5
 559 800 l 5x13
EndSplineSet
Validated: 5
EndChar

StartChar: P
Encoding: 80 80 26
Width: 718
VWidth: 0
Flags: W
HStem: 40 21G<99 139> 40 21G<99 139> 360 80<159 319 399 559> 720 80<159 319 399 559> 740 20G<99 139 579 619> 740 20G<99 139 579 619>
VStem: 79 80<80 360 440 720> 559 80<440 720>
LayerCount: 2
Fore
SplineSet
79 440 m 1x33
 79 720 l 1x33
 119 760 l 1x2b
 159 720 l 1
 159 440 l 1
 119 400 l 1
 79 440 l 1x33
79 80 m 1
 79 360 l 1
 119 400 l 1
 159 360 l 1
 159 80 l 1
 119 40 l 1xa3
 79 80 l 1
559 440 m 1
 559 720 l 1x33
 599 760 l 1x2b
 639 720 l 1x33
 639 440 l 1
 599 400 l 1
 559 440 l 1
159 440 m 1
 319 440 l 1
 359 400 l 1
 319 360 l 1
 159 360 l 1
 119 400 l 1
 159 440 l 1
399 440 m 1
 559 440 l 1
 599 400 l 1
 559 360 l 1
 399 360 l 1
 359 400 l 1
 399 440 l 1
559 800 m 1
 599 760 l 1x2b
 559 720 l 1
 399 720 l 1x33
 359 760 l 1x27
 319 720 l 1
 159 720 l 1x33
 119 760 l 1x2b
 159 800 l 1
 559 800 l 1
EndSplineSet
Validated: 5
EndChar

StartChar: Q
Encoding: 81 81 27
Width: 718
VWidth: 0
Flags: W
HStem: 0 80<159 319 399 559> 40 21G<99 139 579 619> 40 21G<99 139 579 619> 720 80<159 319 399 559> 740 20G<99 139 579 619> 740 20G<99 139 579 619>
VStem: 79 80<80 360 440 720> 559 80<80 360 440 720>
LayerCount: 2
Fore
SplineSet
399 80 m 1x83
 451 80 507 80 559 80 c 1x83
 599 40 l 1x43
 559 0 l 1
 159 0 l 1x83
 119 40 l 1x43
 159 80 l 1
 319 80 l 1x83
 359 40 l 1x23
 399 80 l 1x83
519 80 m 1
 399 280 l 1
 399 360 l 1
 439 360 l 1
 559 160 l 1
 559 80 l 1
 519 80 l 1
79 440 m 1
 79 720 l 1x13
 119 760 l 1x0b
 159 720 l 1x13
 159 440 l 1
 119 400 l 1
 79 440 l 1
79 80 m 1x83
 79 360 l 1
 119 400 l 1
 159 360 l 1
 159 80 l 1x83
 119 40 l 1x43
 79 80 l 1x83
559 440 m 1
 559 720 l 1x13
 599 760 l 1x0b
 639 720 l 1x13
 639 440 l 1
 599 400 l 1
 559 440 l 1
559 80 m 1x83
 559 360 l 1
 599 400 l 1
 639 360 l 1
 639 80 l 1x83
 599 40 l 1x43
 559 80 l 1x83
559 800 m 1x13
 599 760 l 1x0b
 559 720 l 1
 399 720 l 1x13
 359 760 l 1x07
 319 720 l 1
 159 720 l 1x13
 119 760 l 1x0b
 159 800 l 1
 559 800 l 1x13
EndSplineSet
Validated: 5
EndChar

StartChar: R
Encoding: 82 82 28
Width: 718
VWidth: 0
Flags: W
HStem: 40 21G<99 139> 40 21G<99 139> 360 80<159 319 399 559> 720 80<159 319 399 559> 740 20G<99 139 579 619> 740 20G<99 139 579 619>
VStem: 79 80<80 360 440 720> 559 80<440 720>
LayerCount: 2
Fore
SplineSet
519 80 m 1x23
 399 280 l 1
 399 360 l 1
 439 360 l 1
 559 160 l 1
 559 80 l 1
 519 80 l 1x23
79 440 m 1
 79 720 l 1x33
 119 760 l 1x2b
 159 720 l 1x33
 159 440 l 1
 119 400 l 1
 79 440 l 1
79 80 m 1
 79 360 l 1
 119 400 l 1
 159 360 l 1
 159 80 l 1
 119 40 l 1xa3
 79 80 l 1
559 440 m 1
 559 720 l 1x33
 599 760 l 1x2b
 639 720 l 1x33
 639 440 l 1
 599 400 l 1
 559 440 l 1
159 440 m 1
 319 440 l 1
 359 400 l 1
 319 360 l 1
 159 360 l 1
 119 400 l 1
 159 440 l 1
399 440 m 1
 559 440 l 1
 599 400 l 1
 559 360 l 1
 399 360 l 1
 359 400 l 1
 399 440 l 1
559 800 m 1
 599 760 l 1x2b
 559 720 l 1
 399 720 l 1x33
 359 760 l 1x27
 319 720 l 1
 159 720 l 1x33
 119 760 l 1x2b
 159 800 l 1
 559 800 l 1
EndSplineSet
Validated: 5
EndChar

StartChar: S
Encoding: 83 83 29
Width: 718
VWidth: 0
Flags: W
HStem: 0 80<159 319 399 559> 40 21G<579 619> 40 21G<579 619> 360 80<159 319 399 559> 720 80<159 319 399 559> 740 20G<99 139> 740 20G<99 139>
VStem: 79 80<440 720> 559 80<80 360>
LayerCount: 2
Fore
SplineSet
399 80 m 1x9180
 451 80 507 80 559 80 c 1x9180
 599 40 l 1x5180
 559 0 l 1
 159 0 l 1x9180
 119 40 l 1x3180
 159 80 l 1
 319 80 l 1x9180
 359 40 l 1x3180
 399 80 l 1x9180
79 440 m 1
 79 720 l 1x1980
 119 760 l 1x1580
 159 720 l 1x1980
 159 440 l 1
 119 400 l 1
 79 440 l 1
559 80 m 1x9180
 559 360 l 1
 599 400 l 1
 639 360 l 1
 639 80 l 1x9180
 599 40 l 1x5180
 559 80 l 1x9180
159 440 m 1
 319 440 l 1
 359 400 l 1
 319 360 l 1
 159 360 l 1
 119 400 l 1
 159 440 l 1
399 440 m 1
 559 440 l 1
 599 400 l 1
 559 360 l 1
 399 360 l 1
 359 400 l 1
 399 440 l 1
559 800 m 1x1980
 599 760 l 1x1380
 559 720 l 1
 399 720 l 1x1980
 359 760 l 1x1380
 319 720 l 1
 159 720 l 1x1980
 119 760 l 1x1580
 159 800 l 1
 559 800 l 1x1980
EndSplineSet
Validated: 5
EndChar

StartChar: T
Encoding: 84 84 30
Width: 718
VWidth: 0
Flags: W
HStem: 40 21G<339 379> 40 21G<339 379> 720 80<159 319 399 559> 740 20G<339 379> 740 20G<339 379>
VStem: 319 80<80 360 440 720>
LayerCount: 2
Fore
SplineSet
319 440 m 1x24
 319 720 l 1x24
 359 760 l 1x14
 399 720 l 1
 399 440 l 1
 359 400 l 1
 319 440 l 1x24
319 80 m 1
 319 360 l 1
 359 400 l 1
 399 360 l 1
 399 80 l 1
 359 40 l 1x84
 319 80 l 1
559 800 m 1x24
 599 760 l 1x0c
 559 720 l 1
 399 720 l 1x24
 359 760 l 1x14
 319 720 l 1
 159 720 l 1x24
 119 760 l 1x0c
 159 800 l 1
 559 800 l 1x24
EndSplineSet
Validated: 5
EndChar

StartChar: U
Encoding: 85 85 31
Width: 718
VWidth: 0
Flags: W
HStem: 0 80<159 319 399 559> 40 21G<99 139 579 619> 40 21G<99 139 579 619> 740 20G<99 139 579 619> 740 20G<99 139 579 619>
VStem: 79 80<80 360 440 720> 559 80<80 360 440 720>
LayerCount: 2
Fore
SplineSet
399 80 m 1x86
 451 80 507 80 559 80 c 1x86
 599 40 l 1x46
 559 0 l 1
 159 0 l 1x86
 119 40 l 1x46
 159 80 l 1
 319 80 l 1x86
 359 40 l 1x26
 399 80 l 1x86
79 440 m 1
 79 720 l 1
 119 760 l 1x16
 159 720 l 1
 159 440 l 1
 119 400 l 1
 79 440 l 1
79 80 m 1x86
 79 360 l 1
 119 400 l 1
 159 360 l 1
 159 80 l 1x86
 119 40 l 1x46
 79 80 l 1x86
559 440 m 1
 559 720 l 1
 599 760 l 1x16
 639 720 l 1
 639 440 l 1
 599 400 l 1
 559 440 l 1
559 80 m 1x86
 559 360 l 1
 599 400 l 1
 639 360 l 1
 639 80 l 1x86
 599 40 l 1x46
 559 80 l 1x86
EndSplineSet
Validated: 5
EndChar

StartChar: V
Encoding: 86 86 32
Width: 718
VWidth: 0
Flags: W
HStem: 40 21G<579 619> 40 21G<579 619> 700 20G<159 211 579 619> 740 20G<579 619>
VStem: 559 80<80 360 440 720>
LayerCount: 2
Fore
SplineSet
199 720 m 1x38
 319 520 l 1
 319 440 l 1
 279 440 l 1
 159 640 l 1
 159 720 l 1
 199 720 l 1x38
519 80 m 1
 399 280 l 1
 399 360 l 1
 439 360 l 1
 559 160 l 1
 559 80 l 1
 519 80 l 1
559 440 m 1
 559 720 l 1
 599 760 l 1
 639 720 l 1
 639 440 l 1
 599 400 l 1
 559 440 l 1
559 80 m 1
 559 360 l 1
 599 400 l 1
 639 360 l 1
 639 80 l 1
 599 40 l 1xb8
 559 80 l 1
EndSplineSet
Validated: 5
EndChar

StartChar: W
Encoding: 87 87 33
Width: 718
VWidth: 0
Flags: W
HStem: 40 21G<99 139 579 619> 40 21G<99 139 579 619> 740 20G<99 139 579 619> 740 20G<99 139 579 619>
VStem: 79 80<160 360 440 720> 559 80<80 360 440 720>
LayerCount: 2
Fore
SplineSet
519 80 m 1x0c
 399 280 l 1
 399 360 l 1
 439 360 l 1
 559 160 l 1
 559 80 l 1
 519 80 l 1x0c
199 80 m 1
 159 80 l 1
 159 160 l 1
 279 360 l 1
 319 360 l 1
 319 280 l 1
 199 80 l 1
79 440 m 1
 79 720 l 1
 119 760 l 1x2c
 159 720 l 1
 159 440 l 1
 119 400 l 1
 79 440 l 1
79 80 m 1
 79 360 l 1
 119 400 l 1
 159 360 l 1
 159 80 l 1
 119 40 l 1x8c
 79 80 l 1
559 440 m 1
 559 720 l 1
 599 760 l 1x2c
 639 720 l 1
 639 440 l 1
 599 400 l 1
 559 440 l 1
559 80 m 1
 559 360 l 1
 599 400 l 1
 639 360 l 1
 639 80 l 1
 599 40 l 1x8c
 559 80 l 1
EndSplineSet
Validated: 5
EndChar

StartChar: X
Encoding: 88 88 34
Width: 718
VWidth: 0
Flags: W
HStem: 700 20G<159 211 507 559>
LayerCount: 2
Fore
SplineSet
199 720 m 1
 319 520 l 1
 319 440 l 1
 279 440 l 1
 159 640 l 1
 159 720 l 1
 199 720 l 1
519 720 m 1
 559 720 l 1
 559 640 l 1
 439 440 l 1
 399 440 l 1
 399 520 l 1
 519 720 l 1
519 80 m 1
 399 280 l 1
 399 360 l 1
 439 360 l 1
 559 160 l 1
 559 80 l 1
 519 80 l 1
199 80 m 1
 159 80 l 1
 159 160 l 1
 279 360 l 1
 319 360 l 1
 319 280 l 1
 199 80 l 1
EndSplineSet
Validated: 1
EndChar

StartChar: Y
Encoding: 89 89 35
Width: 718
VWidth: 0
Flags: W
HStem: 40 21G<339 379> 40 21G<339 379> 700 20G<159 211 507 559>
VStem: 319 80<80 360>
LayerCount: 2
Fore
SplineSet
199 720 m 1x30
 319 520 l 1
 319 440 l 1
 279 440 l 1
 159 640 l 1
 159 720 l 1
 199 720 l 1x30
519 720 m 1
 559 720 l 1
 559 640 l 1
 439 440 l 1
 399 440 l 1
 399 520 l 1
 519 720 l 1
319 80 m 1
 319 360 l 1
 359 400 l 1
 399 360 l 1
 399 80 l 1
 359 40 l 1xb0
 319 80 l 1
EndSplineSet
Validated: 1
EndChar

StartChar: Z
Encoding: 90 90 36
Width: 718
VWidth: 0
Flags: W
HStem: 0 80<159 319 399 559> 360 80<159 319 439 559> 700 20G<507 559> 720 80<159 319 399 559>
LayerCount: 2
Fore
SplineSet
399 80 m 1xc0
 451 80 507 80 559 80 c 1
 599 40 l 1
 559 0 l 1
 159 0 l 1
 119 40 l 1
 159 80 l 1
 319 80 l 1
 359 40 l 1
 399 80 l 1xc0
519 720 m 1xe0
 559 720 l 1
 559 640 l 1
 439 440 l 1
 399 440 l 1
 399 520 l 1
 519 720 l 1xe0
199 80 m 1
 159 80 l 1
 159 160 l 1
 279 360 l 1
 319 360 l 1
 319 280 l 1
 199 80 l 1
159 440 m 1
 319 440 l 1
 359 400 l 1
 319 360 l 1
 159 360 l 1
 119 400 l 1
 159 440 l 1
399 440 m 1
 559 440 l 1
 599 400 l 1
 559 360 l 1
 399 360 l 1
 359 400 l 1
 399 440 l 1
559 800 m 1xd0
 599 760 l 1
 559 720 l 1xe0
 399 720 l 1
 359 760 l 1
 319 720 l 1
 159 720 l 1
 119 760 l 1
 159 800 l 1
 559 800 l 1xd0
EndSplineSet
Validated: 5
EndChar

StartChar: exclam
Encoding: 33 33 40
Width: 718
VWidth: 0
Flags: W
HStem: 0 80<159 319 399 559> 740 20G<339 379> 740 20G<339 379>
VStem: 319 80<440 720>
LayerCount: 2
Fore
SplineSet
399 80 m 1x90
 451 80 507 80 559 80 c 1
 599 40 l 1
 559 0 l 1
 159 0 l 1
 119 40 l 1
 159 80 l 1
 319 80 l 1
 359 40 l 1
 399 80 l 1x90
319 440 m 1
 319 720 l 1
 359 760 l 1xd0
 399 720 l 1
 399 440 l 1
 359 400 l 1
 319 440 l 1
EndSplineSet
Validated: 1
EndChar

StartChar: comma
Encoding: 44 44 43
Width: 718
VWidth: 0
Flags: W
HStem: 80 280
VStem: 159 160
LayerCount: 2
Fore
SplineSet
199 80 m 1
 159 80 l 1
 159 160 l 1
 279 360 l 1
 319 360 l 1
 319 280 l 1
 199 80 l 1
EndSplineSet
Validated: 1
EndChar

StartChar: period
Encoding: 46 46 44
Width: 718
VWidth: 0
Flags: W
HStem: 40 21G<99 139> 40 21G<99 139>
VStem: 79 80<80 360>
LayerCount: 2
Fore
SplineSet
79 80 m 1xa0
 79 360 l 1
 119 400 l 1
 159 360 l 1
 159 80 l 1
 119 40 l 1
 79 80 l 1xa0
EndSplineSet
Validated: 1
EndChar

StartChar: colon
Encoding: 58 58 46
Width: 258
VWidth: 0
Flags: W
HStem: 49 100<87.4375 170.562> 652 100<87.4375 170.562>
VStem: 79 100<57.4375 140.562 660.438 743.562>
LayerCount: 2
Fore
SplineSet
79 99 m 0
 79 127 101 149 129 149 c 0
 157 149 179 127 179 99 c 0
 179 71 157 49 129 49 c 0
 101 49 79 71 79 99 c 0
79 702 m 0
 79 730 101 752 129 752 c 0
 157 752 179 730 179 702 c 0
 179 674 157 652 129 652 c 0
 101 652 79 674 79 702 c 0
EndSplineSet
Validated: 1
EndChar

StartChar: question
Encoding: 63 63 48
Width: 718
VWidth: 0
Flags: W
HStem: 40 21G<339 379> 40 21G<339 379> 360 80<399 559> 720 80<159 319 399 559> 740 20G<99 139 579 619> 740 20G<99 139 579 619>
VStem: 79 80<440 720> 319 80<80 360> 559 80<440 720>
CounterMasks: 1 0380
LayerCount: 2
Fore
SplineSet
319 80 m 1xa380
 319 360 l 1
 359 400 l 1
 399 360 l 1
 399 80 l 1
 359 40 l 1
 319 80 l 1xa380
79 440 m 1
 79 720 l 1x3380
 119 760 l 1x2b80
 159 720 l 1x3380
 159 440 l 1
 119 400 l 1
 79 440 l 1
559 440 m 1
 559 720 l 1x3380
 599 760 l 1x2b80
 639 720 l 1
 639 440 l 1
 599 400 l 1
 559 440 l 1
399 440 m 1
 559 440 l 1
 599 400 l 1
 559 360 l 1
 399 360 l 1
 359 400 l 1
 399 440 l 1
559 800 m 1
 599 760 l 1x2b80
 559 720 l 1
 399 720 l 1x3380
 359 760 l 1x2780
 319 720 l 1
 159 720 l 1x3380
 119 760 l 1x2b80
 159 800 l 1
 559 800 l 1
EndSplineSet
Validated: 5
EndChar

StartChar: slash
Encoding: 47 47 51
Width: 718
VWidth: 0
Flags: W
HStem: 700 20G<507 559>
LayerCount: 2
Fore
SplineSet
519 720 m 1
 559 720 l 1
 559 640 l 1
 439 440 l 1
 399 440 l 1
 399 520 l 1
 519 720 l 1
199 80 m 1
 159 80 l 1
 159 160 l 1
 279 360 l 1
 319 360 l 1
 319 280 l 1
 199 80 l 1
EndSplineSet
Validated: 1
EndChar

StartChar: asterisk
Encoding: 42 42 52
Width: 718
VWidth: 0
Flags: W
HStem: 40 21G<339 379> 40 21G<339 379> 360 80<159 279 439 559> 700 20G<159 211 339 379 507 559> 740 20G<339 379>
VStem: 319 80<80 280 520 720>
LayerCount: 2
Fore
SplineSet
199 720 m 5x3c
 319 520 l 5
 319 440 l 5
 279 440 l 5
 159 640 l 5
 159 720 l 5
 199 720 l 5x3c
519 720 m 5
 559 720 l 5
 559 640 l 5
 439 440 l 5
 399 440 l 5
 399 520 l 5
 519 720 l 5
319 440 m 5
 319 720 l 5
 359 760 l 5
 399 720 l 5
 399 440 l 5
 359 400 l 5
 319 440 l 5
519 80 m 5
 399 280 l 5
 399 360 l 5
 439 360 l 5
 559 160 l 5
 559 80 l 5
 519 80 l 5
199 80 m 5
 159 80 l 5
 159 160 l 5
 279 360 l 5
 319 360 l 5
 319 280 l 5
 199 80 l 5
319 80 m 5
 319 360 l 5
 359 400 l 5
 399 360 l 5
 399 80 l 5
 359 40 l 5xbc
 319 80 l 5
159 440 m 5
 319 440 l 5
 359 400 l 5
 319 360 l 5
 159 360 l 5
 119 400 l 5
 159 440 l 5
399 440 m 5
 559 440 l 5
 599 400 l 5
 559 360 l 5
 399 360 l 5
 359 400 l 5
 399 440 l 5
EndSplineSet
Validated: 5
EndChar

StartChar: asciitilde
Encoding: 126 126 53
Width: 718
VWidth: 0
Flags: W
HStem: 40 21G<579 619> 40 21G<579 619> 700 20G<99 139 159 211> 740 20G<99 139>
VStem: 79 80<440 640> 559 80<80 360>
LayerCount: 2
Fore
SplineSet
199 720 m 1x3c
 319 520 l 1
 319 440 l 1
 279 440 l 1
 159 640 l 1
 159 720 l 1
 199 720 l 1x3c
519 80 m 1
 399 280 l 1
 399 360 l 1
 439 360 l 1
 559 160 l 1
 559 80 l 1
 519 80 l 1
79 440 m 1
 79 720 l 1
 119 760 l 1
 159 720 l 1
 159 440 l 1
 119 400 l 1
 79 440 l 1
559 80 m 1
 559 360 l 1
 599 400 l 1
 639 360 l 1
 639 80 l 1
 599 40 l 1xbc
 559 80 l 1
EndSplineSet
Validated: 5
EndChar

StartChar: dollar
Encoding: 36 36 54
Width: 718
VWidth: 0
Flags: W
HStem: 0 80<159 319 399 559> 40 21G<339 379 579 619> 40 21G<339 379 579 619> 360 80<159 319 399 559> 720 80<159 319 399 559> 740 20G<99 139 339 379> 740 20G<99 139 339 379>
VStem: 79 80<440 720> 319 80<80 360 440 720> 559 80<80 360>
CounterMasks: 1 01c0
LayerCount: 2
Fore
SplineSet
399 80 m 1x91c0
 451 80 507 80 559 80 c 1x91c0
 599 40 l 1x51c0
 559 0 l 1
 159 0 l 1x91c0
 119 40 l 1x31c0
 159 80 l 1
 319 80 l 1x91c0
 359 40 l 1x51c0
 399 80 l 1x91c0
319 440 m 1
 319 720 l 1x19c0
 359 760 l 1x15c0
 399 720 l 1x19c0
 399 440 l 1
 359 400 l 1
 319 440 l 1
319 80 m 1x91c0
 319 360 l 1
 359 400 l 1
 399 360 l 1
 399 80 l 1x91c0
 359 40 l 1x51c0
 319 80 l 1x91c0
79 440 m 1
 79 720 l 1x19c0
 119 760 l 1x15c0
 159 720 l 1x19c0
 159 440 l 1
 119 400 l 1
 79 440 l 1
559 80 m 1x91c0
 559 360 l 1
 599 400 l 1
 639 360 l 1
 639 80 l 1x91c0
 599 40 l 1x51c0
 559 80 l 1x91c0
159 440 m 1
 319 440 l 1
 359 400 l 1
 319 360 l 1
 159 360 l 1
 119 400 l 1
 159 440 l 1
399 440 m 1
 559 440 l 1
 599 400 l 1
 559 360 l 1
 399 360 l 1
 359 400 l 1
 399 440 l 1
559 800 m 1x19c0
 599 760 l 1x13c0
 559 720 l 1
 399 720 l 1x19c0
 359 760 l 1x15c0
 319 720 l 1
 159 720 l 1x19c0
 119 760 l 1x15c0
 159 800 l 1
 559 800 l 1x19c0
EndSplineSet
Validated: 5
EndChar

StartChar: quotedbl
Encoding: 34 34 55
Width: 718
VWidth: 0
Flags: W
HStem: 740 20G<99 139 339 379> 740 20G<99 139 339 379>
VStem: 79 80<440 720> 319 80<440 720>
LayerCount: 2
Fore
SplineSet
319 440 m 1xb0
 319 720 l 1
 359 760 l 1
 399 720 l 1
 399 440 l 1
 359 400 l 1
 319 440 l 1xb0
79 440 m 1
 79 720 l 1
 119 760 l 1
 159 720 l 1
 159 440 l 1
 119 400 l 1
 79 440 l 1
EndSplineSet
Validated: 1
EndChar

StartChar: numbersign
Encoding: 35 35 56
Width: 718
VWidth: 0
Flags: W
HStem: 0 80<159 319 399 559> 40 21G<99 139 339 379> 40 21G<99 139 339 379> 360 80<159 319 399 559> 740 20G<99 139 339 379> 740 20G<99 139 339 379>
VStem: 79 80<80 360 440 720> 319 80<80 360 440 720>
LayerCount: 2
Fore
SplineSet
399 80 m 1x93
 451 80 507 80 559 80 c 1x93
 599 40 l 1x33
 559 0 l 1
 159 0 l 1x93
 119 40 l 1x53
 159 80 l 1
 319 80 l 1x93
 359 40 l 1x53
 399 80 l 1x93
319 440 m 1
 319 720 l 1
 359 760 l 1x1b
 399 720 l 1
 399 440 l 1
 359 400 l 1
 319 440 l 1
319 80 m 1x93
 319 360 l 1
 359 400 l 1
 399 360 l 1
 399 80 l 1x93
 359 40 l 1x53
 319 80 l 1x93
79 440 m 1
 79 720 l 1
 119 760 l 1x1b
 159 720 l 1
 159 440 l 1
 119 400 l 1
 79 440 l 1
79 80 m 1x93
 79 360 l 1
 119 400 l 1
 159 360 l 1
 159 80 l 1x93
 119 40 l 1x53
 79 80 l 1x93
159 440 m 1
 319 440 l 1
 359 400 l 1
 319 360 l 1
 159 360 l 1
 119 400 l 1
 159 440 l 1
399 440 m 1
 559 440 l 1
 599 400 l 1
 559 360 l 1
 399 360 l 1
 359 400 l 1
 399 440 l 1
EndSplineSet
Validated: 5
EndChar

StartChar: percent
Encoding: 37 37 57
Width: 718
VWidth: 0
Flags: W
HStem: 0 80<159 319 399 559> 40 21G<339 379 579 619> 40 21G<339 379 579 619> 360 80<159 319 439 559> 700 20G<99 139 339 379 507 559> 720 80<159 319 399 559> 740 20G<99 139 339 379>
VStem: 79 80<440 720> 319 80<80 360 520 720> 559 80<80 360>
CounterMasks: 1 01c0
LayerCount: 2
Fore
SplineSet
399 80 m 5x91c0
 451 80 507 80 559 80 c 5x91c0
 599 40 l 5x51c0
 559 0 l 5
 159 0 l 5x91c0
 119 40 l 5x31c0
 159 80 l 5
 319 80 l 5x91c0
 359 40 l 5x51c0
 399 80 l 5x91c0
519 720 m 1x19c0
 559 720 l 1
 559 640 l 1
 439 440 l 1
 399 440 l 1
 399 520 l 1
 519 720 l 1x19c0
319 440 m 1
 319 720 l 1x15c0
 359 760 l 1x13c0
 399 720 l 1x15c0
 399 440 l 1
 359 400 l 1
 319 440 l 1
199 80 m 1x91c0
 159 80 l 1
 159 160 l 1
 279 360 l 1
 319 360 l 1
 319 280 l 1
 199 80 l 1x91c0
319 80 m 1
 319 360 l 1
 359 400 l 1
 399 360 l 1
 399 80 l 1x91c0
 359 40 l 1x51c0
 319 80 l 1
79 440 m 1
 79 720 l 1x15c0
 119 760 l 1x13c0
 159 720 l 1x15c0
 159 440 l 1
 119 400 l 1
 79 440 l 1
559 80 m 1x91c0
 559 360 l 1
 599 400 l 1
 639 360 l 1
 639 80 l 1x91c0
 599 40 l 1x51c0
 559 80 l 1x91c0
159 440 m 1
 319 440 l 1
 359 400 l 1
 319 360 l 1
 159 360 l 1
 119 400 l 1
 159 440 l 1
399 440 m 1
 559 440 l 1
 599 400 l 1
 559 360 l 1
 399 360 l 1
 359 400 l 1
 399 440 l 1
559 800 m 1x15c0
 599 760 l 1
 559 720 l 1x1bc0
 399 720 l 1x15c0
 359 760 l 1x13c0
 319 720 l 1
 159 720 l 1x15c0
 119 760 l 1x13c0
 159 800 l 1
 559 800 l 1x15c0
EndSplineSet
Validated: 5
EndChar

StartChar: ampersand
Encoding: 38 38 58
Width: 718
VWidth: 0
Flags: W
HStem: 0 80<159 319 399 559> 40 21G<579 619> 40 21G<579 619> 700 20G<159 211 507 559> 720 80<159 319 399 559>
VStem: 559 80<80 360>
LayerCount: 2
Fore
SplineSet
399 80 m 1x84
 451 80 507 80 559 80 c 1x84
 599 40 l 1x44
 559 0 l 1
 159 0 l 1x84
 119 40 l 1x24
 159 80 l 1
 319 80 l 1x84
 359 40 l 1x24
 399 80 l 1x84
199 720 m 1x14
 319 520 l 1
 319 440 l 1
 279 440 l 1
 159 640 l 1
 159 720 l 1
 199 720 l 1x14
519 720 m 1
 559 720 l 1
 559 640 l 1
 439 440 l 1
 399 440 l 1
 399 520 l 1
 519 720 l 1
519 80 m 1x84
 399 280 l 1
 399 360 l 1
 439 360 l 1
 559 160 l 1
 559 80 l 1
 519 80 l 1x84
199 80 m 1
 159 80 l 1
 159 160 l 1
 279 360 l 1
 319 360 l 1
 319 280 l 1
 199 80 l 1
559 80 m 1
 559 360 l 1
 599 400 l 1
 639 360 l 1
 639 80 l 1x84
 599 40 l 1x44
 559 80 l 1
559 800 m 1x0c
 599 760 l 1
 559 720 l 1x14
 399 720 l 1
 359 760 l 1
 319 720 l 1x0c
 159 720 l 1x14
 119 760 l 1
 159 800 l 1
 559 800 l 1x0c
EndSplineSet
Validated: 5
EndChar

StartChar: quotesingle
Encoding: 39 39 59
Width: 718
VWidth: 0
Flags: W
HStem: 740 20G<339 379> 740 20G<339 379>
VStem: 319 80<440 720>
LayerCount: 2
Fore
SplineSet
319 440 m 1xa0
 319 720 l 1
 359 760 l 1
 399 720 l 1
 399 440 l 1
 359 400 l 1
 319 440 l 1xa0
EndSplineSet
Validated: 1
EndChar

StartChar: parenleft
Encoding: 40 40 60
Width: 718
VWidth: 0
Flags: W
HStem: 0 80<159 319 399 559> 40 21G<99 139> 40 21G<99 139> 720 80<159 319 399 559> 740 20G<99 139> 740 20G<99 139>
VStem: 79 80<80 360 440 720>
LayerCount: 2
Fore
SplineSet
399 80 m 1x82
 451 80 507 80 559 80 c 1x82
 599 40 l 1x22
 559 0 l 1
 159 0 l 1x82
 119 40 l 1x42
 159 80 l 1
 319 80 l 1x82
 359 40 l 1x22
 399 80 l 1x82
79 440 m 1
 79 720 l 1x12
 119 760 l 1x0a
 159 720 l 1x12
 159 440 l 1
 119 400 l 1
 79 440 l 1
79 80 m 1x82
 79 360 l 1
 119 400 l 1
 159 360 l 1
 159 80 l 1x82
 119 40 l 1x42
 79 80 l 1x82
559 800 m 1x12
 599 760 l 1x06
 559 720 l 1
 399 720 l 1x12
 359 760 l 1x06
 319 720 l 1
 159 720 l 1x12
 119 760 l 1x0a
 159 800 l 1
 559 800 l 1x12
EndSplineSet
Validated: 5
EndChar

StartChar: parenright
Encoding: 41 41 61
Width: 718
VWidth: 0
Flags: W
HStem: 0 80<159 319 399 559> 40 21G<579 619> 40 21G<579 619> 720 80<159 319 399 559> 740 20G<579 619> 740 20G<579 619>
VStem: 559 80<80 360 440 720>
LayerCount: 2
Fore
SplineSet
399 80 m 1x82
 451 80 507 80 559 80 c 1x82
 599 40 l 1x42
 559 0 l 1
 159 0 l 1x82
 119 40 l 1x22
 159 80 l 1
 319 80 l 1x82
 359 40 l 1x22
 399 80 l 1x82
559 440 m 1
 559 720 l 1x12
 599 760 l 1x0a
 639 720 l 1x12
 639 440 l 1
 599 400 l 1
 559 440 l 1
559 80 m 1x82
 559 360 l 1
 599 400 l 1
 639 360 l 1
 639 80 l 1x82
 599 40 l 1x42
 559 80 l 1x82
559 800 m 1x12
 599 760 l 1x0a
 559 720 l 1
 399 720 l 1x12
 359 760 l 1x06
 319 720 l 1
 159 720 l 1x12
 119 760 l 1x06
 159 800 l 1
 559 800 l 1x12
EndSplineSet
Validated: 5
EndChar

StartChar: plus
Encoding: 43 43 62
Width: 718
VWidth: 0
Flags: W
HStem: 40 21G<339 379> 40 21G<339 379> 360 80<159 319 399 559> 740 20G<339 379> 740 20G<339 379>
VStem: 319 80<80 360 440 720>
LayerCount: 2
Fore
SplineSet
319 440 m 1x34
 319 720 l 1
 359 760 l 1
 399 720 l 1
 399 440 l 1
 359 400 l 1
 319 440 l 1x34
319 80 m 1
 319 360 l 1
 359 400 l 1
 399 360 l 1
 399 80 l 1
 359 40 l 1xa4
 319 80 l 1
159 440 m 1
 319 440 l 1
 359 400 l 1
 319 360 l 1
 159 360 l 1
 119 400 l 1
 159 440 l 1
399 440 m 1
 559 440 l 1
 599 400 l 1
 559 360 l 1
 399 360 l 1
 359 400 l 1
 399 440 l 1
EndSplineSet
Validated: 5
EndChar

StartChar: hyphen
Encoding: 45 45 63
Width: 718
VWidth: 0
Flags: W
HStem: 360 80<159 319 399 559>
LayerCount: 2
Fore
SplineSet
159 440 m 1
 319 440 l 1
 359 400 l 1
 319 360 l 1
 159 360 l 1
 119 400 l 1
 159 440 l 1
399 440 m 1
 559 440 l 1
 599 400 l 1
 559 360 l 1
 399 360 l 1
 359 400 l 1
 399 440 l 1
EndSplineSet
Validated: 5
EndChar

StartChar: semicolon
Encoding: 59 59 64
Width: 718
VWidth: 0
Flags: W
HStem: 740 20G<339 379> 740 20G<339 379>
VStem: 319 80<440 720>
LayerCount: 2
Fore
SplineSet
319 440 m 1xa0
 319 720 l 1
 359 760 l 1
 399 720 l 1
 399 440 l 1
 359 400 l 1
 319 440 l 1xa0
199 80 m 1
 159 80 l 1
 159 160 l 1
 279 360 l 1
 319 360 l 1
 319 280 l 1
 199 80 l 1
EndSplineSet
Validated: 1
EndChar

StartChar: less
Encoding: 60 60 65
Width: 718
VWidth: 0
Flags: W
HStem: 700 20G<507 559>
VStem: 399 160
LayerCount: 2
Fore
SplineSet
519 720 m 1
 559 720 l 1
 559 640 l 1
 439 440 l 1
 399 440 l 1
 399 520 l 1
 519 720 l 1
519 80 m 1
 399 280 l 1
 399 360 l 1
 439 360 l 1
 559 160 l 1
 559 80 l 1
 519 80 l 1
EndSplineSet
Validated: 1
EndChar

StartChar: equal
Encoding: 61 61 66
Width: 718
VWidth: 0
Flags: W
HStem: 0 80<159 319 399 559> 360 80<159 319 399 559>
LayerCount: 2
Fore
SplineSet
399 80 m 1
 451 80 507 80 559 80 c 1
 599 40 l 1
 559 0 l 1
 159 0 l 1
 119 40 l 1
 159 80 l 1
 319 80 l 1
 359 40 l 1
 399 80 l 1
159 440 m 1
 319 440 l 1
 359 400 l 1
 319 360 l 1
 159 360 l 1
 119 400 l 1
 159 440 l 1
399 440 m 1
 559 440 l 1
 599 400 l 1
 559 360 l 1
 399 360 l 1
 359 400 l 1
 399 440 l 1
EndSplineSet
Validated: 5
EndChar

StartChar: greater
Encoding: 62 62 67
Width: 718
VWidth: 0
Flags: W
HStem: 700 20G<159 211>
VStem: 159 160
LayerCount: 2
Fore
SplineSet
199 720 m 1
 319 520 l 1
 319 440 l 1
 279 440 l 1
 159 640 l 1
 159 720 l 1
 199 720 l 1
199 80 m 1
 159 80 l 1
 159 160 l 1
 279 360 l 1
 319 360 l 1
 319 280 l 1
 199 80 l 1
EndSplineSet
Validated: 1
EndChar

StartChar: at
Encoding: 64 64 68
Width: 718
VWidth: 0
Flags: W
HStem: 0 80<159 319 399 559> 40 21G<579 619> 40 21G<579 619> 720 80<159 319 399 559> 740 20G<99 139 579 619> 740 20G<99 139 579 619>
VStem: 79 80<440 720> 559 80<80 360 440 720>
LayerCount: 2
Fore
SplineSet
399 80 m 1x83
 451 80 507 80 559 80 c 1x83
 599 40 l 1x43
 559 0 l 1
 159 0 l 1x83
 119 40 l 1x23
 159 80 l 1
 319 80 l 1x83
 359 40 l 1x23
 399 80 l 1x83
519 80 m 1
 399 280 l 1
 399 360 l 1
 439 360 l 1
 559 160 l 1
 559 80 l 1
 519 80 l 1
199 80 m 1
 159 80 l 1
 159 160 l 1
 279 360 l 1
 319 360 l 1
 319 280 l 1
 199 80 l 1
79 440 m 1
 79 720 l 1x13
 119 760 l 1x0b
 159 720 l 1x13
 159 440 l 1
 119 400 l 1
 79 440 l 1
559 440 m 1
 559 720 l 1x13
 599 760 l 1x0b
 639 720 l 1
 639 440 l 1
 599 400 l 1
 559 440 l 1
559 80 m 1x83
 559 360 l 1
 599 400 l 1
 639 360 l 1
 639 80 l 1x83
 599 40 l 1x43
 559 80 l 1x83
559 800 m 1x13
 599 760 l 1x0b
 559 720 l 1
 399 720 l 1x13
 359 760 l 1x07
 319 720 l 1
 159 720 l 1x13
 119 760 l 1x0b
 159 800 l 1
 559 800 l 1x13
EndSplineSet
Validated: 5
EndChar

StartChar: bracketleft
Encoding: 91 91 69
Width: 718
VWidth: 0
Flags: W
HStem: 0 80<159 319 399 559> 40 21G<99 139 339 379> 40 21G<99 139 339 379> 720 80<159 319 399 559> 740 20G<99 139 339 379> 740 20G<99 139 339 379>
VStem: 79 80<80 360 440 720> 319 80<80 360 440 720>
LayerCount: 2
Fore
SplineSet
399 80 m 1x83
 451 80 507 80 559 80 c 1x83
 599 40 l 1x23
 559 0 l 1
 159 0 l 1x83
 119 40 l 1x43
 159 80 l 1
 319 80 l 1x83
 359 40 l 1x43
 399 80 l 1x83
319 440 m 1
 319 720 l 1x13
 359 760 l 1x0b
 399 720 l 1x13
 399 440 l 1
 359 400 l 1
 319 440 l 1
319 80 m 1x83
 319 360 l 1
 359 400 l 1
 399 360 l 1
 399 80 l 1x83
 359 40 l 1x43
 319 80 l 1x83
79 440 m 1
 79 720 l 1x13
 119 760 l 1x0b
 159 720 l 1x13
 159 440 l 1
 119 400 l 1
 79 440 l 1
79 80 m 1x83
 79 360 l 1
 119 400 l 1
 159 360 l 1
 159 80 l 1x83
 119 40 l 1x43
 79 80 l 1x83
559 800 m 1x13
 599 760 l 1x07
 559 720 l 1
 399 720 l 1x13
 359 760 l 1x0b
 319 720 l 1
 159 720 l 1x13
 119 760 l 1x0b
 159 800 l 1
 559 800 l 1x13
EndSplineSet
Validated: 5
EndChar

StartChar: backslash
Encoding: 92 92 70
Width: 718
VWidth: 0
Flags: W
HStem: 700 20G<159 211>
LayerCount: 2
Fore
SplineSet
199 720 m 1
 319 520 l 1
 319 440 l 1
 279 440 l 1
 159 640 l 1
 159 720 l 1
 199 720 l 1
519 80 m 1
 399 280 l 1
 399 360 l 1
 439 360 l 1
 559 160 l 1
 559 80 l 1
 519 80 l 1
EndSplineSet
Validated: 1
EndChar

StartChar: bracketright
Encoding: 93 93 71
Width: 718
VWidth: 0
Flags: W
HStem: 0 80<159 319 399 559> 40 21G<339 379 579 619> 40 21G<339 379 579 619> 720 80<159 319 399 559> 740 20G<339 379 579 619> 740 20G<339 379 579 619>
VStem: 319 80<80 360 440 720> 559 80<80 360 440 720>
LayerCount: 2
Fore
SplineSet
399 80 m 1x83
 451 80 507 80 559 80 c 1x83
 599 40 l 1x43
 559 0 l 1
 159 0 l 1x83
 119 40 l 1x23
 159 80 l 1
 319 80 l 1x83
 359 40 l 1x43
 399 80 l 1x83
319 440 m 5
 319 720 l 5x13
 359 760 l 5x0b
 399 720 l 5x13
 399 440 l 5
 359 400 l 5
 319 440 l 5
319 80 m 5x83
 319 360 l 5
 359 400 l 5
 399 360 l 5
 399 80 l 5x83
 359 40 l 5x43
 319 80 l 5x83
559 440 m 1
 559 720 l 1x13
 599 760 l 1x0b
 639 720 l 1x13
 639 440 l 1
 599 400 l 1
 559 440 l 1
559 80 m 1x83
 559 360 l 1
 599 400 l 1
 639 360 l 1
 639 80 l 1x83
 599 40 l 1x43
 559 80 l 1x83
559 800 m 1x13
 599 760 l 1x0b
 559 720 l 1
 399 720 l 1x13
 359 760 l 1x0b
 319 720 l 1
 159 720 l 1x13
 119 760 l 1x07
 159 800 l 1
 559 800 l 1x13
EndSplineSet
Validated: 5
EndChar

StartChar: asciicircum
Encoding: 94 94 72
Width: 718
VWidth: 0
Flags: W
HStem: 80 280
LayerCount: 2
Fore
SplineSet
519 80 m 1
 399 280 l 1
 399 360 l 1
 439 360 l 1
 559 160 l 1
 559 80 l 1
 519 80 l 1
199 80 m 1
 159 80 l 1
 159 160 l 1
 279 360 l 1
 319 360 l 1
 319 280 l 1
 199 80 l 1
EndSplineSet
Validated: 1
EndChar

StartChar: underscore
Encoding: 95 95 73
Width: 718
VWidth: 0
Flags: W
HStem: 0 80<159 319 399 559>
LayerCount: 2
Fore
SplineSet
399 80 m 1
 451 80 507 80 559 80 c 1
 599 40 l 1
 559 0 l 1
 159 0 l 1
 119 40 l 1
 159 80 l 1
 319 80 l 1
 359 40 l 1
 399 80 l 1
EndSplineSet
Validated: 1
EndChar

StartChar: grave
Encoding: 96 96 74
Width: 718
VWidth: 0
Flags: W
HStem: 440 280
VStem: 159 160
LayerCount: 2
Fore
SplineSet
199 720 m 1
 319 520 l 1
 319 440 l 1
 279 440 l 1
 159 640 l 1
 159 720 l 1
 199 720 l 1
EndSplineSet
Validated: 1
EndChar

StartChar: braceleft
Encoding: 123 123 93
Width: 718
VWidth: 0
Flags: W
HStem: 0 80<159 319 399 559> 40 21G<99 139> 40 21G<99 139> 360 80<159 319> 720 80<159 319 399 559> 740 20G<99 139> 740 20G<99 139>
VStem: 79 80<80 360 440 720>
LayerCount: 2
Fore
SplineSet
399 80 m 1x91
 451 80 507 80 559 80 c 1x91
 599 40 l 1x31
 559 0 l 1
 159 0 l 1x91
 119 40 l 1x51
 159 80 l 1
 319 80 l 1x91
 359 40 l 1x31
 399 80 l 1x91
79 440 m 1
 79 720 l 1x19
 119 760 l 1x15
 159 720 l 1x19
 159 440 l 1
 119 400 l 1
 79 440 l 1
79 80 m 1x91
 79 360 l 1
 119 400 l 1
 159 360 l 1
 159 80 l 1x91
 119 40 l 1x51
 79 80 l 1x91
159 440 m 1
 319 440 l 1
 359 400 l 1
 319 360 l 1
 159 360 l 1
 119 400 l 1
 159 440 l 1
559 800 m 1x19
 599 760 l 1x13
 559 720 l 1
 399 720 l 1x19
 359 760 l 1x13
 319 720 l 1
 159 720 l 1x19
 119 760 l 1x15
 159 800 l 1
 559 800 l 1x19
EndSplineSet
Validated: 5
EndChar

StartChar: bar
Encoding: 124 124 94
Width: 718
VWidth: 0
Flags: W
HStem: 40 21G<339 379> 40 21G<339 379> 740 20G<339 379> 740 20G<339 379>
VStem: 319 80<80 360 440 720>
LayerCount: 2
Fore
SplineSet
319 440 m 1x28
 319 720 l 1
 359 760 l 1
 399 720 l 1
 399 440 l 1
 359 400 l 1
 319 440 l 1x28
319 80 m 1
 319 360 l 1
 359 400 l 1
 399 360 l 1
 399 80 l 1
 359 40 l 1x88
 319 80 l 1
EndSplineSet
Validated: 5
EndChar

StartChar: braceright
Encoding: 125 125 95
Width: 718
VWidth: 0
Flags: W
HStem: 0 80<159 319 399 559> 40 21G<579 619> 40 21G<579 619> 360 80<399 559> 720 80<159 319 399 559> 740 20G<579 619> 740 20G<579 619>
VStem: 559 80<80 360 440 720>
LayerCount: 2
Fore
SplineSet
399 80 m 1x91
 451 80 507 80 559 80 c 1x91
 599 40 l 1x51
 559 0 l 1
 159 0 l 1x91
 119 40 l 1x31
 159 80 l 1
 319 80 l 1x91
 359 40 l 1x31
 399 80 l 1x91
559 440 m 1
 559 720 l 1x19
 599 760 l 1x15
 639 720 l 1x19
 639 440 l 1
 599 400 l 1
 559 440 l 1
559 80 m 1x91
 559 360 l 1
 599 400 l 1
 639 360 l 1
 639 80 l 1x91
 599 40 l 1x51
 559 80 l 1x91
399 440 m 1
 559 440 l 1
 599 400 l 1
 559 360 l 1
 399 360 l 1
 359 400 l 1
 399 440 l 1
559 800 m 1x19
 599 760 l 1x15
 559 720 l 1
 399 720 l 1x19
 359 760 l 1x13
 319 720 l 1
 159 720 l 1x19
 119 760 l 1x13
 159 800 l 1
 559 800 l 1x19
EndSplineSet
Validated: 5
EndChar

StartChar: yen
Encoding: 165 165 96
Width: 718
VWidth: 0
Flags: W
HStem: 0 80<159 319 399 559> 40 21G<339 379> 40 21G<339 379> 360 80<159 279 439 559> 700 20G<159 211 507 559>
VStem: 319 80<80 360>
LayerCount: 2
Fore
SplineSet
399 80 m 1x9c
 451 80 507 80 559 80 c 1x9c
 599 40 l 1x3c
 559 0 l 1
 159 0 l 1x9c
 119 40 l 1x3c
 159 80 l 1
 319 80 l 1x9c
 359 40 l 1x5c
 399 80 l 1x9c
199 720 m 1
 319 520 l 1
 319 440 l 1
 279 440 l 1
 159 640 l 1
 159 720 l 1
 199 720 l 1
519 720 m 1
 559 720 l 1
 559 640 l 1
 439 440 l 1
 399 440 l 1
 399 520 l 1
 519 720 l 1
319 80 m 1
 319 360 l 1
 359 400 l 1
 399 360 l 1
 399 80 l 1x9c
 359 40 l 1x5c
 319 80 l 1
159 440 m 1
 319 440 l 1
 359 400 l 1
 319 360 l 1
 159 360 l 1
 119 400 l 1
 159 440 l 1
399 440 m 1
 559 440 l 1
 599 400 l 1
 559 360 l 1
 399 360 l 1
 359 400 l 1
 399 440 l 1
EndSplineSet
Validated: 5
EndChar

StartChar: brokenbar
Encoding: 166 166 97
Width: 718
VWidth: 0
Flags: W
HStem: 40 21G<339 379> 40 21G<339 379> 740 20G<339 379> 740 20G<339 379>
VStem: 319 80<80 360 440 720>
LayerCount: 2
Fore
SplineSet
319 440 m 1x28
 319 720 l 1
 359 760 l 1
 399 720 l 1
 399 440 l 1
 359 400 l 1
 319 440 l 1x28
319 80 m 1
 319 360 l 1
 359 400 l 1
 399 360 l 1
 399 80 l 1
 359 40 l 1x88
 319 80 l 1
EndSplineSet
Validated: 5
EndChar

StartChar: logicalnot
Encoding: 172 172 98
Width: 718
VWidth: 0
Flags: W
HStem: 40 21G<579 619> 40 21G<579 619> 360 80<159 319 399 559>
VStem: 559 80<80 360>
LayerCount: 2
Fore
SplineSet
559 80 m 1xb0
 559 360 l 1
 599 400 l 1
 639 360 l 1
 639 80 l 1
 599 40 l 1
 559 80 l 1xb0
159 440 m 1
 319 440 l 1
 359 400 l 1
 319 360 l 1
 159 360 l 1
 119 400 l 1
 159 440 l 1
399 440 m 1
 559 440 l 1
 599 400 l 1
 559 360 l 1
 399 360 l 1
 359 400 l 1
 399 440 l 1
EndSplineSet
Validated: 5
EndChar

StartChar: plusminus
Encoding: 177 177 99
Width: 718
VWidth: 0
Flags: W
HStem: 0 80<159 319 399 559> 40 21G<339 379> 40 21G<339 379> 360 80<159 319 399 559> 740 20G<339 379> 740 20G<339 379>
VStem: 319 80<80 360 440 720>
LayerCount: 2
Fore
SplineSet
399 80 m 5x92
 451 80 507 80 559 80 c 5x92
 599 40 l 5x32
 559 0 l 5
 159 0 l 5x92
 119 40 l 5x32
 159 80 l 5
 319 80 l 5x92
 359 40 l 5x52
 399 80 l 5x92
319 440 m 1
 319 720 l 1
 359 760 l 1x1a
 399 720 l 1
 399 440 l 1
 359 400 l 1
 319 440 l 1
319 80 m 1x92
 319 360 l 1
 359 400 l 1
 399 360 l 1
 399 80 l 1x92
 359 40 l 1x52
 319 80 l 1x92
159 440 m 1
 319 440 l 1
 359 400 l 1
 319 360 l 1
 159 360 l 1
 119 400 l 1
 159 440 l 1
399 440 m 1
 559 440 l 1
 599 400 l 1
 559 360 l 1
 399 360 l 1
 359 400 l 1
 399 440 l 1
EndSplineSet
Validated: 5
EndChar

StartChar: uni009F
Encoding: 159 159 102
Width: 718
VWidth: 0
Flags: W
HStem: 0 80<159 319 399 559> 40 21G<99 139 339 379 579 619> 40 21G<99 139 339 379 579 619> 360 80<159 279 439 559> 700 20G<99 139 159 211 339 379 507 559 579 619> 720 80<159 319 399 559> 740 20G<99 139 339 379 579 619>
VStem: 79 80<160 360 440 640> 319 80<80 280 520 720> 559 80<80 360 440 720>
CounterMasks: 1 01c0
LayerCount: 2
Fore
SplineSet
399 80 m 1x91c0
 451 80 507 80 559 80 c 1x91c0
 599 40 l 1x51c0
 559 0 l 1
 159 0 l 1x91c0
 119 40 l 1x51c0
 159 80 l 1
 319 80 l 1x91c0
 359 40 l 1x51c0
 399 80 l 1x91c0
199 720 m 1x19c0
 319 520 l 1
 319 440 l 1
 279 440 l 1
 159 640 l 1
 159 720 l 1
 199 720 l 1x19c0
519 720 m 1
 559 720 l 1
 559 640 l 1
 439 440 l 1
 399 440 l 1
 399 520 l 1
 519 720 l 1
319 440 m 1
 319 720 l 1x15c0
 359 760 l 1x13c0
 399 720 l 1x15c0
 399 440 l 1
 359 400 l 1
 319 440 l 1
519 80 m 1x91c0
 399 280 l 1
 399 360 l 1
 439 360 l 1
 559 160 l 1
 559 80 l 1
 519 80 l 1x91c0
199 80 m 1
 159 80 l 1
 159 160 l 1
 279 360 l 1
 319 360 l 1
 319 280 l 1
 199 80 l 1
319 80 m 1
 319 360 l 1
 359 400 l 1
 399 360 l 1
 399 80 l 1x91c0
 359 40 l 1x51c0
 319 80 l 1
79 440 m 1
 79 720 l 1x15c0
 119 760 l 1
 159 720 l 1x1bc0
 159 440 l 1
 119 400 l 1
 79 440 l 1
79 80 m 1x91c0
 79 360 l 1
 119 400 l 1
 159 360 l 1
 159 80 l 1x91c0
 119 40 l 1x51c0
 79 80 l 1x91c0
559 440 m 1
 559 720 l 1
 599 760 l 1x1bc0
 639 720 l 1x15c0
 639 440 l 1
 599 400 l 1
 559 440 l 1
559 80 m 1x91c0
 559 360 l 1
 599 400 l 1
 639 360 l 1
 639 80 l 1x91c0
 599 40 l 1x51c0
 559 80 l 1x91c0
159 440 m 1
 319 440 l 1
 359 400 l 1
 319 360 l 1
 159 360 l 1
 119 400 l 1
 159 440 l 1
399 440 m 1
 559 440 l 1
 599 400 l 1
 559 360 l 1
 399 360 l 1
 359 400 l 1
 399 440 l 1
559 800 m 1x15c0
 599 760 l 1
 559 720 l 1x1bc0
 399 720 l 1x15c0
 359 760 l 1x13c0
 319 720 l 1x15c0
 159 720 l 1
 119 760 l 1x1bc0
 159 800 l 1
 559 800 l 1x15c0
EndSplineSet
Validated: 5
EndChar

StartChar: paragraph
Encoding: 182 182 103
Width: 718
VWidth: 0
Flags: W
HStem: 40 21G<339 379 579 619> 40 21G<339 379 579 619> 360 80<159 279> 700 60G<99 139 159 211 339 379 579 619> 720 80<159 319 399 559> 740 20G<99 139 339 379 579 619>
VStem: 79 80<440 640> 319 80<80 360 440 720> 559 80<80 360 440 720>
CounterMasks: 1 0380
LayerCount: 2
Fore
SplineSet
199 720 m 1x2b80
 319 520 l 1
 319 440 l 1
 279 440 l 1
 159 640 l 1
 159 720 l 1
 199 720 l 1x2b80
319 440 m 1
 319 720 l 1x2b80
 359 760 l 1x3380
 399 720 l 1
 399 440 l 1
 359 400 l 1
 319 440 l 1
319 80 m 1
 319 360 l 1
 359 400 l 1
 399 360 l 1
 399 80 l 1
 359 40 l 1xa380
 319 80 l 1
79 440 m 1
 79 720 l 1x2b80
 119 760 l 1x3380
 159 720 l 1x2b80
 159 440 l 1
 119 400 l 1
 79 440 l 1
559 440 m 1
 559 720 l 1x2b80
 599 760 l 1x3380
 639 720 l 1
 639 440 l 1
 599 400 l 1
 559 440 l 1
559 80 m 1
 559 360 l 1
 599 400 l 1
 639 360 l 1
 639 80 l 1
 599 40 l 1xa380
 559 80 l 1
159 440 m 1
 319 440 l 1
 359 400 l 1
 319 360 l 1
 159 360 l 1
 119 400 l 1
 159 440 l 1
559 800 m 1x2b80
 599 760 l 1x3380
 559 720 l 1
 399 720 l 1x2b80
 359 760 l 1x3380
 319 720 l 1
 159 720 l 1x2b80
 119 760 l 1x3380
 159 800 l 1
 559 800 l 1x2b80
EndSplineSet
Validated: 5
EndChar

StartChar: degree
Encoding: 176 176 104
Width: 718
VWidth: 0
Flags: W
HStem: 360 80<159 319 399 559> 720 80<159 319 399 559> 740 20G<99 139 579 619> 740 20G<99 139 579 619>
VStem: 79 80<440 720> 559 80<440 720>
LayerCount: 2
Fore
SplineSet
79 440 m 1xcc
 79 720 l 1xcc
 119 760 l 1xac
 159 720 l 1
 159 440 l 1
 119 400 l 1
 79 440 l 1xcc
559 440 m 1
 559 720 l 1xcc
 599 760 l 1xac
 639 720 l 1
 639 440 l 1
 599 400 l 1
 559 440 l 1
159 440 m 1
 319 440 l 1
 359 400 l 1
 319 360 l 1
 159 360 l 1
 119 400 l 1
 159 440 l 1
399 440 m 1
 559 440 l 1
 599 400 l 1
 559 360 l 1
 399 360 l 1
 359 400 l 1
 399 440 l 1
559 800 m 1
 599 760 l 1xac
 559 720 l 1
 399 720 l 1xcc
 359 760 l 1x9c
 319 720 l 1
 159 720 l 1xcc
 119 760 l 1xac
 159 800 l 1
 559 800 l 1
EndSplineSet
Validated: 5
EndChar

StartChar: exclamdown
Encoding: 161 161 105
Width: 718
VWidth: 0
Flags: W
HStem: 40 21G<339 379> 40 21G<339 379> 720 80<159 319 399 559>
VStem: 319 80<80 360>
LayerCount: 2
Fore
SplineSet
319 80 m 1xb0
 319 360 l 1
 359 400 l 1
 399 360 l 1
 399 80 l 1
 359 40 l 1
 319 80 l 1xb0
559 800 m 1
 599 760 l 1
 559 720 l 1
 399 720 l 1
 359 760 l 1
 319 720 l 1
 159 720 l 1
 119 760 l 1
 159 800 l 1
 559 800 l 1
EndSplineSet
Validated: 1
EndChar

StartChar: questiondown
Encoding: 191 191 106
Width: 718
VWidth: 0
Flags: W
HStem: 0 80<159 319 399 559> 40 21G<99 139> 40 21G<99 139> 360 80<159 319> 740 20G<339 379> 740 20G<339 379>
VStem: 79 80<80 360> 319 80<440 720>
LayerCount: 2
Fore
SplineSet
399 80 m 1x93
 451 80 507 80 559 80 c 1x93
 599 40 l 1x33
 559 0 l 1
 159 0 l 1x93
 119 40 l 1x53
 159 80 l 1
 319 80 l 1x93
 359 40 l 1x33
 399 80 l 1x93
319 440 m 1
 319 720 l 1
 359 760 l 1x1b
 399 720 l 1
 399 440 l 1
 359 400 l 1
 319 440 l 1
79 80 m 1x93
 79 360 l 1
 119 400 l 1
 159 360 l 1
 159 80 l 1x93
 119 40 l 1x53
 79 80 l 1x93
159 440 m 1
 319 440 l 1
 359 400 l 1
 319 360 l 1
 159 360 l 1
 119 400 l 1
 159 440 l 1
EndSplineSet
Validated: 5
EndChar

StartChar: cent
Encoding: 162 162 107
Width: 718
VWidth: 0
Flags: W
HStem: 0 80<159 319 399 559> 40 21G<99 139 339 379> 40 21G<99 139 339 379> 360 80<159 319 399 559> 740 20G<339 379> 740 20G<339 379>
VStem: 79 80<80 360> 319 80<80 360 440 720>
LayerCount: 2
Fore
SplineSet
399 80 m 1x93
 451 80 507 80 559 80 c 1x93
 599 40 l 1x33
 559 0 l 1
 159 0 l 1x93
 119 40 l 1x53
 159 80 l 1
 319 80 l 1x93
 359 40 l 1x53
 399 80 l 1x93
319 440 m 1
 319 720 l 1
 359 760 l 1x1b
 399 720 l 1
 399 440 l 1
 359 400 l 1
 319 440 l 1
319 80 m 1x93
 319 360 l 1
 359 400 l 1
 399 360 l 1
 399 80 l 1x93
 359 40 l 1x53
 319 80 l 1x93
79 80 m 1
 79 360 l 1
 119 400 l 1
 159 360 l 1
 159 80 l 1x93
 119 40 l 1x53
 79 80 l 1
159 440 m 1
 319 440 l 1
 359 400 l 1
 319 360 l 1
 159 360 l 1
 119 400 l 1
 159 440 l 1
399 440 m 1
 559 440 l 1
 599 400 l 1
 559 360 l 1
 399 360 l 1
 359 400 l 1
 399 440 l 1
EndSplineSet
Validated: 5
EndChar

StartChar: ordmasculine
Encoding: 186 186 108
Width: 718
VWidth: 0
Flags: W
HStem: 0 80<159 319 399 559> 360 80<159 319 399 559> 720 80<159 319 399 559> 740 20G<99 139 579 619> 740 20G<99 139 579 619>
VStem: 79 80<440 720> 559 80<440 720>
LayerCount: 2
Fore
SplineSet
399 80 m 1xc6
 451 80 507 80 559 80 c 1
 599 40 l 1
 559 0 l 1
 159 0 l 1
 119 40 l 1
 159 80 l 1
 319 80 l 1
 359 40 l 1
 399 80 l 1xc6
79 440 m 1
 79 720 l 1xe6
 119 760 l 1xd6
 159 720 l 1xe6
 159 440 l 1
 119 400 l 1
 79 440 l 1
559 440 m 1
 559 720 l 1xe6
 599 760 l 1xd6
 639 720 l 1
 639 440 l 1
 599 400 l 1
 559 440 l 1
159 440 m 1
 319 440 l 1
 359 400 l 1
 319 360 l 1
 159 360 l 1
 119 400 l 1
 159 440 l 1
399 440 m 1
 559 440 l 1
 599 400 l 1
 559 360 l 1
 399 360 l 1
 359 400 l 1
 399 440 l 1
559 800 m 1
 599 760 l 1xd6
 559 720 l 1
 399 720 l 1xe6
 359 760 l 1xce
 319 720 l 1
 159 720 l 1xe6
 119 760 l 1xd6
 159 800 l 1
 559 800 l 1
EndSplineSet
Validated: 5
EndChar

StartChar: sterling
Encoding: 163 163 109
Width: 718
VWidth: 0
Flags: W
HStem: 0 80<159 319 399 559> 40 21G<99 139> 40 21G<99 139> 360 80<159 319> 720 80<159 319 399 559> 740 20G<99 139 579 619> 740 20G<99 139 579 619>
VStem: 79 80<80 360 440 720> 559 80<440 720>
LayerCount: 2
Fore
SplineSet
399 80 m 1x9180
 451 80 507 80 559 80 c 1x9180
 599 40 l 1x3180
 559 0 l 1
 159 0 l 1x9180
 119 40 l 1x5180
 159 80 l 1
 319 80 l 1x9180
 359 40 l 1x3180
 399 80 l 1x9180
79 440 m 1
 79 720 l 1x1980
 119 760 l 1x1580
 159 720 l 1x1980
 159 440 l 1
 119 400 l 1
 79 440 l 1
79 80 m 1x9180
 79 360 l 1
 119 400 l 1
 159 360 l 1
 159 80 l 1x9180
 119 40 l 1x5180
 79 80 l 1x9180
559 440 m 1
 559 720 l 1x1980
 599 760 l 1x1580
 639 720 l 1x1980
 639 440 l 1
 599 400 l 1
 559 440 l 1
159 440 m 1
 319 440 l 1
 359 400 l 1
 319 360 l 1
 159 360 l 1
 119 400 l 1
 159 440 l 1
559 800 m 1
 599 760 l 1x1580
 559 720 l 1
 399 720 l 1x1980
 359 760 l 1x1380
 319 720 l 1
 159 720 l 1x1980
 119 760 l 1x1580
 159 800 l 1
 559 800 l 1
EndSplineSet
Validated: 5
EndChar

StartChar: currency
Encoding: 164 164 110
Width: 718
VWidth: 0
Flags: W
HStem: 0 80<159 319 399 559> 40 21G<99 139 579 619> 40 21G<99 139 579 619> 700 20G<99 139 159 211 507 559 579 619> 720 80<159 319 399 559> 740 20G<99 139 579 619>
VStem: 79 80<160 360 440 640> 559 80<80 360 440 720>
LayerCount: 2
Fore
SplineSet
399 80 m 1x83
 451 80 507 80 559 80 c 1x83
 599 40 l 1x43
 559 0 l 1
 159 0 l 1x83
 119 40 l 1x43
 159 80 l 1
 319 80 l 1x83
 359 40 l 1x23
 399 80 l 1x83
199 720 m 1x13
 319 520 l 1
 319 440 l 1
 279 440 l 1
 159 640 l 1
 159 720 l 1
 199 720 l 1x13
519 720 m 1
 559 720 l 1
 559 640 l 1
 439 440 l 1
 399 440 l 1
 399 520 l 1
 519 720 l 1
519 80 m 1x83
 399 280 l 1
 399 360 l 1
 439 360 l 1
 559 160 l 1
 559 80 l 1
 519 80 l 1x83
199 80 m 1
 159 80 l 1
 159 160 l 1
 279 360 l 1
 319 360 l 1
 319 280 l 1
 199 80 l 1
79 440 m 1
 79 720 l 1x0b
 119 760 l 1
 159 720 l 1x17
 159 440 l 1
 119 400 l 1
 79 440 l 1
79 80 m 1x83
 79 360 l 1
 119 400 l 1
 159 360 l 1
 159 80 l 1x83
 119 40 l 1x43
 79 80 l 1x83
559 440 m 1
 559 720 l 1
 599 760 l 1x17
 639 720 l 1x0b
 639 440 l 1
 599 400 l 1
 559 440 l 1
559 80 m 1x83
 559 360 l 1
 599 400 l 1
 639 360 l 1
 639 80 l 1x83
 599 40 l 1x43
 559 80 l 1x83
559 800 m 1x0b
 599 760 l 1
 559 720 l 1x17
 399 720 l 1x0b
 359 760 l 1x07
 319 720 l 1x0b
 159 720 l 1
 119 760 l 1x17
 159 800 l 1
 559 800 l 1x0b
EndSplineSet
Validated: 5
EndChar

StartChar: copyright
Encoding: 169 169 111
Width: 718
VWidth: 0
Flags: W
HStem: 0 80<159 319 399 559> 40 21G<99 139 579 619> 40 21G<99 139 579 619> 700 20G<99 139 507 559 579 619> 720 80<159 319 399 559> 740 20G<99 139 579 619>
VStem: 79 80<80 360 440 720> 559 80<80 360 440 720>
LayerCount: 2
Fore
SplineSet
399 80 m 1x83
 451 80 507 80 559 80 c 1x83
 599 40 l 1x43
 559 0 l 1
 159 0 l 1x83
 119 40 l 1x43
 159 80 l 1
 319 80 l 1x83
 359 40 l 1x23
 399 80 l 1x83
519 720 m 1x13
 559 720 l 1
 559 640 l 1
 439 440 l 1
 399 440 l 1
 399 520 l 1
 519 720 l 1x13
519 80 m 1x83
 399 280 l 1
 399 360 l 1
 439 360 l 1
 559 160 l 1
 559 80 l 1
 519 80 l 1x83
79 440 m 1
 79 720 l 1x0b
 119 760 l 1x07
 159 720 l 1x0b
 159 440 l 1
 119 400 l 1
 79 440 l 1
79 80 m 1x83
 79 360 l 1
 119 400 l 1
 159 360 l 1
 159 80 l 1x83
 119 40 l 1x43
 79 80 l 1x83
559 440 m 1
 559 720 l 1
 599 760 l 1x17
 639 720 l 1x0b
 639 440 l 1
 599 400 l 1
 559 440 l 1
559 80 m 1x83
 559 360 l 1
 599 400 l 1
 639 360 l 1
 639 80 l 1x83
 599 40 l 1x43
 559 80 l 1x83
559 800 m 1x0b
 599 760 l 1
 559 720 l 1x17
 399 720 l 1x0b
 359 760 l 1x07
 319 720 l 1
 159 720 l 1x0b
 119 760 l 1x07
 159 800 l 1
 559 800 l 1x0b
EndSplineSet
Validated: 5
EndChar

StartChar: ordfeminine
Encoding: 170 170 112
Width: 718
VWidth: 0
Flags: W
HStem: 0 80<159 319 399 559> 700 20G<99 139 159 211 507 559 579 619> 720 80<159 319 399 559> 740 20G<99 139 579 619>
VStem: 79 80<440 640> 559 80<440 720>
LayerCount: 2
Fore
SplineSet
399 80 m 1x8c
 451 80 507 80 559 80 c 1
 599 40 l 1
 559 0 l 1
 159 0 l 1
 119 40 l 1
 159 80 l 1
 319 80 l 1
 359 40 l 1
 399 80 l 1x8c
199 720 m 1xcc
 319 520 l 1
 319 440 l 1
 279 440 l 1
 159 640 l 1
 159 720 l 1
 199 720 l 1xcc
519 720 m 1
 559 720 l 1
 559 640 l 1
 439 440 l 1
 399 440 l 1
 399 520 l 1
 519 720 l 1
79 440 m 1
 79 720 l 1xac
 119 760 l 1x9c
 159 720 l 1
 159 440 l 1
 119 400 l 1
 79 440 l 1
559 440 m 1
 559 720 l 1
 599 760 l 1xdc
 639 720 l 1
 639 440 l 1
 599 400 l 1
 559 440 l 1
559 800 m 1xac
 599 760 l 1
 559 720 l 1xdc
 399 720 l 1xac
 359 760 l 1x9c
 319 720 l 1xac
 159 720 l 1
 119 760 l 1xdc
 159 800 l 1
 559 800 l 1xac
EndSplineSet
Validated: 5
EndChar

StartChar: registered
Encoding: 174 174 113
Width: 718
VWidth: 0
Flags: W
HStem: 0 80<159 319 399 559> 40 21G<99 139 339 379 579 619> 40 21G<99 139 339 379 579 619> 360 80<399 559> 720 80<159 319 399 559> 740 20G<99 139 579 619> 740 20G<99 139 579 619>
VStem: 79 80<80 360 440 720> 319 80<80 360> 559 80<80 360 440 720>
CounterMasks: 1 01c0
LayerCount: 2
Fore
SplineSet
399 80 m 1x91c0
 451 80 507 80 559 80 c 1x91c0
 599 40 l 1x51c0
 559 0 l 1
 159 0 l 1x91c0
 119 40 l 1x51c0
 159 80 l 1
 319 80 l 1x91c0
 359 40 l 1x51c0
 399 80 l 1x91c0
319 80 m 1
 319 360 l 1
 359 400 l 1
 399 360 l 1
 399 80 l 1x91c0
 359 40 l 1x51c0
 319 80 l 1
79 440 m 1
 79 720 l 1x19c0
 119 760 l 1x15c0
 159 720 l 1x19c0
 159 440 l 1
 119 400 l 1
 79 440 l 1
79 80 m 1x91c0
 79 360 l 1
 119 400 l 1
 159 360 l 1
 159 80 l 1x91c0
 119 40 l 1x51c0
 79 80 l 1x91c0
559 440 m 1
 559 720 l 1x19c0
 599 760 l 1x15c0
 639 720 l 1x19c0
 639 440 l 1
 599 400 l 1
 559 440 l 1
559 80 m 1x91c0
 559 360 l 1
 599 400 l 1
 639 360 l 1
 639 80 l 1x91c0
 599 40 l 1x51c0
 559 80 l 1x91c0
399 440 m 1
 559 440 l 1
 599 400 l 1
 559 360 l 1
 399 360 l 1
 359 400 l 1
 399 440 l 1
559 800 m 1x19c0
 599 760 l 1x15c0
 559 720 l 1
 399 720 l 1x19c0
 359 760 l 1x13c0
 319 720 l 1
 159 720 l 1x19c0
 119 760 l 1x15c0
 159 800 l 1
 559 800 l 1x19c0
EndSplineSet
Validated: 5
EndChar

StartChar: .notdef
Encoding: 0 0 119
Width: 718
VWidth: 0
Flags: HWO
HStem: 0 80<159 319 399 559> 40 21G<99 139 339 379 579 619> 40 21G<99 139 339 379 579 619> 360 80<159 279 439 559> 700 20G<99 139 159 211 339 379 507 559 579 619> 720 80<159 319 399 559> 740 20G<99 139 339 379 579 619>
VStem: 79 80<160 360 440 640> 319 80<80 280 520 720> 559 80<80 360 440 720>
CounterMasks: 1 01c0
LayerCount: 2
Fore
SplineSet
399 80 m 5x91c0
 451 80 507 80 559 80 c 5x91c0
 599 40 l 5x51c0
 559 0 l 5
 159 0 l 5x91c0
 119 40 l 5x51c0
 159 80 l 5
 319 80 l 5x91c0
 359 40 l 5x51c0
 399 80 l 5x91c0
199 720 m 5x19c0
 319 520 l 5
 319 440 l 5
 279 440 l 5
 159 640 l 5
 159 720 l 5
 199 720 l 5x19c0
519 720 m 5
 559 720 l 5
 559 640 l 5
 439 440 l 5
 399 440 l 5
 399 520 l 5
 519 720 l 5
319 440 m 5
 319 720 l 5x15c0
 359 760 l 5x13c0
 399 720 l 5x15c0
 399 440 l 5
 359 400 l 5
 319 440 l 5
519 80 m 5x91c0
 399 280 l 5
 399 360 l 5
 439 360 l 5
 559 160 l 5
 559 80 l 5
 519 80 l 5x91c0
199 80 m 5
 159 80 l 5
 159 160 l 5
 279 360 l 5
 319 360 l 5
 319 280 l 5
 199 80 l 5
319 80 m 5
 319 360 l 5
 359 400 l 5
 399 360 l 5
 399 80 l 5x91c0
 359 40 l 5x51c0
 319 80 l 5
79 440 m 5
 79 720 l 5x15c0
 119 760 l 5
 159 720 l 5x1bc0
 159 440 l 5
 119 400 l 5
 79 440 l 5
79 80 m 5x91c0
 79 360 l 5
 119 400 l 5
 159 360 l 5
 159 80 l 5x91c0
 119 40 l 5x51c0
 79 80 l 5x91c0
559 440 m 5
 559 720 l 5
 599 760 l 5x1bc0
 639 720 l 5x15c0
 639 440 l 5
 599 400 l 5
 559 440 l 5
559 80 m 5x91c0
 559 360 l 5
 599 400 l 5
 639 360 l 5
 639 80 l 5x91c0
 599 40 l 5x51c0
 559 80 l 5x91c0
159 440 m 5
 319 440 l 5
 359 400 l 5
 319 360 l 5
 159 360 l 5
 119 400 l 5
 159 440 l 5
399 440 m 5
 559 440 l 5
 599 400 l 5
 559 360 l 5
 399 360 l 5
 359 400 l 5
 399 440 l 5
559 800 m 5x15c0
 599 760 l 5
 559 720 l 5x1bc0
 399 720 l 5x15c0
 359 760 l 5x13c0
 319 720 l 5x15c0
 159 720 l 5
 119 760 l 5x1bc0
 159 800 l 5
 559 800 l 5x15c0
EndSplineSet
EndChar

StartChar: guillemotleft
Encoding: 171 171 120
Width: 718
VWidth: 0
Flags: W
HStem: 40 21G<99 139> 40 21G<99 139> 700 20G<99 139 507 559> 740 20G<99 139>
VStem: 79 80<80 360 440 720>
LayerCount: 2
Fore
SplineSet
519 720 m 1x38
 559 720 l 1
 559 640 l 1
 439 440 l 1
 399 440 l 1
 399 520 l 1
 519 720 l 1x38
519 80 m 1
 399 280 l 1
 399 360 l 1
 439 360 l 1
 559 160 l 1
 559 80 l 1
 519 80 l 1
79 440 m 1
 79 720 l 1
 119 760 l 1
 159 720 l 1
 159 440 l 1
 119 400 l 1
 79 440 l 1
79 80 m 1
 79 360 l 1
 119 400 l 1
 159 360 l 1
 159 80 l 1
 119 40 l 1xb8
 79 80 l 1
EndSplineSet
Validated: 5
EndChar

StartChar: guillemotright
Encoding: 187 187 121
Width: 718
VWidth: 0
Flags: W
HStem: 40 21G<579 619> 40 21G<579 619> 700 20G<159 211 579 619> 740 20G<579 619>
VStem: 559 80<80 360 440 720>
LayerCount: 2
Fore
SplineSet
199 720 m 1x38
 319 520 l 1
 319 440 l 1
 279 440 l 1
 159 640 l 1
 159 720 l 1
 199 720 l 1x38
199 80 m 1
 159 80 l 1
 159 160 l 1
 279 360 l 1
 319 360 l 1
 319 280 l 1
 199 80 l 1
559 440 m 1
 559 720 l 1
 599 760 l 1
 639 720 l 1
 639 440 l 1
 599 400 l 1
 559 440 l 1
559 80 m 1
 559 360 l 1
 599 400 l 1
 639 360 l 1
 639 80 l 1
 599 40 l 1xb8
 559 80 l 1
EndSplineSet
Validated: 5
EndChar

StartChar: germandbls
Encoding: 223 223 122
Width: 718
VWidth: 0
Flags: W
HStem: 0 80<159 319 399 559> 40 21G<99 139 579 619> 40 21G<99 139 579 619> 360 80<399 559> 720 80<159 319 399 559> 740 20G<99 139 579 619> 740 20G<99 139 579 619>
VStem: 79 80<80 360 440 720> 559 80<80 360 440 720>
LayerCount: 2
Fore
SplineSet
399 80 m 1x9180
 451 80 507 80 559 80 c 1x9180
 599 40 l 1x5180
 559 0 l 1
 159 0 l 1x9180
 119 40 l 1x5180
 159 80 l 1
 319 80 l 1x9180
 359 40 l 1x3180
 399 80 l 1x9180
79 440 m 1
 79 720 l 1x1980
 119 760 l 1x1580
 159 720 l 1x1980
 159 440 l 1
 119 400 l 1
 79 440 l 1
79 80 m 1x9180
 79 360 l 1
 119 400 l 1
 159 360 l 1
 159 80 l 1x9180
 119 40 l 1x5180
 79 80 l 1x9180
559 440 m 1
 559 720 l 1x1980
 599 760 l 1x1580
 639 720 l 1x1980
 639 440 l 1
 599 400 l 1
 559 440 l 1
559 80 m 1x9180
 559 360 l 1
 599 400 l 1
 639 360 l 1
 639 80 l 1x9180
 599 40 l 1x5180
 559 80 l 1x9180
399 440 m 1
 559 440 l 1
 599 400 l 1
 559 360 l 1
 399 360 l 1
 359 400 l 1
 399 440 l 1
559 800 m 1x1980
 599 760 l 1x1580
 559 720 l 1
 399 720 l 1x1980
 359 760 l 1x1380
 319 720 l 1
 159 720 l 1x1980
 119 760 l 1x1580
 159 800 l 1
 559 800 l 1x1980
EndSplineSet
Validated: 5
EndChar

StartChar: AE
Encoding: 198 198 123
Width: 718
VWidth: 0
Flags: W
HStem: 40 21G<99 139> 40 21G<99 139> 360 80<159 319 399 559> 720 80<159 319 399 559> 740 20G<99 139 339 379> 740 20G<99 139 339 379>
VStem: 79 80<80 360 440 720> 319 80<440 720>
LayerCount: 2
Fore
SplineSet
319 440 m 1x33
 319 720 l 1x33
 359 760 l 1x2b
 399 720 l 1
 399 440 l 1
 359 400 l 1
 319 440 l 1x33
519 80 m 1
 399 280 l 1
 399 360 l 1
 439 360 l 1
 559 160 l 1
 559 80 l 1
 519 80 l 1
79 440 m 1
 79 720 l 1x33
 119 760 l 1x2b
 159 720 l 1
 159 440 l 1
 119 400 l 1
 79 440 l 1
79 80 m 1
 79 360 l 1
 119 400 l 1
 159 360 l 1
 159 80 l 1
 119 40 l 1xa3
 79 80 l 1
159 440 m 1
 319 440 l 1
 359 400 l 1
 319 360 l 1
 159 360 l 1
 119 400 l 1
 159 440 l 1
399 440 m 1
 559 440 l 1
 599 400 l 1
 559 360 l 1
 399 360 l 1
 359 400 l 1
 399 440 l 1
559 800 m 1x33
 599 760 l 1x27
 559 720 l 1
 399 720 l 1x33
 359 760 l 1x2b
 319 720 l 1
 159 720 l 1x33
 119 760 l 1x2b
 159 800 l 1
 559 800 l 1x33
EndSplineSet
Validated: 5
EndChar

StartChar: Oslash
Encoding: 216 216 124
Width: 718
VWidth: 0
Flags: W
HStem: 0 80<159 319 399 559> 40 21G<99 139 579 619> 40 21G<99 139 579 619> 360 80<399 559> 700 20G<99 139 507 559 579 619> 720 80<159 319 399 559> 740 20G<99 139 579 619>
VStem: 79 80<160 360 440 720> 559 80<80 360 440 720>
LayerCount: 2
Fore
SplineSet
399 440 m 5x1180
 559 440 l 5
 599 400 l 5
 559 360 l 5
 399 360 l 5
 359 400 l 5
 399 440 l 5x1180
399 80 m 1x9180
 451 80 507 80 559 80 c 1x9180
 599 40 l 1x5180
 559 0 l 1
 159 0 l 1x9180
 119 40 l 1x5180
 159 80 l 1
 319 80 l 1x9180
 359 40 l 1x3180
 399 80 l 1x9180
519 720 m 1x1980
 559 720 l 1
 559 640 l 1
 439 440 l 1
 399 440 l 1
 399 520 l 1
 519 720 l 1x1980
199 80 m 1x9180
 159 80 l 1
 159 160 l 1
 279 360 l 1
 319 360 l 1
 319 280 l 1
 199 80 l 1x9180
79 440 m 1
 79 720 l 1x1580
 119 760 l 1x1380
 159 720 l 1x1580
 159 440 l 1
 119 400 l 1
 79 440 l 1
79 80 m 1x9180
 79 360 l 1
 119 400 l 1
 159 360 l 1
 159 80 l 1x9180
 119 40 l 1x5180
 79 80 l 1x9180
559 440 m 1
 559 720 l 1
 599 760 l 1x1b80
 639 720 l 1x1580
 639 440 l 1
 599 400 l 1
 559 440 l 1
559 80 m 1x9180
 559 360 l 1
 599 400 l 1
 639 360 l 1
 639 80 l 1x9180
 599 40 l 1x5180
 559 80 l 1x9180
559 800 m 1x1580
 599 760 l 1
 559 720 l 1x1b80
 399 720 l 1x1580
 359 760 l 1x1380
 319 720 l 1
 159 720 l 1x1580
 119 760 l 1x1380
 159 800 l 1
 559 800 l 1x1580
EndSplineSet
Validated: 5
EndChar

StartChar: dieresis
Encoding: 168 168 126
Width: 718
VWidth: 0
Flags: W
HStem: 822 100<87.4375 170.562 547.438 630.562>
VStem: 79 100<830.438 913.562> 539 100<830.438 913.562>
LayerCount: 2
Fore
SplineSet
539 872 m 0
 539 900 561 922 589 922 c 0
 617 922 639 900 639 872 c 0
 639 844 617 822 589 822 c 0
 561 822 539 844 539 872 c 0
79 872 m 0
 79 900 101 922 129 922 c 0
 157 922 179 900 179 872 c 0
 179 844 157 822 129 822 c 0
 101 822 79 844 79 872 c 0
EndSplineSet
Validated: 1
EndChar

StartChar: uni009E
Encoding: 158 158 163
Width: 718
VWidth: 0
Flags: W
HStem: 822 100<87.4375 170.562 547.438 630.562>
VStem: 79 100<830.438 913.562> 539 100<830.438 913.562>
LayerCount: 2
Fore
SplineSet
539 872 m 0
 539 900 561 922 589 922 c 0
 617 922 639 900 639 872 c 0
 639 844 617 822 589 822 c 0
 561 822 539 844 539 872 c 0
79 872 m 0
 79 900 101 922 129 922 c 0
 157 922 179 900 179 872 c 0
 179 844 157 822 129 822 c 0
 101 822 79 844 79 872 c 0
519 816 m 25
 519 890 l 25
 359 994 l 25
 359 920 l 25
 519 816 l 25
359 994 m 25
 359 920 l 25
 199 816 l 25
 199 890 l 25
 359 994 l 25
599 1140 m 25
 599 1066 l 1049
599 1140 m 25
 599 1066 l 25
 439 962 l 25
 439 1036 l 25
 599 1140 l 25
439 962 m 25
 439 1036 l 25
 279 1140 l 25
 279 1066 l 25
 439 962 l 25
279 1140 m 25
 279 1066 l 25
 119 962 l 25
 119 1036 l 25
 279 1140 l 25
EndSplineSet
Validated: 11
EndChar

StartChar: section
Encoding: 167 167 165
Width: 718
VWidth: 0
Flags: W
HStem: 0 80<159 319 399 559> 40 21G<579 619> 40 21G<579 619> 360 80<159 279 439 559> 700 20G<99 139 159 211 507 559> 720 80<159 319 399 559> 740 20G<99 139>
VStem: 79 80<440 640> 559 80<80 360>
LayerCount: 2
Fore
SplineSet
399 80 m 1x9180
 451 80 507 80 559 80 c 1x9180
 599 40 l 1x5180
 559 0 l 1
 159 0 l 1x9180
 119 40 l 1x3180
 159 80 l 1
 319 80 l 1x9180
 359 40 l 1x3180
 399 80 l 1x9180
199 720 m 1x1980
 319 520 l 1
 319 440 l 1
 279 440 l 1
 159 640 l 1
 159 720 l 1
 199 720 l 1x1980
519 720 m 1
 559 720 l 1
 559 640 l 1
 439 440 l 1
 399 440 l 1
 399 520 l 1
 519 720 l 1
519 80 m 1x9180
 399 280 l 1
 399 360 l 1
 439 360 l 1
 559 160 l 1
 559 80 l 1
 519 80 l 1x9180
199 80 m 1
 159 80 l 1
 159 160 l 1
 279 360 l 1
 319 360 l 1
 319 280 l 1
 199 80 l 1
79 440 m 1
 79 720 l 1x1580
 119 760 l 1
 159 720 l 1x1b80
 159 440 l 1
 119 400 l 1
 79 440 l 1
559 80 m 1x9180
 559 360 l 1
 599 400 l 1
 639 360 l 1
 639 80 l 1x9180
 599 40 l 1x5180
 559 80 l 1x9180
159 440 m 1
 319 440 l 1
 359 400 l 1
 319 360 l 1
 159 360 l 1
 119 400 l 1
 159 440 l 1
399 440 m 1
 559 440 l 1
 599 400 l 1
 559 360 l 1
 399 360 l 1
 359 400 l 1
 399 440 l 1
559 800 m 1x1580
 599 760 l 1
 559 720 l 1x1b80
 399 720 l 1x1580
 359 760 l 1x1380
 319 720 l 1x1580
 159 720 l 1
 119 760 l 1x1b80
 159 800 l 1
 559 800 l 1x1580
EndSplineSet
Validated: 5
EndChar

StartChar: macron
Encoding: 175 175 167
Width: 718
VWidth: 0
Flags: W
HStem: 720 80<159 319 399 559>
LayerCount: 2
Fore
SplineSet
559 800 m 1
 599 760 l 1
 559 720 l 1
 399 720 l 1
 359 760 l 1
 319 720 l 1
 159 720 l 1
 119 760 l 1
 159 800 l 1
 559 800 l 1
EndSplineSet
Validated: 1
EndChar

StartChar: acute
Encoding: 180 180 168
Width: 718
VWidth: 0
Flags: W
HStem: 816 178
VStem: 199 160
LayerCount: 2
Fore
SplineSet
359 994 m 25
 359 920 l 25
 199 816 l 25
 199 890 l 25
 359 994 l 25
EndSplineSet
Validated: 1
EndChar

StartChar: mu
Encoding: 181 181 169
Width: 718
VWidth: 0
Flags: W
HStem: 40 21G<99 139> 40 21G<99 139> 360 80<159 319 399 559> 740 20G<99 139 339 379> 740 20G<99 139 339 379>
VStem: 79 80<80 360 440 720> 319 80<440 720>
LayerCount: 2
Fore
SplineSet
319 440 m 1x36
 319 720 l 1
 359 760 l 1
 399 720 l 1
 399 440 l 1
 359 400 l 1
 319 440 l 1x36
79 440 m 1
 79 720 l 1
 119 760 l 1
 159 720 l 1
 159 440 l 1
 119 400 l 1
 79 440 l 1
79 80 m 1
 79 360 l 1
 119 400 l 1
 159 360 l 1
 159 80 l 1
 119 40 l 1xa6
 79 80 l 1
159 440 m 1
 319 440 l 1
 359 400 l 1
 319 360 l 1
 159 360 l 1
 119 400 l 1
 159 440 l 1
399 440 m 1
 559 440 l 1
 599 400 l 1
 559 360 l 1
 399 360 l 1
 359 400 l 1
 399 440 l 1
EndSplineSet
Validated: 5
EndChar

StartChar: cedilla
Encoding: 184 184 171
Width: 718
VWidth: 0
Flags: W
HStem: -170 158
VStem: 315 77<-59 -12>
LayerCount: 2
Fore
SplineSet
315 -12 m 29
 392 -12 l 25
 392 -60 l 25
 282 -170 l 25
 243 -131 l 25
 315 -59 l 25
 315 -12 l 29
EndSplineSet
Validated: 1
EndChar

StartChar: Eth
Encoding: 208 208 184
Width: 718
VWidth: 0
Flags: W
HStem: 0 80<159 319 399 559> 40 21G<339 379 579 619> 40 21G<339 379 579 619> 360 80<159 319> 720 80<159 319 399 559> 740 20G<339 379 579 619> 740 20G<339 379 579 619>
VStem: 319 80<80 360 440 720> 559 80<80 360 440 720>
LayerCount: 2
Fore
SplineSet
399 80 m 1x9180
 451 80 507 80 559 80 c 1x9180
 599 40 l 1x5180
 559 0 l 1
 159 0 l 1x9180
 119 40 l 1x3180
 159 80 l 1
 319 80 l 1x9180
 359 40 l 1x5180
 399 80 l 1x9180
319 440 m 1
 319 720 l 1x1980
 359 760 l 1x1580
 399 720 l 1x1980
 399 440 l 1
 359 400 l 1
 319 440 l 1
319 80 m 1x9180
 319 360 l 1
 359 400 l 1
 399 360 l 1
 399 80 l 1x9180
 359 40 l 1x5180
 319 80 l 1x9180
559 440 m 1
 559 720 l 1x1980
 599 760 l 1x1580
 639 720 l 1x1980
 639 440 l 1
 599 400 l 1
 559 440 l 1
559 80 m 1x9180
 559 360 l 1
 599 400 l 1
 639 360 l 1
 639 80 l 1x9180
 599 40 l 1x5180
 559 80 l 1x9180
159 440 m 1
 319 440 l 1
 359 400 l 1
 319 360 l 1
 159 360 l 1
 119 400 l 1
 159 440 l 1
559 800 m 1x1980
 599 760 l 1x1580
 559 720 l 1
 399 720 l 1x1980
 359 760 l 1x1580
 319 720 l 1
 159 720 l 1x1980
 119 760 l 1x1380
 159 800 l 1
 559 800 l 1x1980
EndSplineSet
Validated: 5
EndChar

StartChar: Ntilde
Encoding: 209 209 185
Width: 718
VWidth: 0
Flags: W
HStem: 40 21G<99 139 579 619> 40 21G<99 139 579 619> 360 80<159 319 399 559> 720 80<159 319 399 559>
VStem: 79 80<80 360> 559 80<80 360>
LayerCount: 2
Fore
SplineSet
79 80 m 1xbc
 79 360 l 1
 119 400 l 1
 159 360 l 1
 159 80 l 1
 119 40 l 1
 79 80 l 1xbc
559 80 m 1
 559 360 l 1
 599 400 l 1
 639 360 l 1
 639 80 l 1
 599 40 l 1
 559 80 l 1
159 440 m 1
 319 440 l 1
 359 400 l 1
 319 360 l 1
 159 360 l 1
 119 400 l 1
 159 440 l 1
399 440 m 1
 559 440 l 1
 599 400 l 1
 559 360 l 1
 399 360 l 1
 359 400 l 1
 399 440 l 1
559 800 m 1
 599 760 l 1
 559 720 l 1
 399 720 l 1
 359 760 l 1
 319 720 l 1
 159 720 l 1
 119 760 l 1
 159 800 l 1
 559 800 l 1
EndSplineSet
Validated: 5
EndChar

StartChar: Thorn
Encoding: 222 222 193
Width: 718
VWidth: 0
Flags: W
HStem: 40 21G<99 139> 40 21G<99 139> 700 20G<99 139 507 559> 720 80<159 319 399 559> 740 20G<99 139>
VStem: 79 80<160 360 440 720>
LayerCount: 2
Fore
SplineSet
519 720 m 1x24
 559 720 l 1
 559 640 l 1
 439 440 l 1
 399 440 l 1
 399 520 l 1
 519 720 l 1x24
199 80 m 1
 159 80 l 1
 159 160 l 1
 279 360 l 1
 319 360 l 1
 319 280 l 1
 199 80 l 1
79 440 m 1
 79 720 l 1x14
 119 760 l 1x0c
 159 720 l 1x14
 159 440 l 1
 119 400 l 1
 79 440 l 1
79 80 m 1
 79 360 l 1
 119 400 l 1
 159 360 l 1
 159 80 l 1
 119 40 l 1x84
 79 80 l 1
559 800 m 1x14
 599 760 l 1
 559 720 l 1x2c
 399 720 l 1x14
 359 760 l 1x0c
 319 720 l 1
 159 720 l 1x14
 119 760 l 1x0c
 159 800 l 1
 559 800 l 1x14
EndSplineSet
Validated: 5
EndChar

StartChar: ring
Encoding: 730 730 225
Width: 718
VWidth: 0
Flags: W
HStem: 822 100<547.438 630.562>
VStem: 539 100<830.438 913.562>
LayerCount: 2
Fore
SplineSet
539 872 m 0
 539 900 561 922 589 922 c 0
 617 922 639 900 639 872 c 0
 639 844 617 822 589 822 c 4
 561 822 539 844 539 872 c 0
EndSplineSet
Validated: 1
EndChar

StartChar: circumflex
Encoding: 710 710 226
Width: 718
VWidth: 0
Flags: W
HStem: 816 178
VStem: 199 320
LayerCount: 2
Fore
SplineSet
519 816 m 25
 519 890 l 25
 359 994 l 25
 359 920 l 25
 519 816 l 25
359 994 m 25
 359 920 l 25
 199 816 l 25
 199 890 l 25
 359 994 l 25
EndSplineSet
Validated: 5
EndChar

StartChar: tilde.alt
Encoding: 65536 -1 227
Width: 718
VWidth: 0
Flags: W
HStem: 962 178
LayerCount: 2
Fore
SplineSet
599 1140 m 25
 599 1066 l 1049
599 1140 m 25
 599 1066 l 25
 439 962 l 25
 439 1036 l 25
 599 1140 l 25
439 962 m 25
 439 1036 l 25
 279 1140 l 25
 279 1066 l 25
 439 962 l 25
279 1140 m 25
 279 1066 l 25
 119 962 l 25
 119 1036 l 25
 279 1140 l 25
EndSplineSet
Validated: 11
EndChar

StartChar: grave.alt
Encoding: 65537 -1 228
Width: 718
VWidth: 0
Flags: W
VStem: 359 160
LayerCount: 2
Fore
SplineSet
519 816 m 25
 519 890 l 25
 359 994 l 25
 359 920 l 25
 519 816 l 25
EndSplineSet
Validated: 9
EndChar

StartChar: arrowleft
Encoding: 8592 8592 229
Width: 718
VWidth: 0
Flags: W
HStem: 360 80<439 559> 700 20G<507 559>
VStem: 359 240
LayerCount: 2
Fore
SplineSet
519 720 m 1
 559 720 l 1
 559 640 l 1
 439 440 l 1
 399 440 l 1
 399 520 l 1
 519 720 l 1
519 80 m 1
 399 280 l 1
 399 360 l 1
 439 360 l 1
 559 160 l 1
 559 80 l 1
 519 80 l 1
399 440 m 1
 559 440 l 1
 599 400 l 1
 559 360 l 1
 399 360 l 1
 359 400 l 1
 399 440 l 1
EndSplineSet
Validated: 5
EndChar

StartChar: arrowright
Encoding: 8594 8594 230
Width: 718
VWidth: 0
Flags: W
HStem: 360 80<159 279> 700 20G<159 211>
VStem: 119 240
LayerCount: 2
Fore
SplineSet
199 720 m 1
 319 520 l 1
 319 440 l 1
 279 440 l 1
 159 640 l 1
 159 720 l 1
 199 720 l 1
199 80 m 1
 159 80 l 1
 159 160 l 1
 279 360 l 1
 319 360 l 1
 319 280 l 1
 199 80 l 1
159 440 m 1
 319 440 l 1
 359 400 l 1
 319 360 l 1
 159 360 l 1
 119 400 l 1
 159 440 l 1
EndSplineSet
Validated: 5
EndChar

StartChar: arrowup
Encoding: 8593 8593 231
Width: 718
VWidth: 0
Flags: W
HStem: 40 21G<339 379> 40 21G<339 379>
VStem: 319 80<80 280>
LayerCount: 2
Fore
SplineSet
519 80 m 1x20
 399 280 l 1
 399 360 l 1
 439 360 l 1
 559 160 l 1
 559 80 l 1
 519 80 l 1x20
199 80 m 1
 159 80 l 1
 159 160 l 1
 279 360 l 1
 319 360 l 1
 319 280 l 1
 199 80 l 1
319 80 m 1
 319 360 l 1
 359 400 l 1
 399 360 l 1
 399 80 l 1
 359 40 l 1xa0
 319 80 l 1
EndSplineSet
Validated: 5
EndChar

StartChar: arrowdown
Encoding: 8595 8595 232
Width: 718
VWidth: 0
Flags: W
HStem: 700 20G<159 211 339 379 507 559> 740 20G<339 379>
VStem: 319 80<520 720>
LayerCount: 2
Fore
SplineSet
199 720 m 5
 319 520 l 5
 319 440 l 5
 279 440 l 5
 159 640 l 5
 159 720 l 5
 199 720 l 5
519 720 m 5
 559 720 l 5
 559 640 l 5
 439 440 l 5
 399 440 l 5
 399 520 l 5
 519 720 l 5
319 440 m 5
 319 720 l 5
 359 760 l 5
 399 720 l 5
 399 440 l 5
 359 400 l 5
 319 440 l 5
EndSplineSet
Validated: 5
EndChar

StartChar: quotesinglbase
Encoding: 8218 8218 241
Width: 718
VWidth: 0
Flags: W
HStem: 40 21G<99 139> 40 21G<99 139>
VStem: 79 80<80 360>
LayerCount: 2
Fore
SplineSet
79 80 m 1xa0
 79 360 l 1
 119 400 l 1
 159 360 l 1
 159 80 l 1
 119 40 l 1
 79 80 l 1xa0
EndSplineSet
Validated: 1
EndChar

StartChar: quotedblbase
Encoding: 8222 8222 242
Width: 718
VWidth: 0
Flags: W
HStem: 40 21G<99 139 339 379> 40 21G<99 139 339 379>
VStem: 79 80<80 360> 319 80<80 360>
LayerCount: 2
Fore
SplineSet
319 80 m 1xb0
 319 360 l 1
 359 400 l 1
 399 360 l 1
 399 80 l 1
 359 40 l 1
 319 80 l 1xb0
79 80 m 1
 79 360 l 1
 119 400 l 1
 159 360 l 1
 159 80 l 1
 119 40 l 1
 79 80 l 1
EndSplineSet
Validated: 1
EndChar

StartChar: uni05D0
Encoding: 1488 1488 251
Width: 718
VWidth: 0
Flags: W
HStem: 40 21G<99 139> 40 21G<99 139> 360 80<159 279 399 559> 700 20G<159 211 579 619> 740 20G<579 619>
VStem: 79 80<80 360> 559 80<440 720>
LayerCount: 2
Fore
SplineSet
199 720 m 1x3e
 319 520 l 1
 319 440 l 1
 279 440 l 1
 159 640 l 1
 159 720 l 1
 199 720 l 1x3e
519 80 m 1
 399 280 l 1
 399 360 l 1
 439 360 l 1
 559 160 l 1
 559 80 l 1
 519 80 l 1
79 80 m 1
 79 360 l 1
 119 400 l 1
 159 360 l 1
 159 80 l 1
 119 40 l 1xbe
 79 80 l 1
559 440 m 1
 559 720 l 1
 599 760 l 1
 639 720 l 1
 639 440 l 1
 599 400 l 1
 559 440 l 1
159 440 m 1
 319 440 l 1
 359 400 l 1
 319 360 l 1
 159 360 l 1
 119 400 l 1
 159 440 l 1
399 440 m 1
 559 440 l 1
 599 400 l 1
 559 360 l 1
 399 360 l 1
 359 400 l 1
 399 440 l 1
EndSplineSet
Validated: 5
EndChar

StartChar: uni05D1
Encoding: 1489 1489 252
Width: 718
VWidth: 0
Flags: W
HStem: 0 80<159 319 399 559> 40 21G<339 379> 40 21G<339 379> 700 20G<507 559> 720 80<159 319 399 559>
VStem: 319 80<80 360>
LayerCount: 2
Fore
SplineSet
399 80 m 1x84
 451 80 507 80 559 80 c 1x84
 599 40 l 1x24
 559 0 l 1
 159 0 l 1x84
 119 40 l 1x24
 159 80 l 1
 319 80 l 1x84
 359 40 l 1x44
 399 80 l 1x84
519 720 m 1x14
 559 720 l 1
 559 640 l 1
 439 440 l 1
 399 440 l 1
 399 520 l 1
 519 720 l 1x14
319 80 m 1x84
 319 360 l 1
 359 400 l 1
 399 360 l 1
 399 80 l 1x84
 359 40 l 1x44
 319 80 l 1x84
559 800 m 1x0c
 599 760 l 1
 559 720 l 1x14
 399 720 l 1
 359 760 l 1
 319 720 l 1
 159 720 l 1
 119 760 l 1
 159 800 l 1
 559 800 l 1x0c
EndSplineSet
Validated: 5
EndChar

StartChar: uni05D2
Encoding: 1490 1490 253
Width: 718
VWidth: 0
Flags: W
HStem: 700 20G<507 559> 720 80<159 319 399 559>
LayerCount: 2
Fore
SplineSet
519 720 m 1x80
 559 720 l 1
 559 640 l 1
 439 440 l 1
 399 440 l 1
 399 520 l 1
 519 720 l 1x80
519 80 m 1
 399 280 l 1
 399 360 l 1
 439 360 l 1
 559 160 l 1
 559 80 l 1
 519 80 l 1
199 80 m 1
 159 80 l 1
 159 160 l 1
 279 360 l 1
 319 360 l 1
 319 280 l 1
 199 80 l 1
559 800 m 1x40
 599 760 l 1
 559 720 l 1x80
 399 720 l 1
 359 760 l 1
 319 720 l 1
 159 720 l 1
 119 760 l 1
 159 800 l 1
 559 800 l 1x40
EndSplineSet
Validated: 5
EndChar

StartChar: uni05D3
Encoding: 1491 1491 254
Width: 718
VWidth: 0
Flags: W
HStem: 40 21G<339 379> 40 21G<339 379> 720 80<159 319 399 559> 740 20G<339 379> 740 20G<339 379>
VStem: 319 80<80 360 440 720>
LayerCount: 2
Fore
SplineSet
319 440 m 1x24
 319 720 l 1x24
 359 760 l 1x14
 399 720 l 1
 399 440 l 1
 359 400 l 1
 319 440 l 1x24
319 80 m 1
 319 360 l 1
 359 400 l 1
 399 360 l 1
 399 80 l 1
 359 40 l 1x84
 319 80 l 1
559 800 m 1x24
 599 760 l 1x0c
 559 720 l 1
 399 720 l 1x24
 359 760 l 1x14
 319 720 l 1
 159 720 l 1x24
 119 760 l 1x0c
 159 800 l 1
 559 800 l 1x24
EndSplineSet
Validated: 5
EndChar

StartChar: uni05D4
Encoding: 1492 1492 255
Width: 718
VWidth: 0
Flags: W
HStem: 40 21G<99 139 579 619> 40 21G<99 139 579 619> 720 80<159 319 399 559> 740 20G<579 619> 740 20G<579 619>
VStem: 79 80<80 360> 559 80<80 360 440 720>
LayerCount: 2
Fore
SplineSet
79 80 m 1x86
 79 360 l 1
 119 400 l 1
 159 360 l 1
 159 80 l 1
 119 40 l 1
 79 80 l 1x86
559 440 m 1
 559 720 l 1x26
 599 760 l 1x16
 639 720 l 1x26
 639 440 l 1
 599 400 l 1
 559 440 l 1
559 80 m 1
 559 360 l 1
 599 400 l 1
 639 360 l 1
 639 80 l 1
 599 40 l 1x86
 559 80 l 1
559 800 m 1x26
 599 760 l 1x16
 559 720 l 1
 399 720 l 1x26
 359 760 l 1x0e
 319 720 l 1
 159 720 l 1x26
 119 760 l 1x0e
 159 800 l 1
 559 800 l 1x26
EndSplineSet
Validated: 5
EndChar

StartChar: uni05D5
Encoding: 1493 1493 256
Width: 718
VWidth: 0
Flags: W
HStem: 40 21G<339 379> 40 21G<339 379> 740 20G<339 379> 740 20G<339 379>
VStem: 319 80<80 360 440 720>
LayerCount: 2
Fore
SplineSet
319 440 m 1x28
 319 720 l 1
 359 760 l 1
 399 720 l 1
 399 440 l 1
 359 400 l 1
 319 440 l 1x28
319 80 m 5
 319 360 l 5
 359 400 l 5
 399 360 l 5
 399 80 l 5
 359 40 l 5x88
 319 80 l 5
EndSplineSet
Validated: 5
EndChar

StartChar: uni05D6
Encoding: 1494 1494 257
Width: 718
VWidth: 0
Flags: W
HStem: 40 21G<339 379> 40 21G<339 379> 700 20G<507 559> 720 80<159 319 399 559>
VStem: 319 80<80 360>
LayerCount: 2
Fore
SplineSet
519 720 m 1x28
 559 720 l 1
 559 640 l 1
 439 440 l 1
 399 440 l 1
 399 520 l 1
 519 720 l 1x28
319 80 m 1
 319 360 l 1
 359 400 l 1
 399 360 l 1
 399 80 l 1
 359 40 l 1x88
 319 80 l 1
559 800 m 1x18
 599 760 l 1
 559 720 l 1x28
 399 720 l 1
 359 760 l 1
 319 720 l 1
 159 720 l 1
 119 760 l 1
 159 800 l 1
 559 800 l 1x18
EndSplineSet
Validated: 5
EndChar

StartChar: uni05D7
Encoding: 1495 1495 258
Width: 718
VWidth: 0
Flags: W
HStem: 40 21G<99 139 579 619> 40 21G<99 139 579 619> 720 80<159 319 399 559> 740 20G<99 139 579 619> 740 20G<99 139 579 619>
VStem: 79 80<80 360 440 720> 559 80<80 360 440 720>
LayerCount: 2
Fore
SplineSet
79 440 m 1x26
 79 720 l 1x26
 119 760 l 1x16
 159 720 l 1
 159 440 l 1
 119 400 l 1
 79 440 l 1x26
79 80 m 1
 79 360 l 1
 119 400 l 1
 159 360 l 1
 159 80 l 1
 119 40 l 1x86
 79 80 l 1
559 440 m 1
 559 720 l 1x26
 599 760 l 1x16
 639 720 l 1x26
 639 440 l 1
 599 400 l 1
 559 440 l 1
559 80 m 1
 559 360 l 1
 599 400 l 1
 639 360 l 1
 639 80 l 1
 599 40 l 1x86
 559 80 l 1
559 800 m 1x26
 599 760 l 1x16
 559 720 l 1
 399 720 l 1x26
 359 760 l 1x0e
 319 720 l 1
 159 720 l 1x26
 119 760 l 1x16
 159 800 l 1
 559 800 l 1x26
EndSplineSet
Validated: 5
EndChar

StartChar: uni05D8
Encoding: 1496 1496 259
Width: 718
VWidth: 0
Flags: W
HStem: 0 80<159 319 399 559> 40 21G<99 139 579 619> 40 21G<99 139 579 619> 700 20G<99 139 507 559 579 619> 740 20G<99 139 579 619>
VStem: 79 80<80 360 440 720> 559 80<80 360 440 720>
LayerCount: 2
Fore
SplineSet
399 80 m 1x9e
 451 80 507 80 559 80 c 1x9e
 599 40 l 1x5e
 559 0 l 1
 159 0 l 1x9e
 119 40 l 1x5e
 159 80 l 1
 319 80 l 1x9e
 359 40 l 1x3e
 399 80 l 1x9e
519 720 m 1
 559 720 l 1
 559 640 l 1
 439 440 l 1
 399 440 l 1
 399 520 l 1
 519 720 l 1
79 440 m 1
 79 720 l 1
 119 760 l 1
 159 720 l 1
 159 440 l 1
 119 400 l 1
 79 440 l 1
79 80 m 1
 79 360 l 1
 119 400 l 1
 159 360 l 1
 159 80 l 1x9e
 119 40 l 1x5e
 79 80 l 1
559 440 m 1
 559 720 l 1
 599 760 l 1
 639 720 l 1
 639 440 l 1
 599 400 l 1
 559 440 l 1
559 80 m 1
 559 360 l 1
 599 400 l 1
 639 360 l 1
 639 80 l 1x9e
 599 40 l 1x5e
 559 80 l 1
EndSplineSet
Validated: 5
EndChar

StartChar: uni05D9
Encoding: 1497 1497 260
Width: 718
VWidth: 0
Flags: W
HStem: 740 20G<339 379> 740 20G<339 379>
VStem: 319 80<440 720>
LayerCount: 2
Fore
SplineSet
319 440 m 1xa0
 319 720 l 1
 359 760 l 1
 399 720 l 1
 399 440 l 1
 359 400 l 1
 319 440 l 1xa0
EndSplineSet
Validated: 1
EndChar

StartChar: uni05DA
Encoding: 1498 1498 261
Width: 718
VWidth: 0
Flags: W
HStem: 0 80<159 319 399 559> 40 21G<579 619> 40 21G<579 619> 720 80<159 319 399 559> 740 20G<579 619> 740 20G<579 619>
VStem: 559 80<80 360 440 720>
LayerCount: 2
Fore
SplineSet
399 80 m 1x82
 451 80 507 80 559 80 c 1x82
 599 40 l 1x42
 559 0 l 1
 159 0 l 1x82
 119 40 l 1x22
 159 80 l 1
 319 80 l 1x82
 359 40 l 1x22
 399 80 l 1x82
559 440 m 1
 559 720 l 1x12
 599 760 l 1x0a
 639 720 l 1x12
 639 440 l 1
 599 400 l 1
 559 440 l 1
559 80 m 1x82
 559 360 l 1
 599 400 l 1
 639 360 l 1
 639 80 l 1x82
 599 40 l 1x42
 559 80 l 1x82
559 800 m 1x12
 599 760 l 1x0a
 559 720 l 1
 399 720 l 1x12
 359 760 l 1x06
 319 720 l 1
 159 720 l 1x12
 119 760 l 1x06
 159 800 l 1
 559 800 l 1x12
EndSplineSet
Validated: 5
EndChar

StartChar: uni05DB
Encoding: 1499 1499 262
Width: 718
VWidth: 0
Flags: W
HStem: 0 80<159 319 399 559> 40 21G<579 619> 40 21G<579 619> 720 80<159 319 399 559> 740 20G<579 619> 740 20G<579 619>
VStem: 559 80<80 360 440 720>
LayerCount: 2
Fore
SplineSet
399 80 m 1x82
 451 80 507 80 559 80 c 1x82
 599 40 l 1x42
 559 0 l 1
 159 0 l 1x82
 119 40 l 1x22
 159 80 l 1
 319 80 l 1x82
 359 40 l 1x22
 399 80 l 1x82
559 440 m 1
 559 720 l 1x12
 599 760 l 1x0a
 639 720 l 1x12
 639 440 l 1
 599 400 l 1
 559 440 l 1
559 80 m 1x82
 559 360 l 1
 599 400 l 1
 639 360 l 1
 639 80 l 1x82
 599 40 l 1x42
 559 80 l 1x82
559 800 m 1x12
 599 760 l 1x0a
 559 720 l 1
 399 720 l 1x12
 359 760 l 1x06
 319 720 l 1
 159 720 l 1x12
 119 760 l 1x06
 159 800 l 1
 559 800 l 1x12
EndSplineSet
Validated: 5
EndChar

StartChar: uni05DC
Encoding: 1500 1500 263
Width: 718
VWidth: 0
Flags: W
HStem: 700 20G<99 139 507 559> 720 80<159 319 399 559> 740 20G<99 139>
VStem: 79 80<440 720>
LayerCount: 2
Fore
SplineSet
519 720 m 1x90
 559 720 l 1
 559 640 l 1
 439 440 l 1
 399 440 l 1
 399 520 l 1
 519 720 l 1x90
199 80 m 1
 159 80 l 1
 159 160 l 1
 279 360 l 1
 319 360 l 1
 319 280 l 1
 199 80 l 1
79 440 m 1
 79 720 l 1x50
 119 760 l 1x30
 159 720 l 1x50
 159 440 l 1
 119 400 l 1
 79 440 l 1
559 800 m 1
 599 760 l 1
 559 720 l 1xb0
 399 720 l 1x50
 359 760 l 1x30
 319 720 l 1
 159 720 l 1x50
 119 760 l 1x30
 159 800 l 1
 559 800 l 1
EndSplineSet
Validated: 5
EndChar

StartChar: uni05DD
Encoding: 1501 1501 264
Width: 718
VWidth: 0
Flags: W
HStem: 0 80<159 319 399 559> 40 21G<579 619> 40 21G<579 619> 700 20G<507 559 579 619> 740 20G<579 619>
VStem: 559 80<80 360 440 720>
LayerCount: 2
Fore
SplineSet
399 80 m 1x9c
 451 80 507 80 559 80 c 1x9c
 599 40 l 1x5c
 559 0 l 1
 159 0 l 1x9c
 119 40 l 1x3c
 159 80 l 1
 319 80 l 1x9c
 359 40 l 1x3c
 399 80 l 1x9c
519 720 m 1
 559 720 l 1
 559 640 l 1
 439 440 l 1
 399 440 l 1
 399 520 l 1
 519 720 l 1
199 80 m 1
 159 80 l 1
 159 160 l 1
 279 360 l 1
 319 360 l 1
 319 280 l 1
 199 80 l 1
559 440 m 1
 559 720 l 1
 599 760 l 1
 639 720 l 1
 639 440 l 1
 599 400 l 1
 559 440 l 1
559 80 m 1
 559 360 l 1
 599 400 l 1
 639 360 l 1
 639 80 l 1x9c
 599 40 l 1x5c
 559 80 l 1
EndSplineSet
Validated: 5
EndChar

StartChar: uni05DE
Encoding: 1502 1502 265
Width: 718
VWidth: 0
Flags: W
HStem: 40 21G<579 619> 40 21G<579 619> 700 20G<159 211 507 559 579 619> 740 20G<579 619>
VStem: 559 80<80 360 440 720>
LayerCount: 2
Fore
SplineSet
199 720 m 1x38
 319 520 l 1
 319 440 l 1
 279 440 l 1
 159 640 l 1
 159 720 l 1
 199 720 l 1x38
519 720 m 1
 559 720 l 1
 559 640 l 1
 439 440 l 1
 399 440 l 1
 399 520 l 1
 519 720 l 1
199 80 m 1
 159 80 l 1
 159 160 l 1
 279 360 l 1
 319 360 l 1
 319 280 l 1
 199 80 l 1
559 440 m 1
 559 720 l 1
 599 760 l 1
 639 720 l 1
 639 440 l 1
 599 400 l 1
 559 440 l 1
559 80 m 1
 559 360 l 1
 599 400 l 1
 639 360 l 1
 639 80 l 1
 599 40 l 1xb8
 559 80 l 1
EndSplineSet
Validated: 5
EndChar

StartChar: uni05DF
Encoding: 1503 1503 266
Width: 718
VWidth: 0
Flags: W
HStem: 0 80<159 319 399 559> 40 21G<579 619> 40 21G<579 619> 700 20G<507 559 579 619> 740 20G<579 619>
VStem: 559 80<80 360 440 720>
LayerCount: 2
Fore
SplineSet
399 80 m 1x9c
 451 80 507 80 559 80 c 1x9c
 599 40 l 1x5c
 559 0 l 1
 159 0 l 1x9c
 119 40 l 1x3c
 159 80 l 1
 319 80 l 1x9c
 359 40 l 1x3c
 399 80 l 1x9c
519 720 m 1
 559 720 l 1
 559 640 l 1
 439 440 l 1
 399 440 l 1
 399 520 l 1
 519 720 l 1
559 440 m 1
 559 720 l 1
 599 760 l 1
 639 720 l 1
 639 440 l 1
 599 400 l 1
 559 440 l 1
559 80 m 1
 559 360 l 1
 599 400 l 1
 639 360 l 1
 639 80 l 1x9c
 599 40 l 1x5c
 559 80 l 1
EndSplineSet
Validated: 5
EndChar

StartChar: uni05E0
Encoding: 1504 1504 267
Width: 718
VWidth: 0
Flags: W
HStem: 0 80<159 319 399 559> 40 21G<579 619> 40 21G<579 619> 700 20G<507 559 579 619> 740 20G<579 619>
VStem: 559 80<80 360 440 720>
LayerCount: 2
Fore
SplineSet
399 80 m 1x9c
 451 80 507 80 559 80 c 1x9c
 599 40 l 1x5c
 559 0 l 1
 159 0 l 1x9c
 119 40 l 1x3c
 159 80 l 1
 319 80 l 1x9c
 359 40 l 1x3c
 399 80 l 1x9c
519 720 m 1
 559 720 l 1
 559 640 l 1
 439 440 l 1
 399 440 l 1
 399 520 l 1
 519 720 l 1
559 440 m 1
 559 720 l 1
 599 760 l 1
 639 720 l 1
 639 440 l 1
 599 400 l 1
 559 440 l 1
559 80 m 1
 559 360 l 1
 599 400 l 1
 639 360 l 1
 639 80 l 1x9c
 599 40 l 1x5c
 559 80 l 1
EndSplineSet
Validated: 5
EndChar

StartChar: uni05E1
Encoding: 1505 1505 268
Width: 718
VWidth: 0
Flags: W
HStem: 0 80<159 319 399 559> 40 21G<99 139 579 619> 40 21G<99 139 579 619> 720 80<159 319 399 559> 740 20G<99 139 579 619> 740 20G<99 139 579 619>
VStem: 79 80<80 360 440 720> 559 80<80 360 440 720>
LayerCount: 2
Fore
SplineSet
399 80 m 5x83
 451 80 507 80 559 80 c 5x83
 599 40 l 5x43
 559 0 l 5
 159 0 l 5x83
 119 40 l 5x43
 159 80 l 5
 319 80 l 5x83
 359 40 l 5x23
 399 80 l 5x83
79 440 m 1
 79 720 l 1x13
 119 760 l 1x0b
 159 720 l 1x13
 159 440 l 1
 119 400 l 1
 79 440 l 1
79 80 m 1x83
 79 360 l 1
 119 400 l 1
 159 360 l 1
 159 80 l 1x83
 119 40 l 1x43
 79 80 l 1x83
559 440 m 1
 559 720 l 1x13
 599 760 l 1x0b
 639 720 l 1x13
 639 440 l 1
 599 400 l 1
 559 440 l 1
559 80 m 1x83
 559 360 l 1
 599 400 l 1
 639 360 l 1
 639 80 l 1x83
 599 40 l 1x43
 559 80 l 1x83
559 800 m 1x13
 599 760 l 1x0b
 559 720 l 1
 399 720 l 1x13
 359 760 l 1x07
 319 720 l 1
 159 720 l 1x13
 119 760 l 1x0b
 159 800 l 1
 559 800 l 1x13
EndSplineSet
Validated: 5
EndChar

StartChar: uni05E3
Encoding: 1507 1507 270
Width: 718
VWidth: 0
Flags: W
HStem: 40 21G<579 619> 40 21G<579 619> 360 80<159 319> 720 80<159 319 399 559> 740 20G<99 139 579 619> 740 20G<99 139 579 619>
VStem: 79 80<440 720> 559 80<80 360 440 720>
LayerCount: 2
Fore
SplineSet
79 440 m 1x33
 79 720 l 1x33
 119 760 l 1x2b
 159 720 l 1
 159 440 l 1
 119 400 l 1
 79 440 l 1x33
559 440 m 1
 559 720 l 1x33
 599 760 l 1x2b
 639 720 l 1
 639 440 l 1
 599 400 l 1
 559 440 l 1
559 80 m 1
 559 360 l 1
 599 400 l 1
 639 360 l 1
 639 80 l 1
 599 40 l 1xa3
 559 80 l 1
159 440 m 1
 319 440 l 1
 359 400 l 1
 319 360 l 1
 159 360 l 1
 119 400 l 1
 159 440 l 1
559 800 m 1x33
 599 760 l 1x2b
 559 720 l 1
 399 720 l 1x33
 359 760 l 1x27
 319 720 l 1
 159 720 l 1x33
 119 760 l 1x2b
 159 800 l 1
 559 800 l 1x33
EndSplineSet
Validated: 5
EndChar

StartChar: uni05E4
Encoding: 1508 1508 271
Width: 718
VWidth: 0
Flags: W
HStem: 0 80<159 319 399 559> 40 21G<579 619> 40 21G<579 619> 360 80<159 319> 720 80<159 319 399 559> 740 20G<99 139 579 619> 740 20G<99 139 579 619>
VStem: 79 80<440 720> 559 80<80 360 440 720>
LayerCount: 2
Fore
SplineSet
399 80 m 1x9180
 451 80 507 80 559 80 c 1x9180
 599 40 l 1x5180
 559 0 l 1
 159 0 l 1x9180
 119 40 l 1x3180
 159 80 l 1
 319 80 l 1x9180
 359 40 l 1x3180
 399 80 l 1x9180
79 440 m 5
 79 720 l 5x1980
 119 760 l 5x1580
 159 720 l 5x1980
 159 440 l 5
 119 400 l 5
 79 440 l 5
559 440 m 1
 559 720 l 1x1980
 599 760 l 1x1580
 639 720 l 1
 639 440 l 1
 599 400 l 1
 559 440 l 1
559 80 m 1x9180
 559 360 l 1
 599 400 l 1
 639 360 l 1
 639 80 l 1x9180
 599 40 l 1x5180
 559 80 l 1x9180
159 440 m 1
 319 440 l 1
 359 400 l 1
 319 360 l 1
 159 360 l 1
 119 400 l 1
 159 440 l 1
559 800 m 1x1980
 599 760 l 1x1580
 559 720 l 1
 399 720 l 1x1980
 359 760 l 1x1380
 319 720 l 1
 159 720 l 1x1980
 119 760 l 1x1580
 159 800 l 1
 559 800 l 1x1980
EndSplineSet
Validated: 5
EndChar

StartChar: uni05E5
Encoding: 1509 1509 272
Width: 718
VWidth: 0
Flags: W
HStem: 40 21G<339 379> 40 21G<339 379> 360 80<399 559> 700 20G<159 211 579 619> 740 20G<579 619>
VStem: 319 80<80 360> 559 80<440 720>
LayerCount: 2
Fore
SplineSet
319 80 m 1xbe
 319 360 l 1
 359 400 l 1
 399 360 l 1
 399 80 l 1
 359 40 l 1
 319 80 l 1xbe
199 720 m 1
 319 520 l 1
 319 440 l 1
 279 440 l 1
 159 640 l 1
 159 720 l 1
 199 720 l 1
559 440 m 1
 559 720 l 1
 599 760 l 1
 639 720 l 1
 639 440 l 1
 599 400 l 1
 559 440 l 1
399 440 m 1
 559 440 l 1
 599 400 l 1
 559 360 l 1
 399 360 l 1
 359 400 l 1
 399 440 l 1
EndSplineSet
Validated: 5
EndChar

StartChar: uni05E6
Encoding: 1510 1510 273
Width: 718
VWidth: 0
Flags: W
HStem: 0 80<159 319 399 559> 360 80<399 559> 700 20G<159 211 579 619> 740 20G<579 619>
VStem: 559 80<440 720>
LayerCount: 2
Fore
SplineSet
399 80 m 1
 451 80 507 80 559 80 c 1
 599 40 l 1
 559 0 l 1
 159 0 l 1
 119 40 l 1
 159 80 l 1
 319 80 l 1
 359 40 l 1
 399 80 l 1
199 720 m 1
 319 520 l 1
 319 440 l 1
 279 440 l 1
 159 640 l 1
 159 720 l 1
 199 720 l 1
519 80 m 1
 399 280 l 1
 399 360 l 1
 439 360 l 1
 559 160 l 1
 559 80 l 1
 519 80 l 1
559 440 m 1
 559 720 l 1
 599 760 l 1
 639 720 l 1
 639 440 l 1
 599 400 l 1
 559 440 l 1
399 440 m 1
 559 440 l 1
 599 400 l 1
 559 360 l 1
 399 360 l 1
 359 400 l 1
 399 440 l 1
EndSplineSet
Validated: 5
EndChar

StartChar: uni05E7
Encoding: 1511 1511 274
Width: 718
VWidth: 0
Flags: W
HStem: 40 21G<99 139> 40 21G<99 139> 700 20G<507 559> 720 80<159 319 399 559>
VStem: 79 80<80 360>
LayerCount: 2
Fore
SplineSet
519 720 m 1x28
 559 720 l 1
 559 640 l 1
 439 440 l 1
 399 440 l 1
 399 520 l 1
 519 720 l 1x28
79 80 m 1
 79 360 l 1
 119 400 l 1
 159 360 l 1
 159 80 l 1
 119 40 l 1x88
 79 80 l 1
559 800 m 1x18
 599 760 l 1
 559 720 l 1x28
 399 720 l 1
 359 760 l 1
 319 720 l 1
 159 720 l 1
 119 760 l 1
 159 800 l 1
 559 800 l 1x18
EndSplineSet
Validated: 5
EndChar

StartChar: uni05E8
Encoding: 1512 1512 275
Width: 718
VWidth: 0
Flags: W
HStem: 40 21G<579 619> 40 21G<579 619> 720 80<159 319 399 559> 740 20G<579 619> 740 20G<579 619>
VStem: 559 80<80 360 440 720>
LayerCount: 2
Fore
SplineSet
559 440 m 1x24
 559 720 l 1x24
 599 760 l 1x14
 639 720 l 1
 639 440 l 1
 599 400 l 1
 559 440 l 1x24
559 80 m 1
 559 360 l 1
 599 400 l 1
 639 360 l 1
 639 80 l 1
 599 40 l 1x84
 559 80 l 1
559 800 m 1x24
 599 760 l 1x14
 559 720 l 1
 399 720 l 1x24
 359 760 l 1x0c
 319 720 l 1
 159 720 l 1x24
 119 760 l 1x0c
 159 800 l 1
 559 800 l 1x24
EndSplineSet
Validated: 5
EndChar

StartChar: uni05E9
Encoding: 1513 1513 276
Width: 718
VWidth: 0
Flags: W
HStem: 40 21G<99 139> 40 21G<99 139> 700 20G<99 139 339 379 507 559> 740 20G<99 139 339 379>
VStem: 79 80<160 360 440 720> 319 80<520 720>
LayerCount: 2
Fore
SplineSet
519 720 m 1x3c
 559 720 l 1
 559 640 l 1
 439 440 l 1
 399 440 l 1
 399 520 l 1
 519 720 l 1x3c
319 440 m 1
 319 720 l 1
 359 760 l 1
 399 720 l 1
 399 440 l 1
 359 400 l 1
 319 440 l 1
199 80 m 1
 159 80 l 1
 159 160 l 1
 279 360 l 1
 319 360 l 1
 319 280 l 1
 199 80 l 1
79 440 m 1
 79 720 l 1
 119 760 l 1
 159 720 l 1
 159 440 l 1
 119 400 l 1
 79 440 l 1
79 80 m 1
 79 360 l 1
 119 400 l 1
 159 360 l 1
 159 80 l 1
 119 40 l 1xbc
 79 80 l 1
EndSplineSet
Validated: 5
EndChar

StartChar: uni05EA
Encoding: 1514 1514 277
Width: 718
VWidth: 0
Flags: W
HStem: 40 21G<339 379 579 619> 40 21G<339 379 579 619> 720 80<159 319 399 559> 740 20G<339 379 579 619> 740 20G<339 379 579 619>
VStem: 319 80<80 360 440 720> 559 80<80 360 440 720>
LayerCount: 2
Fore
SplineSet
319 440 m 1x26
 319 720 l 1x26
 359 760 l 1x16
 399 720 l 1
 399 440 l 1
 359 400 l 1
 319 440 l 1x26
199 80 m 1
 159 80 l 1
 159 160 l 1
 279 360 l 1
 319 360 l 1
 319 280 l 1
 199 80 l 1
319 80 m 1
 319 360 l 1
 359 400 l 1
 399 360 l 1
 399 80 l 1
 359 40 l 1x86
 319 80 l 1
559 440 m 1
 559 720 l 1x26
 599 760 l 1x16
 639 720 l 1x26
 639 440 l 1
 599 400 l 1
 559 440 l 1
559 80 m 1
 559 360 l 1
 599 400 l 1
 639 360 l 1
 639 80 l 1
 599 40 l 1x86
 559 80 l 1
559 800 m 1x26
 599 760 l 1x16
 559 720 l 1
 399 720 l 1x26
 359 760 l 1x16
 319 720 l 1
 159 720 l 1x26
 119 760 l 1x0e
 159 800 l 1
 559 800 l 1x26
EndSplineSet
Validated: 5
EndChar

StartChar: Lslash
Encoding: 321 321 303
Width: 718
VWidth: 0
Flags: W
HStem: 0 80<159 319 399 559> 40 21G<99 139> 40 21G<99 139> 740 20G<99 139> 740 20G<99 139>
VStem: 79 80<160 360 440 720>
LayerCount: 2
Fore
SplineSet
399 80 m 1x84
 451 80 507 80 559 80 c 1x84
 599 40 l 1x24
 559 0 l 1
 159 0 l 1x84
 119 40 l 1x44
 159 80 l 1
 319 80 l 1x84
 359 40 l 1x24
 399 80 l 1x84
199 80 m 1
 159 80 l 1
 159 160 l 1
 279 360 l 1
 319 360 l 1
 319 280 l 1
 199 80 l 1
79 440 m 1
 79 720 l 1
 119 760 l 1x14
 159 720 l 1
 159 440 l 1
 119 400 l 1
 79 440 l 1
79 80 m 1x84
 79 360 l 1
 119 400 l 1
 159 360 l 1
 159 80 l 1x84
 119 40 l 1x44
 79 80 l 1x84
EndSplineSet
Validated: 5
EndChar

StartChar: uni16A0
Encoding: 5792 5792 311
Width: 718
VWidth: 0
Flags: W
HStem: 0 80<159 319 399 559> 40 21G<99 139> 40 21G<99 139> 360 80<159 319> 700 20G<99 139 507 559> 740 20G<99 139>
VStem: 79 80<80 360 440 720>
LayerCount: 2
Fore
SplineSet
399 80 m 1x9e
 451 80 507 80 559 80 c 1x9e
 599 40 l 1x3e
 559 0 l 1
 159 0 l 1x9e
 119 40 l 1x5e
 159 80 l 1
 319 80 l 1x9e
 359 40 l 1x3e
 399 80 l 1x9e
519 720 m 1
 559 720 l 1
 559 640 l 1
 439 440 l 1
 399 440 l 1
 399 520 l 1
 519 720 l 1
79 440 m 1
 79 720 l 1
 119 760 l 1
 159 720 l 1
 159 440 l 1
 119 400 l 1
 79 440 l 1
79 80 m 1
 79 360 l 1
 119 400 l 1
 159 360 l 1
 159 80 l 1x9e
 119 40 l 1x5e
 79 80 l 1
159 440 m 1
 319 440 l 1
 359 400 l 1
 319 360 l 1
 159 360 l 1
 119 400 l 1
 159 440 l 1
EndSplineSet
Validated: 5
EndChar

StartChar: uni16A1
Encoding: 5793 5793 312
Width: 718
VWidth: 0
Flags: W
HStem: 0 80<159 319 399 559> 40 21G<99 139> 40 21G<99 139> 360 80<159 319> 700 20G<99 139 507 559> 740 20G<99 139>
VStem: 79 80<80 360 440 720>
LayerCount: 2
Fore
SplineSet
399 80 m 1x9e
 451 80 507 80 559 80 c 1x9e
 599 40 l 1x3e
 559 0 l 1
 159 0 l 1x9e
 119 40 l 1x5e
 159 80 l 1
 319 80 l 1x9e
 359 40 l 1x3e
 399 80 l 1x9e
519 720 m 1
 559 720 l 1
 559 640 l 1
 439 440 l 1
 399 440 l 1
 399 520 l 1
 519 720 l 1
79 440 m 1
 79 720 l 1
 119 760 l 1
 159 720 l 1
 159 440 l 1
 119 400 l 1
 79 440 l 1
79 80 m 1
 79 360 l 1
 119 400 l 1
 159 360 l 1
 159 80 l 1x9e
 119 40 l 1x5e
 79 80 l 1
159 440 m 1
 319 440 l 1
 359 400 l 1
 319 360 l 1
 159 360 l 1
 119 400 l 1
 159 440 l 1
EndSplineSet
Validated: 5
EndChar

StartChar: uni16A2
Encoding: 5794 5794 313
Width: 718
VWidth: 0
Flags: W
HStem: 40 21G<99 139 579 619> 40 21G<99 139 579 619> 720 80<159 319 399 559> 740 20G<99 139 579 619> 740 20G<99 139 579 619>
VStem: 79 80<80 360 440 720> 559 80<80 360 440 720>
LayerCount: 2
Fore
SplineSet
159 640 m 1
 159 720 l 1
 199 720 l 1025x26
519 720 m 1
 559 720 l 1
 559 640 l 1025
319 720 m 1x26
 359 760 l 1x0e
 399 720 l 1025
559 160 m 1
 559 80 l 1025
159 80 m 1
 159 160 l 1025
79 440 m 1
 79 720 l 1x26
 119 760 l 1x16
 159 720 l 1
 159 440 l 1
 119 400 l 1
 79 440 l 1
79 80 m 1
 79 360 l 1
 119 400 l 1
 159 360 l 1
 159 80 l 1
 119 40 l 1x86
 79 80 l 1
559 440 m 1
 559 720 l 1x26
 599 760 l 1x16
 639 720 l 1x26
 639 440 l 1
 599 400 l 1
 559 440 l 1
559 80 m 1
 559 360 l 1
 599 400 l 1
 639 360 l 1
 639 80 l 1
 599 40 l 1x86
 559 80 l 1
159 360 m 1
 119 400 l 1
 159 440 l 1025
559 440 m 1
 599 400 l 1
 559 360 l 1025
559 800 m 1x26
 599 760 l 1x16
 559 720 l 1
 399 720 l 1x26
 359 760 l 1x0e
 319 720 l 1
 159 720 l 1x26
 119 760 l 1x16
 159 800 l 1
 559 800 l 1x26
EndSplineSet
Validated: 11
EndChar

StartChar: uni16A3
Encoding: 5795 5795 314
Width: 718
VWidth: 0
Flags: W
HStem: 40 21G<99 139> 40 21G<99 139> 700 20G<99 139 159 211> 740 20G<99 139>
VStem: 79 80<80 360 440 640>
LayerCount: 2
Fore
SplineSet
199 720 m 1x38
 319 520 l 1
 319 440 l 1
 279 440 l 1
 159 640 l 1
 159 720 l 1
 199 720 l 1x38
519 80 m 1
 399 280 l 1
 399 360 l 1
 439 360 l 1
 559 160 l 1
 559 80 l 1
 519 80 l 1
79 440 m 1
 79 720 l 1
 119 760 l 1
 159 720 l 1
 159 440 l 1
 119 400 l 1
 79 440 l 1
79 80 m 1
 79 360 l 1
 119 400 l 1
 159 360 l 1
 159 80 l 1
 119 40 l 1xb8
 79 80 l 1
EndSplineSet
Validated: 5
EndChar

StartChar: uni16A4
Encoding: 5796 5796 315
Width: 718
VWidth: 0
Flags: W
HStem: 40 21G<99 139 579 619> 40 21G<99 139 579 619> 720 80<159 319 399 559> 740 20G<99 139 579 619> 740 20G<99 139 579 619>
VStem: 79 80<80 360 440 720> 559 80<80 360 440 720>
LayerCount: 2
Fore
SplineSet
159 640 m 1
 159 720 l 1
 199 720 l 1025x26
519 720 m 1
 559 720 l 1
 559 640 l 1025
319 720 m 1x26
 359 760 l 1x0e
 399 720 l 1025
559 160 m 1
 559 80 l 1025
159 80 m 1
 159 160 l 1025
79 440 m 1
 79 720 l 1x26
 119 760 l 1x16
 159 720 l 1
 159 440 l 1
 119 400 l 1
 79 440 l 1
79 80 m 1
 79 360 l 1
 119 400 l 1
 159 360 l 1
 159 80 l 1
 119 40 l 1x86
 79 80 l 1
559 440 m 1
 559 720 l 1x26
 599 760 l 1x16
 639 720 l 1x26
 639 440 l 1
 599 400 l 1
 559 440 l 1
559 80 m 1
 559 360 l 1
 599 400 l 1
 639 360 l 1
 639 80 l 1
 599 40 l 1x86
 559 80 l 1
159 360 m 1
 119 400 l 1
 159 440 l 1025
559 440 m 1
 599 400 l 1
 559 360 l 1025
559 800 m 1x26
 599 760 l 1x16
 559 720 l 1
 399 720 l 1x26
 359 760 l 1x0e
 319 720 l 1
 159 720 l 1x26
 119 760 l 1x16
 159 800 l 1
 559 800 l 1x26
EndSplineSet
Validated: 11
EndChar

StartChar: uni16A5
Encoding: 5797 5797 316
Width: 718
VWidth: 0
Flags: W
HStem: 40 21G<99 139 339 379 579 619> 40 21G<99 139 339 379 579 619> 360 80<159 319> 720 80<159 319 399 559> 740 20G<99 139 579 619> 740 20G<99 139 579 619>
VStem: 79 80<80 360 440 720> 319 80<80 360> 559 80<80 360 440 720>
CounterMasks: 1 0380
LayerCount: 2
Fore
SplineSet
319 80 m 1xa380
 319 360 l 1
 359 400 l 1
 399 360 l 1
 399 80 l 1
 359 40 l 1
 319 80 l 1xa380
159 440 m 1
 319 440 l 1
 359 400 l 1
 319 360 l 1
 159 360 l 1
 119 400 l 1
 159 440 l 1
159 640 m 1
 159 720 l 1
 199 720 l 1025x3380
519 720 m 1
 559 720 l 1
 559 640 l 1025
319 720 m 1x3380
 359 760 l 1x2780
 399 720 l 1025
559 160 m 1
 559 80 l 1025
159 80 m 1
 159 160 l 1025
79 440 m 1
 79 720 l 1x3380
 119 760 l 1x2b80
 159 720 l 1
 159 440 l 1
 119 400 l 1
 79 440 l 1
79 80 m 1
 79 360 l 1
 119 400 l 1
 159 360 l 1
 159 80 l 1
 119 40 l 1xa380
 79 80 l 1
559 440 m 1
 559 720 l 1x3380
 599 760 l 1x2b80
 639 720 l 1x3380
 639 440 l 1
 599 400 l 1
 559 440 l 1
559 80 m 1
 559 360 l 1
 599 400 l 1
 639 360 l 1
 639 80 l 1
 599 40 l 1xa380
 559 80 l 1
159 360 m 1
 119 400 l 1
 159 440 l 1025
559 440 m 1
 599 400 l 1
 559 360 l 1025
559 800 m 1x3380
 599 760 l 1x2b80
 559 720 l 1
 399 720 l 1x3380
 359 760 l 1x2780
 319 720 l 1
 159 720 l 1x3380
 119 760 l 1x2b80
 159 800 l 1
 559 800 l 1x3380
EndSplineSet
Validated: 11
EndChar

StartChar: uni16A8
Encoding: 5800 5800 319
Width: 718
VWidth: 0
Flags: W
HStem: 40 21G<99 139> 40 21G<99 139> 700 20G<99 139 159 211 339 379> 740 20G<99 139 339 379>
VStem: 79 80<80 360 440 640> 319 80<440 720>
LayerCount: 2
Fore
SplineSet
199 720 m 1x3c
 319 520 l 1
 319 440 l 1
 279 440 l 1
 159 640 l 1
 159 720 l 1
 199 720 l 1x3c
319 440 m 1
 319 720 l 1
 359 760 l 1
 399 720 l 1
 399 440 l 1
 359 400 l 1
 319 440 l 1
79 440 m 1
 79 720 l 1
 119 760 l 1
 159 720 l 1
 159 440 l 1
 119 400 l 1
 79 440 l 1
79 80 m 1
 79 360 l 1
 119 400 l 1
 159 360 l 1
 159 80 l 1
 119 40 l 1xbc
 79 80 l 1
EndSplineSet
Validated: 5
EndChar

StartChar: uni16A9
Encoding: 5801 5801 320
Width: 718
VWidth: 0
Flags: W
HStem: 40 21G<99 139> 40 21G<99 139> 700 20G<99 139 159 211 507 559> 740 20G<99 139>
VStem: 79 80<80 360 440 640>
LayerCount: 2
Fore
SplineSet
199 720 m 1x38
 319 520 l 1
 319 440 l 1
 279 440 l 1
 159 640 l 1
 159 720 l 1
 199 720 l 1x38
519 720 m 1
 559 720 l 1
 559 640 l 1
 439 440 l 1
 399 440 l 1
 399 520 l 1
 519 720 l 1
79 440 m 1
 79 720 l 1
 119 760 l 1
 159 720 l 1
 159 440 l 1
 119 400 l 1
 79 440 l 1
79 80 m 1
 79 360 l 1
 119 400 l 1
 159 360 l 1
 159 80 l 1
 119 40 l 1xb8
 79 80 l 1
EndSplineSet
Validated: 5
EndChar

StartChar: uni16AA
Encoding: 5802 5802 321
Width: 718
VWidth: 0
Flags: W
HStem: 40 21G<99 139> 40 21G<99 139> 700 20G<99 139 159 211 507 559> 740 20G<99 139>
VStem: 79 80<80 360 440 640>
LayerCount: 2
Fore
SplineSet
199 720 m 1x38
 319 520 l 1
 319 440 l 1
 279 440 l 1
 159 640 l 1
 159 720 l 1
 199 720 l 1x38
519 720 m 1
 559 720 l 1
 559 640 l 1
 439 440 l 1
 399 440 l 1
 399 520 l 1
 519 720 l 1
79 440 m 1
 79 720 l 1
 119 760 l 1
 159 720 l 1
 159 440 l 1
 119 400 l 1
 79 440 l 1
79 80 m 1
 79 360 l 1
 119 400 l 1
 159 360 l 1
 159 80 l 1
 119 40 l 1xb8
 79 80 l 1
EndSplineSet
Validated: 5
EndChar

StartChar: uni16AB
Encoding: 5803 5803 322
Width: 718
VWidth: 0
Flags: W
HStem: 40 21G<99 139> 40 21G<99 139> 700 20G<99 139 159 211 339 379> 740 20G<99 139 339 379>
VStem: 79 80<80 360 440 640> 319 80<440 720>
LayerCount: 2
Fore
SplineSet
199 720 m 1x3c
 319 520 l 1
 319 440 l 1
 279 440 l 1
 159 640 l 1
 159 720 l 1
 199 720 l 1x3c
319 440 m 1
 319 720 l 1
 359 760 l 1
 399 720 l 1
 399 440 l 1
 359 400 l 1
 319 440 l 1
79 440 m 1
 79 720 l 1
 119 760 l 1
 159 720 l 1
 159 440 l 1
 119 400 l 1
 79 440 l 1
79 80 m 1
 79 360 l 1
 119 400 l 1
 159 360 l 1
 159 80 l 1
 119 40 l 1xbc
 79 80 l 1
EndSplineSet
Validated: 5
EndChar

StartChar: uni16AC
Encoding: 5804 5804 323
Width: 718
VWidth: 0
Flags: W
HStem: 40 21G<339 379> 40 21G<339 379> 700 20G<159 211 339 379> 740 20G<339 379>
VStem: 319 80<80 280 440 720>
LayerCount: 2
Fore
SplineSet
199 720 m 1x38
 319 520 l 1
 319 440 l 1
 279 440 l 1
 159 640 l 1
 159 720 l 1
 199 720 l 1x38
319 440 m 1
 319 720 l 1
 359 760 l 1
 399 720 l 1
 399 440 l 1
 359 400 l 1
 319 440 l 1
519 80 m 1
 399 280 l 1
 399 360 l 1
 439 360 l 1
 559 160 l 1
 559 80 l 1
 519 80 l 1
319 80 m 1
 319 360 l 1
 359 400 l 1
 399 360 l 1
 399 80 l 1
 359 40 l 1xb8
 319 80 l 1
EndSplineSet
Validated: 5
EndChar

StartChar: uni16AD
Encoding: 5805 5805 324
Width: 718
VWidth: 0
Flags: W
HStem: 40 21G<339 379> 40 21G<339 379> 740 20G<339 379> 740 20G<339 379>
VStem: 319 80<80 280 440 720>
LayerCount: 2
Fore
SplineSet
319 440 m 1x28
 319 720 l 1
 359 760 l 1
 399 720 l 1
 399 440 l 1
 359 400 l 1
 319 440 l 1x28
519 80 m 1
 399 280 l 1
 399 360 l 1
 439 360 l 1
 559 160 l 1
 559 80 l 1
 519 80 l 1
319 80 m 1
 319 360 l 1
 359 400 l 1
 399 360 l 1
 399 80 l 1
 359 40 l 1x88
 319 80 l 1
EndSplineSet
Validated: 5
EndChar

StartChar: uni16AE
Encoding: 5806 5806 325
Width: 718
VWidth: 0
Flags: W
HStem: 40 21G<339 379> 40 21G<339 379> 740 20G<339 379> 740 20G<339 379>
VStem: 319 80<80 360 440 720>
LayerCount: 2
Fore
SplineSet
199 80 m 1x08
 159 80 l 1
 159 160 l 1
 279 360 l 1
 319 360 l 1
 319 280 l 1
 199 80 l 1x08
319 440 m 1
 319 720 l 1
 359 760 l 1x28
 399 720 l 1
 399 440 l 1
 359 400 l 1
 319 440 l 1
319 80 m 1
 319 360 l 1
 359 400 l 1
 399 360 l 1
 399 80 l 1
 359 40 l 1x88
 319 80 l 1
EndSplineSet
Validated: 5
EndChar

StartChar: uni16AF
Encoding: 5807 5807 326
Width: 718
VWidth: 0
Flags: W
HStem: 40 21G<339 379> 40 21G<339 379> 700 20G<339 379 507 559> 740 20G<339 379>
VStem: 319 80<80 360 520 720>
LayerCount: 2
Fore
SplineSet
519 720 m 5x38
 559 720 l 5
 559 640 l 5
 439 440 l 5
 399 440 l 5
 399 520 l 5
 519 720 l 5x38
199 80 m 1
 159 80 l 1
 159 160 l 1
 279 360 l 1
 319 360 l 1
 319 280 l 1
 199 80 l 1
319 440 m 1
 319 720 l 1
 359 760 l 1
 399 720 l 1
 399 440 l 1
 359 400 l 1
 319 440 l 1
319 80 m 1
 319 360 l 1
 359 400 l 1
 399 360 l 1
 399 80 l 1
 359 40 l 1xb8
 319 80 l 1
EndSplineSet
Validated: 5
EndChar

StartChar: uni16B0
Encoding: 5808 5808 327
Width: 718
VWidth: 0
Flags: W
HStem: 40 21G<339 379> 40 21G<339 379> 700 20G<339 379 507 559> 740 20G<339 379>
VStem: 319 80<80 360 520 720>
LayerCount: 2
Fore
SplineSet
519 720 m 5x38
 559 720 l 5
 559 640 l 5
 439 440 l 5
 399 440 l 5
 399 520 l 5
 519 720 l 5x38
199 80 m 1
 159 80 l 1
 159 160 l 1
 279 360 l 1
 319 360 l 1
 319 280 l 1
 199 80 l 1
319 440 m 1
 319 720 l 1
 359 760 l 1
 399 720 l 1
 399 440 l 1
 359 400 l 1
 319 440 l 1
319 80 m 1
 319 360 l 1
 359 400 l 1
 399 360 l 1
 399 80 l 1
 359 40 l 1xb8
 319 80 l 1
EndSplineSet
Validated: 5
EndChar

StartChar: uni16B2
Encoding: 5810 5810 329
Width: 718
VWidth: 0
Flags: W
HStem: 700 20G<507 559>
VStem: 399 160
LayerCount: 2
Fore
SplineSet
519 720 m 5
 559 720 l 5
 559 640 l 5
 439 440 l 5
 399 440 l 5
 399 520 l 5
 519 720 l 5
519 80 m 1
 399 280 l 1
 399 360 l 1
 439 360 l 1
 559 160 l 1
 559 80 l 1
 519 80 l 1
EndSplineSet
Validated: 1
EndChar

StartChar: uni16B3
Encoding: 5811 5811 330
Width: 718
VWidth: 0
Flags: W
HStem: 40 21G<99 139> 40 21G<99 139> 360 80<159 319> 740 20G<99 139> 740 20G<99 139>
VStem: 79 80<80 360 440 720>
LayerCount: 2
Fore
SplineSet
519 80 m 1x24
 399 280 l 1
 399 360 l 1
 439 360 l 1
 559 160 l 1
 559 80 l 1
 519 80 l 1x24
79 440 m 1
 79 720 l 1
 119 760 l 1x34
 159 720 l 1
 159 440 l 1
 119 400 l 1
 79 440 l 1
79 80 m 1
 79 360 l 1
 119 400 l 1
 159 360 l 1
 159 80 l 1
 119 40 l 1xa4
 79 80 l 1
159 440 m 1
 319 440 l 1
 359 400 l 1
 319 360 l 1
 159 360 l 1
 119 400 l 1
 159 440 l 1
EndSplineSet
Validated: 5
EndChar

StartChar: uni16B4
Encoding: 5812 5812 331
Width: 718
VWidth: 0
Flags: W
HStem: 40 21G<99 139> 40 21G<99 139> 360 80<159 319> 700 20G<99 139 507 559> 740 20G<99 139>
VStem: 79 80<80 360 440 720>
LayerCount: 2
Fore
SplineSet
519 720 m 1x3c
 559 720 l 1
 559 640 l 1
 439 440 l 1
 399 440 l 1
 399 520 l 1
 519 720 l 1x3c
79 440 m 1
 79 720 l 1
 119 760 l 1
 159 720 l 1
 159 440 l 1
 119 400 l 1
 79 440 l 1
79 80 m 1
 79 360 l 1
 119 400 l 1
 159 360 l 1
 159 80 l 1
 119 40 l 1xbc
 79 80 l 1
159 440 m 1
 319 440 l 1
 359 400 l 1
 319 360 l 1
 159 360 l 1
 119 400 l 1
 159 440 l 1
EndSplineSet
Validated: 5
EndChar

StartChar: uni16B5
Encoding: 5813 5813 332
Width: 718
VWidth: 0
Flags: W
HStem: 40 21G<99 139> 40 21G<99 139> 360 80<159 319> 700 20G<99 139 507 559> 740 20G<99 139>
VStem: 79 80<80 360 440 720>
LayerCount: 2
Fore
SplineSet
519 720 m 1x3c
 559 720 l 1
 559 640 l 1
 439 440 l 1
 399 440 l 1
 399 520 l 1
 519 720 l 1x3c
79 440 m 1
 79 720 l 1
 119 760 l 1
 159 720 l 1
 159 440 l 1
 119 400 l 1
 79 440 l 1
79 80 m 1
 79 360 l 1
 119 400 l 1
 159 360 l 1
 159 80 l 1
 119 40 l 1xbc
 79 80 l 1
159 440 m 1
 319 440 l 1
 359 400 l 1
 319 360 l 1
 159 360 l 1
 119 400 l 1
 159 440 l 1
EndSplineSet
Validated: 5
EndChar

StartChar: uni16B6
Encoding: 5814 5814 333
Width: 718
VWidth: 0
Flags: W
HStem: 40 21G<99 139> 40 21G<99 139> 360 80<159 319> 700 20G<99 139 507 559> 740 20G<99 139>
VStem: 79 80<80 360 440 720>
LayerCount: 2
Fore
SplineSet
519 720 m 1x3c
 559 720 l 1
 559 640 l 1
 439 440 l 1
 399 440 l 1
 399 520 l 1
 519 720 l 1x3c
79 440 m 1
 79 720 l 1
 119 760 l 1
 159 720 l 1
 159 440 l 1
 119 400 l 1
 79 440 l 1
79 80 m 1
 79 360 l 1
 119 400 l 1
 159 360 l 1
 159 80 l 1
 119 40 l 1xbc
 79 80 l 1
159 440 m 1
 319 440 l 1
 359 400 l 1
 319 360 l 1
 159 360 l 1
 119 400 l 1
 159 440 l 1
EndSplineSet
Validated: 5
EndChar

StartChar: uni16B7
Encoding: 5815 5815 334
Width: 718
VWidth: 0
Flags: W
HStem: 700 20G<159 211 507 559>
LayerCount: 2
Fore
SplineSet
199 720 m 1
 319 520 l 1
 319 440 l 1
 279 440 l 1
 159 640 l 1
 159 720 l 1
 199 720 l 1
519 720 m 1
 559 720 l 1
 559 640 l 1
 439 440 l 1
 399 440 l 1
 399 520 l 1
 519 720 l 1
519 80 m 1
 399 280 l 1
 399 360 l 1
 439 360 l 1
 559 160 l 1
 559 80 l 1
 519 80 l 1
199 80 m 1
 159 80 l 1
 159 160 l 1
 279 360 l 1
 319 360 l 1
 319 280 l 1
 199 80 l 1
EndSplineSet
Validated: 1
EndChar

StartChar: uni16B8
Encoding: 5816 5816 335
Width: 718
VWidth: 0
Flags: W
HStem: 360 80<159 279 439 559> 700 20G<159 211 507 559>
LayerCount: 2
Fore
SplineSet
159 440 m 1
 319 440 l 1
 359 400 l 1
 319 360 l 1
 159 360 l 1
 119 400 l 1
 159 440 l 1
399 440 m 1
 559 440 l 1
 599 400 l 1
 559 360 l 1
 399 360 l 1
 359 400 l 1
 399 440 l 1
199 720 m 1
 319 520 l 1
 319 440 l 1
 279 440 l 1
 159 640 l 1
 159 720 l 1
 199 720 l 1
519 720 m 5
 559 720 l 5
 559 640 l 5
 439 440 l 5
 399 440 l 5
 399 520 l 5
 519 720 l 5
519 80 m 1
 399 280 l 1
 399 360 l 1
 439 360 l 1
 559 160 l 1
 559 80 l 1
 519 80 l 1
199 80 m 5
 159 80 l 5
 159 160 l 5
 279 360 l 5
 319 360 l 5
 319 280 l 5
 199 80 l 5
EndSplineSet
Validated: 5
EndChar

StartChar: uni16BD
Encoding: 5821 5821 340
Width: 718
VWidth: 0
Flags: W
HStem: 0 80<159 319 399 559> 40 21G<99 139 339 379 579 619> 40 21G<99 139 339 379 579 619> 720 80<159 319 399 559> 740 20G<99 139 339 379 579 619> 740 20G<99 139 339 379 579 619>
VStem: 79 80<80 360 440 720> 319 80<80 360 440 720> 559 80<80 360 440 720>
CounterMasks: 1 0380
LayerCount: 2
Fore
SplineSet
399 80 m 1x8380
 451 80 507 80 559 80 c 1x8380
 599 40 l 1x4380
 559 0 l 1
 159 0 l 1x8380
 119 40 l 1x4380
 159 80 l 1
 319 80 l 1x8380
 359 40 l 1x4380
 399 80 l 1x8380
319 440 m 1
 319 720 l 1x1380
 359 760 l 1x0b80
 399 720 l 1x1380
 399 440 l 1
 359 400 l 1
 319 440 l 1
319 80 m 1x8380
 319 360 l 1
 359 400 l 1
 399 360 l 1
 399 80 l 1x8380
 359 40 l 1x4380
 319 80 l 1x8380
79 440 m 1
 79 720 l 1x1380
 119 760 l 1x0b80
 159 720 l 1x1380
 159 440 l 1
 119 400 l 1
 79 440 l 1
79 80 m 1x8380
 79 360 l 1
 119 400 l 1
 159 360 l 1
 159 80 l 1x8380
 119 40 l 1x4380
 79 80 l 1x8380
559 440 m 1
 559 720 l 1x1380
 599 760 l 1x0b80
 639 720 l 1x1380
 639 440 l 1
 599 400 l 1
 559 440 l 1
559 80 m 1x8380
 559 360 l 1
 599 400 l 1
 639 360 l 1
 639 80 l 1x8380
 599 40 l 1x4380
 559 80 l 1x8380
559 800 m 1x1380
 599 760 l 1x0b80
 559 720 l 1
 399 720 l 1x1380
 359 760 l 1x0b80
 319 720 l 1
 159 720 l 1x1380
 119 760 l 1x0b80
 159 800 l 1
 559 800 l 1x1380
EndSplineSet
Validated: 5
EndChar

StartChar: uni16BE
Encoding: 5822 5822 341
Width: 718
VWidth: 0
Flags: W
HStem: 40 21G<339 379> 40 21G<339 379> 700 20G<159 211 339 379> 740 20G<339 379>
VStem: 319 80<80 280 440 720>
LayerCount: 2
Fore
SplineSet
199 720 m 1x38
 319 520 l 1
 319 440 l 1
 279 440 l 1
 159 640 l 1
 159 720 l 1
 199 720 l 1x38
319 440 m 1
 319 720 l 1
 359 760 l 1
 399 720 l 1
 399 440 l 1
 359 400 l 1
 319 440 l 1
519 80 m 1
 399 280 l 1
 399 360 l 1
 439 360 l 1
 559 160 l 1
 559 80 l 1
 519 80 l 1
319 80 m 1
 319 360 l 1
 359 400 l 1
 399 360 l 1
 399 80 l 1
 359 40 l 1xb8
 319 80 l 1
EndSplineSet
Validated: 5
EndChar

StartChar: uni16BF
Encoding: 5823 5823 342
Width: 718
VWidth: 0
Flags: W
HStem: 40 21G<339 379> 40 21G<339 379> 740 20G<339 379> 740 20G<339 379>
VStem: 319 80<80 280 440 720>
LayerCount: 2
Fore
SplineSet
319 440 m 1x28
 319 720 l 1
 359 760 l 1
 399 720 l 1
 399 440 l 1
 359 400 l 1
 319 440 l 1x28
519 80 m 1
 399 280 l 1
 399 360 l 1
 439 360 l 1
 559 160 l 1
 559 80 l 1
 519 80 l 1
319 80 m 1
 319 360 l 1
 359 400 l 1
 399 360 l 1
 399 80 l 1
 359 40 l 1x88
 319 80 l 1
EndSplineSet
Validated: 5
EndChar

StartChar: uni16C0
Encoding: 5824 5824 343
Width: 718
VWidth: 0
Flags: W
HStem: 0 80<159 319 399 559> 40 21G<99 139 339 379 579 619> 40 21G<99 139 339 379 579 619> 700 60G<99 139 159 211 339 379 579 619> 720 80<159 319 399 559> 740 20G<99 139 339 379 579 619>
VStem: 79 80<80 360 440 640> 319 80<80 280 440 720> 559 80<80 360 440 720>
CounterMasks: 1 0380
LayerCount: 2
Fore
SplineSet
399 80 m 1x8380
 451 80 507 80 559 80 c 1x8380
 599 40 l 1x4380
 559 0 l 1
 159 0 l 1x8380
 119 40 l 1x4380
 159 80 l 1
 319 80 l 1x8380
 359 40 l 1x4380
 399 80 l 1x8380
199 720 m 1x0b80
 319 520 l 1
 319 440 l 1
 279 440 l 1
 159 640 l 1
 159 720 l 1
 199 720 l 1x0b80
319 440 m 1
 319 720 l 1x0b80
 359 760 l 1x1380
 399 720 l 1
 399 440 l 1
 359 400 l 1
 319 440 l 1
519 80 m 1x8380
 399 280 l 1
 399 360 l 1
 439 360 l 1
 559 160 l 1
 559 80 l 1
 519 80 l 1x8380
319 80 m 1
 319 360 l 1
 359 400 l 1
 399 360 l 1
 399 80 l 1x8380
 359 40 l 1x4380
 319 80 l 1
79 440 m 1
 79 720 l 1x0b80
 119 760 l 1x1380
 159 720 l 1x0b80
 159 440 l 1
 119 400 l 1
 79 440 l 1
79 80 m 1x8380
 79 360 l 1
 119 400 l 1
 159 360 l 1
 159 80 l 1x8380
 119 40 l 1x4380
 79 80 l 1x8380
559 440 m 1
 559 720 l 1x0b80
 599 760 l 1x1380
 639 720 l 1x0b80
 639 440 l 1
 599 400 l 1
 559 440 l 1
559 80 m 1x8380
 559 360 l 1
 599 400 l 1
 639 360 l 1
 639 80 l 1x8380
 599 40 l 1x4380
 559 80 l 1x8380
559 800 m 1x0b80
 599 760 l 1x1380
 559 720 l 1
 399 720 l 1x0b80
 359 760 l 1x1380
 319 720 l 1
 159 720 l 1x0b80
 119 760 l 1x1380
 159 800 l 1
 559 800 l 1x0b80
EndSplineSet
Validated: 5
EndChar

StartChar: uni16C5
Encoding: 5829 5829 348
Width: 718
VWidth: 0
Flags: W
HStem: 40 21G<339 379> 40 21G<339 379> 700 20G<339 379 507 559> 740 20G<339 379>
VStem: 319 80<80 360 520 720>
LayerCount: 2
Fore
SplineSet
519 720 m 5x38
 559 720 l 5
 559 640 l 5
 439 440 l 5
 399 440 l 5
 399 520 l 5
 519 720 l 5x38
199 80 m 1
 159 80 l 1
 159 160 l 1
 279 360 l 1
 319 360 l 1
 319 280 l 1
 199 80 l 1
319 440 m 1
 319 720 l 1
 359 760 l 1
 399 720 l 1
 399 440 l 1
 359 400 l 1
 319 440 l 1
319 80 m 1
 319 360 l 1
 359 400 l 1
 399 360 l 1
 399 80 l 1
 359 40 l 1xb8
 319 80 l 1
EndSplineSet
Validated: 5
EndChar

StartChar: uni16C6
Encoding: 5830 5830 349
Width: 718
VWidth: 0
Flags: W
HStem: 40 21G<339 379> 40 21G<339 379> 740 20G<339 379> 740 20G<339 379>
VStem: 319 80<80 360 440 720>
LayerCount: 2
Fore
SplineSet
199 80 m 1x08
 159 80 l 1
 159 160 l 1
 279 360 l 1
 319 360 l 1
 319 280 l 1
 199 80 l 1x08
319 440 m 1
 319 720 l 1
 359 760 l 1x28
 399 720 l 1
 399 440 l 1
 359 400 l 1
 319 440 l 1
319 80 m 1
 319 360 l 1
 359 400 l 1
 399 360 l 1
 399 80 l 1
 359 40 l 1x88
 319 80 l 1
EndSplineSet
Validated: 5
EndChar

StartChar: uni16C7
Encoding: 5831 5831 350
Width: 718
VWidth: 0
Flags: W
HStem: 40 21G<99 139> 40 21G<99 139> 700 20G<507 559 579 619> 740 20G<579 619>
VStem: 79 80<160 360> 559 80<440 720>
LayerCount: 2
Fore
SplineSet
519 720 m 1x3c
 559 720 l 1
 559 640 l 1
 439 440 l 1
 399 440 l 1
 399 520 l 1
 519 720 l 1x3c
199 80 m 1
 159 80 l 1
 159 160 l 1
 279 360 l 1
 319 360 l 1
 319 280 l 1
 199 80 l 1
79 80 m 1
 79 360 l 1
 119 400 l 1
 159 360 l 1
 159 80 l 1
 119 40 l 1xbc
 79 80 l 1
559 440 m 1
 559 720 l 1
 599 760 l 1
 639 720 l 1
 639 440 l 1
 599 400 l 1
 559 440 l 1
EndSplineSet
Validated: 5
EndChar

StartChar: uni16C8
Encoding: 5832 5832 351
Width: 718
VWidth: 0
Flags: W
HStem: 40 21G<99 139> 40 21G<99 139> 700 20G<99 139 159 211 507 559> 740 20G<99 139>
VStem: 79 80<160 360 440 640>
LayerCount: 2
Fore
SplineSet
199 720 m 1x38
 319 520 l 1
 319 440 l 1
 279 440 l 1
 159 640 l 1
 159 720 l 1
 199 720 l 1x38
519 720 m 1
 559 720 l 1
 559 640 l 1
 439 440 l 1
 399 440 l 1
 399 520 l 1
 519 720 l 1
519 80 m 1
 399 280 l 1
 399 360 l 1
 439 360 l 1
 559 160 l 1
 559 80 l 1
 519 80 l 1
199 80 m 1
 159 80 l 1
 159 160 l 1
 279 360 l 1
 319 360 l 1
 319 280 l 1
 199 80 l 1
79 440 m 1
 79 720 l 1
 119 760 l 1
 159 720 l 1
 159 440 l 1
 119 400 l 1
 79 440 l 1
79 80 m 1
 79 360 l 1
 119 400 l 1
 159 360 l 1
 159 80 l 1
 119 40 l 1xb8
 79 80 l 1
EndSplineSet
Validated: 5
EndChar

StartChar: uni16C9
Encoding: 5833 5833 352
Width: 718
VWidth: 0
Flags: W
HStem: 40 21G<339 379> 40 21G<339 379> 700 20G<159 211 339 379 507 559> 740 20G<339 379>
VStem: 319 80<80 360 520 720>
LayerCount: 2
Fore
SplineSet
199 720 m 1x38
 319 520 l 1
 319 440 l 1
 279 440 l 1
 159 640 l 1
 159 720 l 1
 199 720 l 1x38
519 720 m 1
 559 720 l 1
 559 640 l 1
 439 440 l 1
 399 440 l 1
 399 520 l 1
 519 720 l 1
319 440 m 1
 319 720 l 1
 359 760 l 1
 399 720 l 1
 399 440 l 1
 359 400 l 1
 319 440 l 1
319 80 m 1
 319 360 l 1
 359 400 l 1
 399 360 l 1
 399 80 l 1
 359 40 l 1xb8
 319 80 l 1
EndSplineSet
Validated: 5
EndChar

StartChar: uni16CD
Encoding: 5837 5837 356
Width: 718
VWidth: 0
Flags: W
HStem: 0 80<159 319 399 559> 40 21G<99 139 579 619> 40 21G<99 139 579 619> 360 80<159 319 399 559> 740 20G<339 379> 740 20G<339 379>
VStem: 79 80<80 360> 319 80<440 720> 559 80<80 360>
CounterMasks: 1 0380
LayerCount: 2
Fore
SplineSet
399 80 m 1x9380
 451 80 507 80 559 80 c 1x9380
 599 40 l 1x5380
 559 0 l 1
 159 0 l 1x9380
 119 40 l 1x5380
 159 80 l 1
 319 80 l 1x9380
 359 40 l 1x3380
 399 80 l 1x9380
319 440 m 1
 319 720 l 1
 359 760 l 1x1b80
 399 720 l 1
 399 440 l 1
 359 400 l 1
 319 440 l 1
79 80 m 1x9380
 79 360 l 1
 119 400 l 1
 159 360 l 1
 159 80 l 1x9380
 119 40 l 1x5380
 79 80 l 1x9380
559 80 m 1
 559 360 l 1
 599 400 l 1
 639 360 l 1
 639 80 l 1x9380
 599 40 l 1x5380
 559 80 l 1
159 440 m 1
 319 440 l 1
 359 400 l 1
 319 360 l 1
 159 360 l 1
 119 400 l 1
 159 440 l 1
399 440 m 1
 559 440 l 1
 599 400 l 1
 559 360 l 1
 399 360 l 1
 359 400 l 1
 399 440 l 1
EndSplineSet
Validated: 5
EndChar

StartChar: uni16CF
Encoding: 5839 5839 358
Width: 718
VWidth: 0
Flags: W
HStem: 40 21G<339 379> 40 21G<339 379>
VStem: 319 80<80 280>
LayerCount: 2
Fore
SplineSet
519 80 m 1x20
 399 280 l 1
 399 360 l 1
 439 360 l 1
 559 160 l 1
 559 80 l 1
 519 80 l 1x20
199 80 m 1
 159 80 l 1
 159 160 l 1
 279 360 l 1
 319 360 l 1
 319 280 l 1
 199 80 l 1
319 80 m 1
 319 360 l 1
 359 400 l 1
 399 360 l 1
 399 80 l 1
 359 40 l 1xa0
 319 80 l 1
EndSplineSet
Validated: 5
EndChar

StartChar: uni16D0
Encoding: 5840 5840 359
Width: 718
VWidth: 0
Flags: W
HStem: 40 21G<579 619> 40 21G<579 619> 720 80<159 319 399 559> 740 20G<579 619> 740 20G<579 619>
VStem: 559 80<80 360 440 720>
LayerCount: 2
Fore
SplineSet
159 720 m 1
 199 720 l 1025x24
519 720 m 1
 559 720 l 1
 559 640 l 1025
319 720 m 1x24
 359 760 l 1x0c
 399 720 l 1025
559 440 m 1
 559 720 l 1x24
 599 760 l 1x14
 639 720 l 1
 639 440 l 1
 599 400 l 1
 559 440 l 1
559 80 m 1
 559 360 l 1
 599 400 l 1
 639 360 l 1
 639 80 l 1
 599 40 l 1x84
 559 80 l 1
559 440 m 1
 599 400 l 1
 559 360 l 1025
559 800 m 1x24
 599 760 l 1x14
 559 720 l 1
 399 720 l 1x24
 359 760 l 1x0c
 319 720 l 1
 159 720 l 1x24
 119 760 l 1x0c
 159 800 l 1
 559 800 l 1x24
EndSplineSet
Validated: 3
EndChar

StartChar: uni16D1
Encoding: 5841 5841 360
Width: 718
VWidth: 0
Flags: W
HStem: 0 80<159 319 399 559> 40 21G<99 139 339 379 579 619> 40 21G<99 139 339 379 579 619> 700 60G<99 139 159 211 339 379 579 619> 720 80<159 319 399 559> 740 20G<99 139 339 379 579 619>
VStem: 79 80<80 360 440 640> 319 80<80 360 440 720> 559 80<80 360 440 720>
CounterMasks: 1 0380
LayerCount: 2
Fore
SplineSet
399 80 m 1x8380
 451 80 507 80 559 80 c 1x8380
 599 40 l 1x4380
 559 0 l 1
 159 0 l 1x8380
 119 40 l 1x4380
 159 80 l 1
 319 80 l 1x8380
 359 40 l 1x4380
 399 80 l 1x8380
199 720 m 1x0b80
 319 520 l 1
 319 440 l 1
 279 440 l 1
 159 640 l 1
 159 720 l 1
 199 720 l 1x0b80
319 440 m 1
 319 720 l 1x0b80
 359 760 l 1x1380
 399 720 l 1
 399 440 l 1
 359 400 l 1
 319 440 l 1
319 80 m 1x8380
 319 360 l 1
 359 400 l 1
 399 360 l 1
 399 80 l 1x8380
 359 40 l 1x4380
 319 80 l 1x8380
79 440 m 1
 79 720 l 1x0b80
 119 760 l 1x1380
 159 720 l 1x0b80
 159 440 l 1
 119 400 l 1
 79 440 l 1
79 80 m 1x8380
 79 360 l 1
 119 400 l 1
 159 360 l 1
 159 80 l 1x8380
 119 40 l 1x4380
 79 80 l 1x8380
559 440 m 1
 559 720 l 1x0b80
 599 760 l 1x1380
 639 720 l 1x0b80
 639 440 l 1
 599 400 l 1
 559 440 l 1
559 80 m 1x8380
 559 360 l 1
 599 400 l 1
 639 360 l 1
 639 80 l 1x8380
 599 40 l 1x4380
 559 80 l 1x8380
559 800 m 1x0b80
 599 760 l 1x1380
 559 720 l 1
 399 720 l 1x0b80
 359 760 l 1x1380
 319 720 l 1
 159 720 l 1x0b80
 119 760 l 1x1380
 159 800 l 1
 559 800 l 1x0b80
EndSplineSet
Validated: 5
EndChar

StartChar: uni16D3
Encoding: 5843 5843 362
Width: 718
VWidth: 0
Flags: W
HStem: 40 21G<339 379> 40 21G<339 379> 700 20G<339 379 507 559> 740 20G<339 379>
VStem: 319 80<80 360 520 720>
LayerCount: 2
Fore
SplineSet
519 720 m 1x38
 559 720 l 1
 559 640 l 1
 439 440 l 1
 399 440 l 1
 399 520 l 1
 519 720 l 1x38
319 440 m 1
 319 720 l 1
 359 760 l 1
 399 720 l 1
 399 440 l 1
 359 400 l 1
 319 440 l 1
319 80 m 1
 319 360 l 1
 359 400 l 1
 399 360 l 1
 399 80 l 1
 359 40 l 1xb8
 319 80 l 1
EndSplineSet
Validated: 5
EndChar

StartChar: uni16D7
Encoding: 5847 5847 366
Width: 718
VWidth: 0
Flags: W
HStem: 40 21G<99 139 99 139 579 619 579 619> 700 20G<99 139 159 211 507 559 579 619> 740 20G<99 139 579 619>
VStem: 79 80<80 360 440 640> 559 80<80 360 440 720>
LayerCount: 2
Fore
SplineSet
519 80 m 1
 399 280 l 1
 399 360 l 1
 439 360 l 1
 559 160 l 1
 559 80 l 1
 519 80 l 1
199 80 m 1
 159 80 l 1
 159 160 l 1
 279 360 l 1
 319 360 l 1
 319 280 l 1
 199 80 l 1
EndSplineSet
Refer: 23 77 N 1 0 0 1 0 0 2
Validated: 5
EndChar

StartChar: uni16D9
Encoding: 5849 5849 368
Width: 718
VWidth: 0
Flags: W
HStem: 40 21G<339 379> 40 21G<339 379> 360 80<159 319 399 559> 720 80<159 319 399 559> 740 20G<99 139 579 619> 740 20G<99 139 579 619>
VStem: 79 80<440 720> 319 80<80 360> 559 80<440 720>
CounterMasks: 1 0380
LayerCount: 2
Fore
SplineSet
319 80 m 1xa380
 319 360 l 1
 359 400 l 1
 399 360 l 1
 399 80 l 1
 359 40 l 1
 319 80 l 1xa380
79 440 m 1
 79 720 l 1x3380
 119 760 l 1x2b80
 159 720 l 1x3380
 159 440 l 1
 119 400 l 1
 79 440 l 1
559 440 m 1
 559 720 l 1x3380
 599 760 l 1x2b80
 639 720 l 1
 639 440 l 1
 599 400 l 1
 559 440 l 1
159 440 m 1
 319 440 l 1
 359 400 l 1
 319 360 l 1
 159 360 l 1
 119 400 l 1
 159 440 l 1
399 440 m 1
 559 440 l 1
 599 400 l 1
 559 360 l 1
 399 360 l 1
 359 400 l 1
 399 440 l 1
559 800 m 1
 599 760 l 1x2b80
 559 720 l 1
 399 720 l 1x3380
 359 760 l 1x2780
 319 720 l 1
 159 720 l 1x3380
 119 760 l 1x2b80
 159 800 l 1
 559 800 l 1
EndSplineSet
Validated: 5
EndChar

StartChar: uni16DF
Encoding: 5855 5855 374
Width: 718
VWidth: 0
Flags: W
HStem: 700 20G<159 211 507 559> 720 80<159 319 399 559>
LayerCount: 2
Fore
SplineSet
199 720 m 1x80
 319 520 l 1
 319 440 l 1
 279 440 l 1
 159 640 l 1
 159 720 l 1
 199 720 l 1x80
519 720 m 1
 559 720 l 1
 559 640 l 1
 439 440 l 1
 399 440 l 1
 399 520 l 1
 519 720 l 1
519 80 m 1
 399 280 l 1
 399 360 l 1
 439 360 l 1
 559 160 l 1
 559 80 l 1
 519 80 l 1
199 80 m 1
 159 80 l 1
 159 160 l 1
 279 360 l 1
 319 360 l 1
 319 280 l 1
 199 80 l 1
559 800 m 1x40
 599 760 l 1
 559 720 l 1x80
 399 720 l 1
 359 760 l 1
 319 720 l 1x40
 159 720 l 1x80
 119 760 l 1
 159 800 l 1
 559 800 l 1x40
EndSplineSet
Validated: 5
EndChar

StartChar: uni16E3
Encoding: 5859 5859 378
Width: 718
VWidth: 0
Flags: W
HStem: 40 21G<339 379> 40 21G<339 379> 740 20G<339 379> 740 20G<339 379>
VStem: 319 80<80 280 440 720>
LayerCount: 2
Fore
SplineSet
319 440 m 1x28
 319 720 l 1
 359 760 l 1
 399 720 l 1
 399 440 l 1
 359 400 l 1
 319 440 l 1x28
519 80 m 1
 399 280 l 1
 399 360 l 1
 439 360 l 1
 559 160 l 1
 559 80 l 1
 519 80 l 1
199 80 m 1
 159 80 l 1
 159 160 l 1
 279 360 l 1
 319 360 l 1
 319 280 l 1
 199 80 l 1
319 80 m 1
 319 360 l 1
 359 400 l 1
 399 360 l 1
 399 80 l 1
 359 40 l 1x88
 319 80 l 1
EndSplineSet
Validated: 5
EndChar

StartChar: uni16E4
Encoding: 5860 5860 379
Width: 718
VWidth: 0
Flags: W
HStem: 0 80<159 319 399 559> 40 21G<99 139 339 379 579 619> 40 21G<99 139 339 379 579 619> 360 80<159 279 439 559> 700 20G<99 139 159 211 339 379 507 559 579 619> 720 80<159 319 399 559> 740 20G<99 139 339 379 579 619>
VStem: 79 80<160 360 440 640> 319 80<80 280 520 720> 559 80<80 360 440 720>
CounterMasks: 1 01c0
LayerCount: 2
Fore
SplineSet
399 80 m 1x91c0
 451 80 507 80 559 80 c 1x91c0
 599 40 l 1x51c0
 559 0 l 1
 159 0 l 1x91c0
 119 40 l 1x51c0
 159 80 l 1
 319 80 l 1x91c0
 359 40 l 1x51c0
 399 80 l 1x91c0
199 720 m 1x19c0
 319 520 l 1
 319 440 l 1
 279 440 l 1
 159 640 l 1
 159 720 l 1
 199 720 l 1x19c0
519 720 m 1
 559 720 l 1
 559 640 l 1
 439 440 l 1
 399 440 l 1
 399 520 l 1
 519 720 l 1
319 440 m 1
 319 720 l 1x15c0
 359 760 l 1x13c0
 399 720 l 1x15c0
 399 440 l 1
 359 400 l 1
 319 440 l 1
519 80 m 1x91c0
 399 280 l 1
 399 360 l 1
 439 360 l 1
 559 160 l 1
 559 80 l 1
 519 80 l 1x91c0
199 80 m 1
 159 80 l 1
 159 160 l 1
 279 360 l 1
 319 360 l 1
 319 280 l 1
 199 80 l 1
319 80 m 1
 319 360 l 1
 359 400 l 1
 399 360 l 1
 399 80 l 1x91c0
 359 40 l 1x51c0
 319 80 l 1
79 440 m 1
 79 720 l 1x15c0
 119 760 l 1
 159 720 l 1x1bc0
 159 440 l 1
 119 400 l 1
 79 440 l 1
79 80 m 1x91c0
 79 360 l 1
 119 400 l 1
 159 360 l 1
 159 80 l 1x91c0
 119 40 l 1x51c0
 79 80 l 1x91c0
559 440 m 1
 559 720 l 1
 599 760 l 1x1bc0
 639 720 l 1x15c0
 639 440 l 1
 599 400 l 1
 559 440 l 1
559 80 m 1x91c0
 559 360 l 1
 599 400 l 1
 639 360 l 1
 639 80 l 1x91c0
 599 40 l 1x51c0
 559 80 l 1x91c0
159 440 m 1
 319 440 l 1
 359 400 l 1
 319 360 l 1
 159 360 l 1
 119 400 l 1
 159 440 l 1
399 440 m 1
 559 440 l 1
 599 400 l 1
 559 360 l 1
 399 360 l 1
 359 400 l 1
 399 440 l 1
559 800 m 1x15c0
 599 760 l 1
 559 720 l 1x1bc0
 399 720 l 1x15c0
 359 760 l 1x13c0
 319 720 l 1x15c0
 159 720 l 1
 119 760 l 1x1bc0
 159 800 l 1
 559 800 l 1x15c0
EndSplineSet
Validated: 5
EndChar

StartChar: uni16E9
Encoding: 5865 5865 384
Width: 718
VWidth: 0
Flags: W
HStem: 40 21G<579 619> 40 21G<579 619> 360 80<159 319 399 559> 720 80<159 319 399 559> 740 20G<99 139 579 619> 740 20G<99 139 579 619>
VStem: 79 80<440 720> 559 80<80 360 440 720>
LayerCount: 2
Fore
SplineSet
79 440 m 1x33
 79 720 l 1x33
 119 760 l 1x2b
 159 720 l 1
 159 440 l 1
 119 400 l 1
 79 440 l 1x33
559 440 m 1
 559 720 l 1x33
 599 760 l 1x2b
 639 720 l 1
 639 440 l 1
 599 400 l 1
 559 440 l 1
559 80 m 1
 559 360 l 1
 599 400 l 1
 639 360 l 1
 639 80 l 1
 599 40 l 1xa3
 559 80 l 1
159 440 m 1
 319 440 l 1
 359 400 l 1
 319 360 l 1
 159 360 l 1
 119 400 l 1
 159 440 l 1
399 440 m 1
 559 440 l 1
 599 400 l 1
 559 360 l 1
 399 360 l 1
 359 400 l 1
 399 440 l 1
559 800 m 1x33
 599 760 l 1x2b
 559 720 l 1
 399 720 l 1x33
 359 760 l 1x27
 319 720 l 1
 159 720 l 1x33
 119 760 l 1x2b
 159 800 l 1
 559 800 l 1x33
EndSplineSet
Validated: 5
EndChar

StartChar: uni16EF
Encoding: 5871 5871 388
Width: 718
VWidth: 0
Flags: W
HStem: 40 21G<339 379> 40 21G<339 379> 700 20G<159 211 339 379 507 559> 740 20G<339 379>
VStem: 319 80<80 280 520 720>
LayerCount: 2
Fore
SplineSet
199 720 m 1x38
 319 520 l 1
 319 440 l 1
 279 440 l 1
 159 640 l 1
 159 720 l 1
 199 720 l 1x38
519 720 m 1
 559 720 l 1
 559 640 l 1
 439 440 l 1
 399 440 l 1
 399 520 l 1
 519 720 l 1
319 440 m 1
 319 720 l 1
 359 760 l 1
 399 720 l 1
 399 440 l 1
 359 400 l 1
 319 440 l 1
519 80 m 1
 399 280 l 1
 399 360 l 1
 439 360 l 1
 559 160 l 1
 559 80 l 1
 519 80 l 1
199 80 m 1
 159 80 l 1
 159 160 l 1
 279 360 l 1
 319 360 l 1
 319 280 l 1
 199 80 l 1
319 80 m 1
 319 360 l 1
 359 400 l 1
 399 360 l 1
 399 80 l 1
 359 40 l 1xb8
 319 80 l 1
EndSplineSet
Validated: 5
EndChar

StartChar: uni16F4
Encoding: 5876 5876 393
Width: 718
VWidth: 0
Flags: W
HStem: 40 21G<99 139 579 619> 40 21G<99 139 579 619> 700 20G<99 139 507 559 579 619> 740 20G<99 139 579 619>
VStem: 79 80<160 360 440 720> 559 80<80 360 440 720>
LayerCount: 2
Fore
SplineSet
519 720 m 1x3c
 559 720 l 1
 559 640 l 1
 439 440 l 1
 399 440 l 1
 399 520 l 1
 519 720 l 1x3c
199 80 m 1
 159 80 l 1
 159 160 l 1
 279 360 l 1
 319 360 l 1
 319 280 l 1
 199 80 l 1
79 440 m 1
 79 720 l 1
 119 760 l 1
 159 720 l 1
 159 440 l 1
 119 400 l 1
 79 440 l 1
79 80 m 1
 79 360 l 1
 119 400 l 1
 159 360 l 1
 159 80 l 1
 119 40 l 1xbc
 79 80 l 1
559 440 m 1
 559 720 l 1
 599 760 l 1
 639 720 l 1
 639 440 l 1
 599 400 l 1
 559 440 l 1
559 80 m 1
 559 360 l 1
 599 400 l 1
 639 360 l 1
 639 80 l 1
 599 40 l 1
 559 80 l 1
EndSplineSet
Validated: 5
EndChar

StartChar: uni16F6
Encoding: 5878 5878 395
Width: 718
VWidth: 0
Flags: W
HStem: 700 20G<159 211 507 559>
LayerCount: 2
Fore
SplineSet
199 720 m 1
 319 520 l 1
 319 440 l 1
 279 440 l 1
 159 640 l 1
 159 720 l 1
 199 720 l 1
519 720 m 1
 559 720 l 1
 559 640 l 1
 439 440 l 1
 399 440 l 1
 399 520 l 1
 519 720 l 1
519 80 m 1
 399 280 l 1
 399 360 l 1
 439 360 l 1
 559 160 l 1
 559 80 l 1
 519 80 l 1
199 80 m 1
 159 80 l 1
 159 160 l 1
 279 360 l 1
 319 360 l 1
 319 280 l 1
 199 80 l 1
EndSplineSet
Validated: 1
EndChar

StartChar: uni16F7
Encoding: 5879 5879 396
Width: 718
VWidth: 0
Flags: W
HStem: 40 21G<99 139 579 619> 40 21G<99 139 579 619> 360 80<159 319 399 559> 740 20G<99 139> 740 20G<99 139>
VStem: 79 80<80 360 440 720> 559 80<80 360>
LayerCount: 2
Fore
SplineSet
79 440 m 1x36
 79 720 l 1
 119 760 l 1
 159 720 l 1
 159 440 l 1
 119 400 l 1
 79 440 l 1x36
79 80 m 1
 79 360 l 1
 119 400 l 1
 159 360 l 1
 159 80 l 1
 119 40 l 1xa6
 79 80 l 1
559 80 m 1
 559 360 l 1
 599 400 l 1
 639 360 l 1
 639 80 l 1
 599 40 l 1
 559 80 l 1
159 440 m 1
 319 440 l 1
 359 400 l 1
 319 360 l 1
 159 360 l 1
 119 400 l 1
 159 440 l 1
399 440 m 1
 559 440 l 1
 599 400 l 1
 559 360 l 1
 399 360 l 1
 359 400 l 1
 399 440 l 1
EndSplineSet
Validated: 5
EndChar

StartChar: uni16F8
Encoding: 5880 5880 397
Width: 718
VWidth: 0
Flags: W
HStem: 740 20G<339 379> 740 20G<339 379>
VStem: 319 80<440 720>
LayerCount: 2
Fore
SplineSet
319 440 m 1xa0
 319 720 l 1
 359 760 l 1
 399 720 l 1
 399 440 l 1
 359 400 l 1
 319 440 l 1xa0
519 80 m 1
 399 280 l 1
 399 360 l 1
 439 360 l 1
 559 160 l 1
 559 80 l 1
 519 80 l 1
199 80 m 1
 159 80 l 1
 159 160 l 1
 279 360 l 1
 319 360 l 1
 319 280 l 1
 199 80 l 1
EndSplineSet
Validated: 1
EndChar

StartChar: uni0402
Encoding: 1026 1026 400
Width: 718
VWidth: 0
Flags: W
HStem: 40 21G<339 379 579 619> 40 21G<339 379 579 619> 360 80<399 559> 720 80<159 319 399 559> 740 20G<339 379> 740 20G<339 379>
VStem: 319 80<80 280 440 720> 559 80<80 360>
LayerCount: 2
Fore
SplineSet
519 80 m 5x23
 399 280 l 5
 399 360 l 5
 439 360 l 5
 559 160 l 5
 559 80 l 5
 519 80 l 5x23
319 440 m 1
 319 720 l 1x33
 359 760 l 1x2b
 399 720 l 1x33
 399 440 l 1
 359 400 l 1
 319 440 l 1
319 80 m 1
 319 360 l 1
 359 400 l 1
 399 360 l 1
 399 80 l 1
 359 40 l 1xa3
 319 80 l 1
559 80 m 1
 559 360 l 1
 599 400 l 1
 639 360 l 1
 639 80 l 1
 599 40 l 1
 559 80 l 1
399 440 m 1
 559 440 l 1
 599 400 l 1
 559 360 l 1
 399 360 l 1
 359 400 l 1
 399 440 l 1
559 800 m 1x33
 599 760 l 1x27
 559 720 l 1
 399 720 l 1x33
 359 760 l 1x2b
 319 720 l 1
 159 720 l 1x33
 119 760 l 1x27
 159 800 l 1
 559 800 l 1x33
EndSplineSet
Validated: 5
EndChar

StartChar: uni0404
Encoding: 1028 1028 402
Width: 718
VWidth: 0
Flags: W
HStem: 0 80<159 319 399 559> 40 21G<99 139> 40 21G<99 139> 360 80<159 319> 720 80<159 319 399 559> 740 20G<99 139> 740 20G<99 139>
VStem: 79 80<80 360 440 720>
LayerCount: 2
Fore
SplineSet
399 80 m 1x91
 451 80 507 80 559 80 c 1x91
 599 40 l 1x31
 559 0 l 1
 159 0 l 1x91
 119 40 l 1x51
 159 80 l 1
 319 80 l 1x91
 359 40 l 1x31
 399 80 l 1x91
79 440 m 1
 79 720 l 1x19
 119 760 l 1x15
 159 720 l 1x19
 159 440 l 1
 119 400 l 1
 79 440 l 1
79 80 m 1x91
 79 360 l 1
 119 400 l 1
 159 360 l 1
 159 80 l 1x91
 119 40 l 1x51
 79 80 l 1x91
159 440 m 1
 319 440 l 1
 359 400 l 1
 319 360 l 1
 159 360 l 1
 119 400 l 1
 159 440 l 1
559 800 m 1x19
 599 760 l 1x13
 559 720 l 1
 399 720 l 1x19
 359 760 l 1x13
 319 720 l 1
 159 720 l 1x19
 119 760 l 1x15
 159 800 l 1
 559 800 l 1x19
EndSplineSet
Validated: 5
EndChar

StartChar: uni0408
Encoding: 1032 1032 406
Width: 718
VWidth: 0
Flags: W
HStem: 40 21G<339 379 339 379> 740 20G<339 379 339 379>
VStem: 319 80<80 360 440 720>
LayerCount: 2
Fore
SplineSet
199 80 m 1
 159 80 l 1
 159 160 l 1
 279 360 l 1
 319 360 l 1
 319 280 l 1
 199 80 l 1
EndSplineSet
Refer: 94 124 N 1 0 0 1 0 0 2
Validated: 5
EndChar

StartChar: uni0409
Encoding: 1033 1033 407
Width: 718
VWidth: 0
Flags: W
HStem: 40 21G<99 139 579 619> 40 21G<99 139 579 619> 360 80<399 559> 700 20G<99 139 159 211 339 379> 740 20G<99 139 339 379>
VStem: 79 80<80 360 440 640> 319 80<440 720> 559 80<80 360>
CounterMasks: 1 07
LayerCount: 2
Fore
SplineSet
199 720 m 1x3f
 319 520 l 1
 319 440 l 1
 279 440 l 1
 159 640 l 1
 159 720 l 1
 199 720 l 1x3f
319 440 m 1
 319 720 l 1
 359 760 l 1
 399 720 l 1
 399 440 l 1
 359 400 l 1
 319 440 l 1
519 80 m 1
 399 280 l 1
 399 360 l 1
 439 360 l 1
 559 160 l 1
 559 80 l 1
 519 80 l 1
79 440 m 1
 79 720 l 1
 119 760 l 1
 159 720 l 1
 159 440 l 1
 119 400 l 1
 79 440 l 1
79 80 m 1
 79 360 l 1
 119 400 l 1
 159 360 l 1
 159 80 l 1
 119 40 l 1xbf
 79 80 l 1
559 80 m 1
 559 360 l 1
 599 400 l 1
 639 360 l 1
 639 80 l 1
 599 40 l 1
 559 80 l 1
399 440 m 1
 559 440 l 1
 599 400 l 1
 559 360 l 1
 399 360 l 1
 359 400 l 1
 399 440 l 1
EndSplineSet
Validated: 5
EndChar

StartChar: uni040A
Encoding: 1034 1034 408
Width: 718
VWidth: 0
Flags: W
HStem: 40 21G<99 139 339 379 579 619> 40 21G<99 139 339 379 579 619> 360 80<159 319 399 559> 740 20G<99 139 339 379> 740 20G<99 139 339 379>
VStem: 79 80<80 360 440 720> 319 80<80 280 440 720> 559 80<80 360>
CounterMasks: 1 07
LayerCount: 2
Fore
SplineSet
319 440 m 1x37
 319 720 l 1
 359 760 l 1
 399 720 l 1
 399 440 l 1
 359 400 l 1
 319 440 l 1x37
519 80 m 1
 399 280 l 1
 399 360 l 1
 439 360 l 1
 559 160 l 1
 559 80 l 1
 519 80 l 1
319 80 m 1
 319 360 l 1
 359 400 l 1
 399 360 l 1
 399 80 l 1
 359 40 l 1xa7
 319 80 l 1
79 440 m 1
 79 720 l 1
 119 760 l 1x37
 159 720 l 1
 159 440 l 1
 119 400 l 1
 79 440 l 1
79 80 m 1
 79 360 l 1
 119 400 l 1
 159 360 l 1
 159 80 l 1
 119 40 l 1xa7
 79 80 l 1
559 80 m 1
 559 360 l 1
 599 400 l 1
 639 360 l 1
 639 80 l 1
 599 40 l 1
 559 80 l 1
159 440 m 1
 319 440 l 1
 359 400 l 1
 319 360 l 1
 159 360 l 1
 119 400 l 1
 159 440 l 1
399 440 m 1
 559 440 l 1
 599 400 l 1
 559 360 l 1
 399 360 l 1
 359 400 l 1
 399 440 l 1
EndSplineSet
Validated: 5
EndChar

StartChar: uni040B
Encoding: 1035 1035 409
Width: 718
VWidth: 0
Flags: W
HStem: 40 21G<339 379 579 619> 40 21G<339 379 579 619> 360 80<399 559> 720 80<159 319 399 559> 740 20G<339 379> 740 20G<339 379>
VStem: 319 80<80 360 440 720> 559 80<80 360>
LayerCount: 2
Fore
SplineSet
319 440 m 1x33
 319 720 l 1x33
 359 760 l 1x2b
 399 720 l 1
 399 440 l 1
 359 400 l 1
 319 440 l 1x33
319 80 m 1
 319 360 l 1
 359 400 l 1
 399 360 l 1
 399 80 l 1
 359 40 l 1xa3
 319 80 l 1
559 80 m 1
 559 360 l 1
 599 400 l 1
 639 360 l 1
 639 80 l 1
 599 40 l 1
 559 80 l 1
399 440 m 1
 559 440 l 1
 599 400 l 1
 559 360 l 1
 399 360 l 1
 359 400 l 1
 399 440 l 1
559 800 m 1x33
 599 760 l 1x27
 559 720 l 1
 399 720 l 1x33
 359 760 l 1x2b
 319 720 l 1
 159 720 l 1x33
 119 760 l 1x27
 159 800 l 1
 559 800 l 1x33
EndSplineSet
Validated: 5
EndChar

StartChar: uni040E
Encoding: 1038 1038 412
Width: 718
VWidth: 0
Flags: W
HStem: 700 20G<159 211 507 559> 816 178
VStem: 199 320
LayerCount: 2
Fore
SplineSet
199 720 m 1
 319 520 l 1
 319 440 l 1
 279 440 l 1
 159 640 l 1
 159 720 l 1
 199 720 l 1
519 720 m 1
 559 720 l 1
 559 640 l 1
 439 440 l 1
 399 440 l 1
 399 520 l 1
 519 720 l 1
199 80 m 1
 159 80 l 1
 159 160 l 1
 279 360 l 1
 319 360 l 1
 319 280 l 1
 199 80 l 1
EndSplineSet
Refer: 226 710 S 1 0 0 1 0 0 2
Validated: 5
EndChar

StartChar: uni040F
Encoding: 1039 1039 413
Width: 718
VWidth: 0
Flags: W
HStem: 40 21G<339 379> 40 21G<339 379> 360 80<159 319 399 559> 740 20G<99 139 579 619> 740 20G<99 139 579 619>
VStem: 79 80<440 720> 319 80<80 360> 559 80<440 720>
CounterMasks: 1 07
LayerCount: 2
Fore
SplineSet
319 80 m 1xa7
 319 360 l 1
 359 400 l 1
 399 360 l 1
 399 80 l 1
 359 40 l 1
 319 80 l 1xa7
79 440 m 1
 79 720 l 1
 119 760 l 1x37
 159 720 l 1
 159 440 l 1
 119 400 l 1
 79 440 l 1
559 440 m 1
 559 720 l 1
 599 760 l 1
 639 720 l 1
 639 440 l 1
 599 400 l 1
 559 440 l 1
159 440 m 1
 319 440 l 1
 359 400 l 1
 319 360 l 1
 159 360 l 1
 119 400 l 1
 159 440 l 1
399 440 m 1
 559 440 l 1
 599 400 l 1
 559 360 l 1
 399 360 l 1
 359 400 l 1
 399 440 l 1
EndSplineSet
Validated: 5
EndChar

StartChar: uni0411
Encoding: 1041 1041 415
Width: 718
VWidth: 0
Flags: W
HStem: 0 80<159 319 399 559> 40 21G<99 139 579 619> 40 21G<99 139 579 619> 360 80<159 319 399 559> 720 80<159 319 399 559> 740 20G<99 139> 740 20G<99 139>
VStem: 79 80<80 360 440 720> 559 80<80 360>
LayerCount: 2
Fore
SplineSet
399 80 m 1x9180
 451 80 507 80 559 80 c 1x9180
 599 40 l 1x5180
 559 0 l 1
 159 0 l 1x9180
 119 40 l 1x5180
 159 80 l 1
 319 80 l 1x9180
 359 40 l 1x3180
 399 80 l 1x9180
79 440 m 1
 79 720 l 1x1980
 119 760 l 1x1580
 159 720 l 1x1980
 159 440 l 1
 119 400 l 1
 79 440 l 1
79 80 m 1x9180
 79 360 l 1
 119 400 l 1
 159 360 l 1
 159 80 l 1x9180
 119 40 l 1x5180
 79 80 l 1x9180
559 80 m 1
 559 360 l 1
 599 400 l 1
 639 360 l 1
 639 80 l 1x9180
 599 40 l 1x5180
 559 80 l 1
159 440 m 1
 319 440 l 1
 359 400 l 1
 319 360 l 1
 159 360 l 1
 119 400 l 1
 159 440 l 1
399 440 m 1
 559 440 l 1
 599 400 l 1
 559 360 l 1
 399 360 l 1
 359 400 l 1
 399 440 l 1
559 800 m 1x1980
 599 760 l 1x1380
 559 720 l 1
 399 720 l 1x1980
 359 760 l 1x1380
 319 720 l 1
 159 720 l 1x1980
 119 760 l 1x1580
 159 800 l 1
 559 800 l 1x1980
EndSplineSet
Validated: 5
EndChar

StartChar: uni0413
Encoding: 1043 1043 417
Width: 718
VWidth: 0
Flags: W
HStem: 40 21G<99 139> 40 21G<99 139> 720 80<159 319 399 559> 740 20G<99 139> 740 20G<99 139>
VStem: 79 80<80 360 440 720>
LayerCount: 2
Fore
SplineSet
159 640 m 1
 159 720 l 1
 199 720 l 1025x24
519 720 m 1
 559 720 l 1025
319 720 m 1x24
 359 760 l 1x0c
 399 720 l 1025
159 80 m 1
 159 160 l 1025
79 440 m 1
 79 720 l 1x24
 119 760 l 1x14
 159 720 l 1
 159 440 l 1
 119 400 l 1
 79 440 l 1
79 80 m 1
 79 360 l 1
 119 400 l 1
 159 360 l 1
 159 80 l 1
 119 40 l 1x84
 79 80 l 1
159 360 m 1
 119 400 l 1
 159 440 l 1025
559 800 m 1x24
 599 760 l 1x0c
 559 720 l 1
 399 720 l 1x24
 359 760 l 1x0c
 319 720 l 1
 159 720 l 1x24
 119 760 l 1x14
 159 800 l 1
 559 800 l 1x24
EndSplineSet
Validated: 11
EndChar

StartChar: uni0414
Encoding: 1044 1044 418
Width: 718
VWidth: 0
Flags: W
HStem: 40 21G<99 139 579 619> 40 21G<99 139 579 619> 360 80<159 319 439 559> 700 20G<507 559 579 619> 740 20G<579 619>
VStem: 79 80<80 360> 559 80<80 360 440 720>
LayerCount: 2
Fore
SplineSet
519 720 m 1x3e
 559 720 l 1
 559 640 l 1
 439 440 l 1
 399 440 l 1
 399 520 l 1
 519 720 l 1x3e
79 80 m 1
 79 360 l 1
 119 400 l 1
 159 360 l 1
 159 80 l 1
 119 40 l 1xbe
 79 80 l 1
559 440 m 1
 559 720 l 1
 599 760 l 1
 639 720 l 1
 639 440 l 1
 599 400 l 1
 559 440 l 1
559 80 m 1
 559 360 l 1
 599 400 l 1
 639 360 l 1
 639 80 l 1
 599 40 l 1
 559 80 l 1
159 440 m 1
 319 440 l 1
 359 400 l 1
 319 360 l 1
 159 360 l 1
 119 400 l 1
 159 440 l 1
399 440 m 1
 559 440 l 1
 599 400 l 1
 559 360 l 1
 399 360 l 1
 359 400 l 1
 399 440 l 1
EndSplineSet
Validated: 5
EndChar

StartChar: uni0416
Encoding: 1046 1046 420
Width: 718
VWidth: 0
Flags: W
HStem: 40 21G<339 379> 40 21G<339 379> 360 80<159 279 439 559> 700 20G<159 211 339 379 507 559> 740 20G<339 379>
VStem: 319 80<80 280 520 720>
LayerCount: 2
Fore
SplineSet
199 720 m 1x3c
 319 520 l 1
 319 440 l 1
 279 440 l 1
 159 640 l 1
 159 720 l 1
 199 720 l 1x3c
519 720 m 1
 559 720 l 1
 559 640 l 1
 439 440 l 1
 399 440 l 1
 399 520 l 1
 519 720 l 1
319 440 m 1
 319 720 l 1
 359 760 l 1
 399 720 l 1
 399 440 l 1
 359 400 l 1
 319 440 l 1
519 80 m 1
 399 280 l 1
 399 360 l 1
 439 360 l 1
 559 160 l 1
 559 80 l 1
 519 80 l 1
199 80 m 5
 159 80 l 5
 159 160 l 5
 279 360 l 5
 319 360 l 5
 319 280 l 5
 199 80 l 5
319 80 m 1
 319 360 l 1
 359 400 l 1
 399 360 l 1
 399 80 l 1
 359 40 l 1xbc
 319 80 l 1
159 440 m 1
 319 440 l 1
 359 400 l 1
 319 360 l 1
 159 360 l 1
 119 400 l 1
 159 440 l 1
399 440 m 1
 559 440 l 1
 599 400 l 1
 559 360 l 1
 399 360 l 1
 359 400 l 1
 399 440 l 1
EndSplineSet
Validated: 5
EndChar

StartChar: uni041B
Encoding: 1051 1051 425
Width: 718
VWidth: 0
Flags: W
HStem: 40 21G<579 619> 40 21G<579 619> 700 20G<159 211 579 619> 720 80<159 319 399 559> 740 20G<579 619>
VStem: 559 80<80 360 440 720>
LayerCount: 2
Fore
SplineSet
199 720 m 1x24
 319 520 l 1
 319 440 l 1
 279 440 l 1
 159 640 l 1
 159 720 l 1
 199 720 l 1x24
199 80 m 1
 159 80 l 1
 159 160 l 1
 279 360 l 1
 319 360 l 1
 319 280 l 1
 199 80 l 1
559 440 m 1
 559 720 l 1x14
 599 760 l 1x0c
 639 720 l 1x14
 639 440 l 1
 599 400 l 1
 559 440 l 1
559 80 m 1
 559 360 l 1
 599 400 l 1
 639 360 l 1
 639 80 l 1
 599 40 l 1x84
 559 80 l 1
559 800 m 1x14
 599 760 l 1x0c
 559 720 l 1
 399 720 l 1x14
 359 760 l 1x0c
 319 720 l 1x14
 159 720 l 1
 119 760 l 1x2c
 159 800 l 1
 559 800 l 1x14
EndSplineSet
Validated: 5
EndChar

StartChar: uni041F
Encoding: 1055 1055 429
Width: 718
VWidth: 0
Flags: W
HStem: 40 21G<99 139 579 619> 40 21G<99 139 579 619> 720 80<159 319 399 559> 740 20G<99 139 579 619> 740 20G<99 139 579 619>
VStem: 79 80<80 360 440 720> 559 80<80 360 440 720>
LayerCount: 2
Fore
SplineSet
79 440 m 1x26
 79 720 l 1x26
 119 760 l 1x16
 159 720 l 1
 159 440 l 1
 119 400 l 1
 79 440 l 1x26
79 80 m 1
 79 360 l 1
 119 400 l 1
 159 360 l 1
 159 80 l 1
 119 40 l 1x86
 79 80 l 1
559 440 m 1
 559 720 l 1x26
 599 760 l 1x16
 639 720 l 1x26
 639 440 l 1
 599 400 l 1
 559 440 l 1
559 80 m 1
 559 360 l 1
 599 400 l 1
 639 360 l 1
 639 80 l 1
 599 40 l 1x86
 559 80 l 1
559 800 m 1x26
 599 760 l 1x16
 559 720 l 1
 399 720 l 1x26
 359 760 l 1x0e
 319 720 l 1
 159 720 l 1x26
 119 760 l 1x16
 159 800 l 1
 559 800 l 1x26
EndSplineSet
Validated: 5
EndChar

StartChar: uni0423
Encoding: 1059 1059 433
Width: 718
VWidth: 0
Flags: W
HStem: 700 20G<159 211 507 559>
LayerCount: 2
Fore
SplineSet
199 720 m 5
 319 520 l 5
 319 440 l 5
 279 440 l 5
 159 640 l 5
 159 720 l 5
 199 720 l 5
519 720 m 1
 559 720 l 1
 559 640 l 1
 439 440 l 1
 399 440 l 1
 399 520 l 1
 519 720 l 1
199 80 m 1
 159 80 l 1
 159 160 l 1
 279 360 l 1
 319 360 l 1
 319 280 l 1
 199 80 l 1
EndSplineSet
Validated: 1
EndChar

StartChar: uni0424
Encoding: 1060 1060 434
Width: 718
VWidth: 0
Flags: W
HStem: 0 80<159 319 399 559> 40 21G<99 139 339 379 579 619> 40 21G<99 139 339 379 579 619> 720 80<159 319 399 559> 740 20G<99 139 339 379 579 619> 740 20G<99 139 339 379 579 619>
VStem: 79 80<80 360 440 720> 319 80<80 360 440 720> 559 80<80 360 440 720>
CounterMasks: 1 0380
LayerCount: 2
Fore
SplineSet
399 80 m 1x8380
 451 80 507 80 559 80 c 1x8380
 599 40 l 1x4380
 559 0 l 1
 159 0 l 1x8380
 119 40 l 1x4380
 159 80 l 1
 319 80 l 1x8380
 359 40 l 1x4380
 399 80 l 1x8380
319 440 m 1
 319 720 l 1x1380
 359 760 l 1x0b80
 399 720 l 1x1380
 399 440 l 1
 359 400 l 1
 319 440 l 1
319 80 m 1x8380
 319 360 l 1
 359 400 l 1
 399 360 l 1
 399 80 l 1x8380
 359 40 l 1x4380
 319 80 l 1x8380
79 440 m 1
 79 720 l 1x1380
 119 760 l 1x0b80
 159 720 l 1x1380
 159 440 l 1
 119 400 l 1
 79 440 l 1
79 80 m 1x8380
 79 360 l 1
 119 400 l 1
 159 360 l 1
 159 80 l 1x8380
 119 40 l 1x4380
 79 80 l 1x8380
559 440 m 1
 559 720 l 1x1380
 599 760 l 1x0b80
 639 720 l 1x1380
 639 440 l 1
 599 400 l 1
 559 440 l 1
559 80 m 1x8380
 559 360 l 1
 599 400 l 1
 639 360 l 1
 639 80 l 1x8380
 599 40 l 1x4380
 559 80 l 1x8380
559 800 m 1x1380
 599 760 l 1x0b80
 559 720 l 1
 399 720 l 1x1380
 359 760 l 1x0b80
 319 720 l 1
 159 720 l 1x1380
 119 760 l 1x0b80
 159 800 l 1
 559 800 l 1x1380
EndSplineSet
Validated: 5
EndChar

StartChar: uni0426
Encoding: 1062 1062 436
Width: 718
VWidth: 0
Flags: W
HStem: 360 80<159 319 399 559> 740 20G<99 139 579 619> 740 20G<99 139 579 619>
VStem: 79 80<440 720> 559 80<440 720>
LayerCount: 2
Fore
SplineSet
519 80 m 1x98
 399 280 l 1
 399 360 l 1
 439 360 l 1
 559 160 l 1
 559 80 l 1
 519 80 l 1x98
79 440 m 1
 79 720 l 1
 119 760 l 1xd8
 159 720 l 1
 159 440 l 1
 119 400 l 1
 79 440 l 1
559 440 m 1
 559 720 l 1
 599 760 l 1
 639 720 l 1
 639 440 l 1
 599 400 l 1
 559 440 l 1
159 440 m 1
 319 440 l 1
 359 400 l 1
 319 360 l 1
 159 360 l 1
 119 400 l 1
 159 440 l 1
399 440 m 1
 559 440 l 1
 599 400 l 1
 559 360 l 1
 399 360 l 1
 359 400 l 1
 399 440 l 1
EndSplineSet
Validated: 5
EndChar

StartChar: uni0427
Encoding: 1063 1063 437
Width: 718
VWidth: 0
Flags: W
HStem: 40 21G<579 619> 40 21G<579 619> 360 80<159 319 399 559> 740 20G<99 139 579 619> 740 20G<99 139 579 619>
VStem: 79 80<440 720> 559 80<80 360 440 720>
LayerCount: 2
Fore
SplineSet
79 440 m 1x36
 79 720 l 1
 119 760 l 1
 159 720 l 1
 159 440 l 1
 119 400 l 1
 79 440 l 1x36
559 440 m 1
 559 720 l 1
 599 760 l 1
 639 720 l 1
 639 440 l 1
 599 400 l 1
 559 440 l 1
559 80 m 5
 559 360 l 5
 599 400 l 5
 639 360 l 5
 639 80 l 5
 599 40 l 5xa6
 559 80 l 5
159 440 m 1
 319 440 l 1
 359 400 l 1
 319 360 l 1
 159 360 l 1
 119 400 l 1
 159 440 l 1
399 440 m 1
 559 440 l 1
 599 400 l 1
 559 360 l 1
 399 360 l 1
 359 400 l 1
 399 440 l 1
EndSplineSet
Validated: 5
EndChar

StartChar: uni0428
Encoding: 1064 1064 438
Width: 718
VWidth: 0
Flags: W
HStem: 0 80<159 319 399 559> 40 21G<99 139 339 379 579 619> 40 21G<99 139 339 379 579 619> 740 20G<99 139 339 379 579 619> 740 20G<99 139 339 379 579 619>
VStem: 79 80<80 360 440 720> 319 80<80 360 440 720> 559 80<80 360 440 720>
CounterMasks: 1 07
LayerCount: 2
Fore
SplineSet
399 80 m 1x87
 451 80 507 80 559 80 c 1x87
 599 40 l 1x47
 559 0 l 1
 159 0 l 1x87
 119 40 l 1x47
 159 80 l 1
 319 80 l 1x87
 359 40 l 1x47
 399 80 l 1x87
319 440 m 1
 319 720 l 1
 359 760 l 1x17
 399 720 l 1
 399 440 l 1
 359 400 l 1
 319 440 l 1
319 80 m 1x87
 319 360 l 1
 359 400 l 1
 399 360 l 1
 399 80 l 1x87
 359 40 l 1x47
 319 80 l 1x87
79 440 m 1
 79 720 l 1
 119 760 l 1x17
 159 720 l 1
 159 440 l 1
 119 400 l 1
 79 440 l 1
79 80 m 1x87
 79 360 l 1
 119 400 l 1
 159 360 l 1
 159 80 l 1x87
 119 40 l 1x47
 79 80 l 1x87
559 440 m 1
 559 720 l 1
 599 760 l 1x17
 639 720 l 1
 639 440 l 1
 599 400 l 1
 559 440 l 1
559 80 m 1x87
 559 360 l 1
 599 400 l 1
 639 360 l 1
 639 80 l 1x87
 599 40 l 1x47
 559 80 l 1x87
EndSplineSet
Validated: 5
EndChar

StartChar: uni0429
Encoding: 1065 1065 439
Width: 718
VWidth: 0
Flags: W
HStem: 0 80<159 319 399 519> 40 21G<99 139 339 379 579 619> 40 21G<99 139 339 379 579 619> 740 20G<99 139 339 379 579 619> 740 20G<99 139 339 379 579 619>
VStem: 79 80<80 360 440 720> 319 80<80 280 440 720> 559 80<80 360 440 720>
CounterMasks: 1 07
LayerCount: 2
Fore
SplineSet
519 80 m 5x87
 399 280 l 5
 399 360 l 5
 439 360 l 5
 559 160 l 5
 559 80 l 5
 519 80 l 5x87
399 80 m 1
 451 80 507 80 559 80 c 1x87
 599 40 l 1x47
 559 0 l 1
 159 0 l 1x87
 119 40 l 1x47
 159 80 l 1
 319 80 l 1x87
 359 40 l 1x47
 399 80 l 1
319 440 m 1
 319 720 l 1
 359 760 l 1x17
 399 720 l 1
 399 440 l 1
 359 400 l 1
 319 440 l 1
319 80 m 1x87
 319 360 l 1
 359 400 l 1
 399 360 l 1
 399 80 l 1x87
 359 40 l 1x47
 319 80 l 1x87
79 440 m 1
 79 720 l 1
 119 760 l 1x17
 159 720 l 1
 159 440 l 1
 119 400 l 1
 79 440 l 1
79 80 m 1x87
 79 360 l 1
 119 400 l 1
 159 360 l 1
 159 80 l 1x87
 119 40 l 1x47
 79 80 l 1x87
559 440 m 1
 559 720 l 1
 599 760 l 1x17
 639 720 l 1
 639 440 l 1
 599 400 l 1
 559 440 l 1
559 80 m 1x87
 559 360 l 1
 599 400 l 1
 639 360 l 1
 639 80 l 1x87
 599 40 l 1x47
 559 80 l 1x87
EndSplineSet
Validated: 5
EndChar

StartChar: uni042A
Encoding: 1066 1066 440
Width: 718
VWidth: 0
Flags: W
HStem: 0 80<159 319 399 559> 40 21G<99 139 579 619> 40 21G<99 139 579 619> 360 80<159 279 399 559> 700 20G<159 211>
VStem: 79 80<80 360> 559 80<80 360>
LayerCount: 2
Fore
SplineSet
399 80 m 1x9e
 451 80 507 80 559 80 c 1x9e
 599 40 l 1x5e
 559 0 l 1
 159 0 l 1x9e
 119 40 l 1x5e
 159 80 l 1
 319 80 l 1x9e
 359 40 l 1x3e
 399 80 l 1x9e
199 720 m 1
 319 520 l 1
 319 440 l 1
 279 440 l 1
 159 640 l 1
 159 720 l 1
 199 720 l 1
79 80 m 1
 79 360 l 1
 119 400 l 1
 159 360 l 1
 159 80 l 1x9e
 119 40 l 1x5e
 79 80 l 1
559 80 m 1
 559 360 l 1
 599 400 l 1
 639 360 l 1
 639 80 l 1x9e
 599 40 l 1x5e
 559 80 l 1
159 440 m 1
 319 440 l 1
 359 400 l 1
 319 360 l 1
 159 360 l 1
 119 400 l 1
 159 440 l 1
399 440 m 1
 559 440 l 1
 599 400 l 1
 559 360 l 1
 399 360 l 1
 359 400 l 1
 399 440 l 1
EndSplineSet
Validated: 5
EndChar

StartChar: uni042B
Encoding: 1067 1067 441
Width: 718
VWidth: 0
Flags: W
HStem: 0 80<159 319 399 559> 40 21G<99 139 339 379 579 619> 40 21G<99 139 339 379 579 619> 360 80<159 319> 740 20G<99 139 579 619> 740 20G<99 139 579 619>
VStem: 79 80<80 360 440 720> 319 80<80 360> 559 80<80 360 440 720>
CounterMasks: 1 0380
LayerCount: 2
Fore
SplineSet
399 80 m 1x9380
 451 80 507 80 559 80 c 1x9380
 599 40 l 1x5380
 559 0 l 1
 159 0 l 1x9380
 119 40 l 1x5380
 159 80 l 1
 319 80 l 1x9380
 359 40 l 1x5380
 399 80 l 1x9380
319 80 m 1
 319 360 l 1
 359 400 l 1
 399 360 l 1
 399 80 l 1x9380
 359 40 l 1x5380
 319 80 l 1
79 440 m 1
 79 720 l 1
 119 760 l 1x1b80
 159 720 l 1
 159 440 l 1
 119 400 l 1
 79 440 l 1
79 80 m 1x9380
 79 360 l 1
 119 400 l 1
 159 360 l 1
 159 80 l 1x9380
 119 40 l 1x5380
 79 80 l 1x9380
559 440 m 1
 559 720 l 1
 599 760 l 1x1b80
 639 720 l 1
 639 440 l 1
 599 400 l 1
 559 440 l 1
559 80 m 1x9380
 559 360 l 1
 599 400 l 1
 639 360 l 1
 639 80 l 1x9380
 599 40 l 1x5380
 559 80 l 1x9380
159 440 m 1
 319 440 l 1
 359 400 l 1
 319 360 l 1
 159 360 l 1
 119 400 l 1
 159 440 l 1
EndSplineSet
Validated: 5
EndChar

StartChar: uni042C
Encoding: 1068 1068 442
Width: 718
VWidth: 0
Flags: W
HStem: 0 80<159 319 399 559> 40 21G<99 139 579 619> 40 21G<99 139 579 619> 360 80<159 319 399 559> 740 20G<99 139> 740 20G<99 139>
VStem: 79 80<80 360 440 720> 559 80<80 360>
LayerCount: 2
Fore
SplineSet
399 80 m 1x93
 451 80 507 80 559 80 c 1x93
 599 40 l 1x53
 559 0 l 1
 159 0 l 1x93
 119 40 l 1x53
 159 80 l 1
 319 80 l 1x93
 359 40 l 1x33
 399 80 l 1x93
79 440 m 1
 79 720 l 1
 119 760 l 1x1b
 159 720 l 1
 159 440 l 1
 119 400 l 1
 79 440 l 1
79 80 m 1x93
 79 360 l 1
 119 400 l 1
 159 360 l 1
 159 80 l 1x93
 119 40 l 1x53
 79 80 l 1x93
559 80 m 1
 559 360 l 1
 599 400 l 1
 639 360 l 1
 639 80 l 1x93
 599 40 l 1x53
 559 80 l 1
159 440 m 1
 319 440 l 1
 359 400 l 1
 319 360 l 1
 159 360 l 1
 119 400 l 1
 159 440 l 1
399 440 m 1
 559 440 l 1
 599 400 l 1
 559 360 l 1
 399 360 l 1
 359 400 l 1
 399 440 l 1
EndSplineSet
Validated: 5
EndChar

StartChar: uni042E
Encoding: 1070 1070 444
Width: 718
VWidth: 0
Flags: W
HStem: 40 21G<99 139 579 619> 40 21G<99 139 579 619> 360 80<159 319> 700 20G<99 139 507 559 579 619> 740 20G<99 139 579 619>
VStem: 79 80<80 360 440 720> 559 80<80 360 440 720>
LayerCount: 2
Fore
SplineSet
519 720 m 1x3e
 559 720 l 1
 559 640 l 1
 439 440 l 1
 399 440 l 1
 399 520 l 1
 519 720 l 1x3e
519 80 m 1
 399 280 l 1
 399 360 l 1
 439 360 l 1
 559 160 l 1
 559 80 l 1
 519 80 l 1
79 440 m 1
 79 720 l 1
 119 760 l 1
 159 720 l 1
 159 440 l 1
 119 400 l 1
 79 440 l 1
79 80 m 1
 79 360 l 1
 119 400 l 1
 159 360 l 1
 159 80 l 1
 119 40 l 1xbe
 79 80 l 1
559 440 m 1
 559 720 l 1
 599 760 l 1
 639 720 l 1
 639 440 l 1
 599 400 l 1
 559 440 l 1
559 80 m 1
 559 360 l 1
 599 400 l 1
 639 360 l 1
 639 80 l 1
 599 40 l 1
 559 80 l 1
159 440 m 1
 319 440 l 1
 359 400 l 1
 319 360 l 1
 159 360 l 1
 119 400 l 1
 159 440 l 1
EndSplineSet
Validated: 5
EndChar

StartChar: uni042F
Encoding: 1071 1071 445
Width: 718
VWidth: 0
Flags: W
HStem: 40 21G<579 619> 40 21G<579 619> 360 80<159 319 399 559> 720 80<159 319 399 559> 740 20G<99 139 579 619> 740 20G<99 139 579 619>
VStem: 79 80<440 720> 559 80<80 360 440 720>
LayerCount: 2
Fore
SplineSet
199 80 m 1x23
 159 80 l 1
 159 160 l 1
 279 360 l 1
 319 360 l 1
 319 280 l 1
 199 80 l 1x23
79 440 m 1
 79 720 l 1x33
 119 760 l 1x2b
 159 720 l 1x33
 159 440 l 1
 119 400 l 1
 79 440 l 1
559 440 m 1
 559 720 l 1x33
 599 760 l 1x2b
 639 720 l 1
 639 440 l 1
 599 400 l 1
 559 440 l 1
559 80 m 1
 559 360 l 1
 599 400 l 1
 639 360 l 1
 639 80 l 1
 599 40 l 1xa3
 559 80 l 1
159 440 m 1
 319 440 l 1
 359 400 l 1
 319 360 l 1
 159 360 l 1
 119 400 l 1
 159 440 l 1
399 440 m 1
 559 440 l 1
 599 400 l 1
 559 360 l 1
 399 360 l 1
 359 400 l 1
 399 440 l 1
559 800 m 1x33
 599 760 l 1x2b
 559 720 l 1
 399 720 l 1x33
 359 760 l 1x27
 319 720 l 1
 159 720 l 1x33
 119 760 l 1x2b
 159 800 l 1
 559 800 l 1x33
EndSplineSet
Validated: 5
EndChar

StartChar: uni0460
Encoding: 1120 1120 494
Width: 718
VWidth: 0
Flags: W
HStem: 0 80<159 319 399 559> 40 21G<99 139 339 379 579 619> 40 21G<99 139 339 379 579 619> 740 20G<99 139 579 619> 740 20G<99 139 579 619>
VStem: 79 80<80 360 440 720> 319 80<80 360> 559 80<80 360 440 720>
CounterMasks: 1 07
LayerCount: 2
Fore
SplineSet
399 80 m 1x87
 451 80 507 80 559 80 c 1x87
 599 40 l 1x47
 559 0 l 1
 159 0 l 1x87
 119 40 l 1x47
 159 80 l 1
 319 80 l 1x87
 359 40 l 1x47
 399 80 l 1x87
319 80 m 1
 319 360 l 1
 359 400 l 1
 399 360 l 1
 399 80 l 1x87
 359 40 l 1x47
 319 80 l 1
79 440 m 1
 79 720 l 1
 119 760 l 1x17
 159 720 l 1
 159 440 l 1
 119 400 l 1
 79 440 l 1
79 80 m 1x87
 79 360 l 1
 119 400 l 1
 159 360 l 1
 159 80 l 1x87
 119 40 l 1x47
 79 80 l 1x87
559 440 m 1
 559 720 l 1
 599 760 l 1x17
 639 720 l 1
 639 440 l 1
 599 400 l 1
 559 440 l 1
559 80 m 1x87
 559 360 l 1
 599 400 l 1
 639 360 l 1
 639 80 l 1x87
 599 40 l 1x47
 559 80 l 1x87
EndSplineSet
Validated: 5
EndChar

StartChar: uni0462
Encoding: 1122 1122 496
Width: 718
VWidth: 0
Flags: W
HStem: 0 80<159 319 399 559> 40 21G<99 139 99 139 579 619 579 619> 360 80<159 319 399 559> 700 20G<159 211> 740 20G<99 139 99 139>
VStem: 79 80<80 360 440 720> 559 80<80 360>
LayerCount: 2
Fore
SplineSet
199 720 m 1x3e
 319 520 l 1
 319 440 l 1
 279 440 l 1
 159 640 l 1
 159 720 l 1
 199 720 l 1x3e
EndSplineSet
Refer: 442 1068 N 1 0 0 1 0 0 2
Validated: 5
EndChar

StartChar: uni0394
Encoding: 916 916 503
Width: 718
VWidth: 0
Flags: W
HStem: 0 80<159 319 399 559> 40 21G<579 619> 40 21G<579 619> 700 20G<507 559 579 619> 740 20G<579 619>
VStem: 559 80<80 360 440 720>
LayerCount: 2
Fore
SplineSet
399 80 m 1x9c
 451 80 507 80 559 80 c 1x9c
 599 40 l 1x5c
 559 0 l 1
 159 0 l 1x9c
 119 40 l 1x3c
 159 80 l 1
 319 80 l 1x9c
 359 40 l 1x3c
 399 80 l 1x9c
519 720 m 1
 559 720 l 1
 559 640 l 1
 439 440 l 1
 399 440 l 1
 399 520 l 1
 519 720 l 1
199 80 m 1
 159 80 l 1
 159 160 l 1
 279 360 l 1
 319 360 l 1
 319 280 l 1
 199 80 l 1
559 440 m 1
 559 720 l 1
 599 760 l 1
 639 720 l 1
 639 440 l 1
 599 400 l 1
 559 440 l 1
559 80 m 1
 559 360 l 1
 599 400 l 1
 639 360 l 1
 639 80 l 1x9c
 599 40 l 1x5c
 559 80 l 1
EndSplineSet
Validated: 5
EndChar

StartChar: Lambda
Encoding: 923 923 510
Width: 718
VWidth: 0
Flags: W
HStem: 40 21G<579 619> 40 21G<579 619> 700 20G<507 559 579 619> 740 20G<579 619>
VStem: 559 80<80 360 440 720>
LayerCount: 2
Fore
SplineSet
519 720 m 1x38
 559 720 l 1
 559 640 l 1
 439 440 l 1
 399 440 l 1
 399 520 l 1
 519 720 l 1x38
199 80 m 1
 159 80 l 1
 159 160 l 1
 279 360 l 1
 319 360 l 1
 319 280 l 1
 199 80 l 1
559 440 m 1
 559 720 l 1
 599 760 l 1
 639 720 l 1
 639 440 l 1
 599 400 l 1
 559 440 l 1
559 80 m 1
 559 360 l 1
 599 400 l 1
 639 360 l 1
 639 80 l 1
 599 40 l 1xb8
 559 80 l 1
EndSplineSet
Validated: 5
EndChar

StartChar: Xi
Encoding: 926 926 513
Width: 718
VWidth: 0
Flags: W
HStem: 0 80<159 319 399 559> 360 80<159 319 399 559> 720 80<159 319 399 559>
CounterMasks: 1 e0
LayerCount: 2
Fore
SplineSet
399 80 m 1
 451 80 507 80 559 80 c 1
 599 40 l 1
 559 0 l 1
 159 0 l 1
 119 40 l 1
 159 80 l 1
 319 80 l 1
 359 40 l 1
 399 80 l 1
159 440 m 1
 319 440 l 1
 359 400 l 1
 319 360 l 1
 159 360 l 1
 119 400 l 1
 159 440 l 1
399 440 m 1
 559 440 l 1
 599 400 l 1
 559 360 l 1
 399 360 l 1
 359 400 l 1
 399 440 l 1
559 800 m 1
 599 760 l 1
 559 720 l 1
 399 720 l 1
 359 760 l 1
 319 720 l 1
 159 720 l 1
 119 760 l 1
 159 800 l 1
 559 800 l 1
EndSplineSet
Validated: 5
EndChar

StartChar: Sigma
Encoding: 931 931 517
Width: 718
VWidth: 0
Flags: W
HStem: 0 80<159 319 399 559> 700 20G<159 211> 720 80<159 319 399 559>
LayerCount: 2
Fore
SplineSet
399 80 m 1x80
 451 80 507 80 559 80 c 1
 599 40 l 1
 559 0 l 1
 159 0 l 1
 119 40 l 1
 159 80 l 1
 319 80 l 1
 359 40 l 1
 399 80 l 1x80
199 720 m 1xc0
 319 520 l 1
 319 440 l 1
 279 440 l 1
 159 640 l 1
 159 720 l 1
 199 720 l 1xc0
199 80 m 1
 159 80 l 1
 159 160 l 1
 279 360 l 1
 319 360 l 1
 319 280 l 1
 199 80 l 1
559 800 m 1xa0
 599 760 l 1
 559 720 l 1
 399 720 l 1
 359 760 l 1
 319 720 l 1xa0
 159 720 l 1xc0
 119 760 l 1
 159 800 l 1
 559 800 l 1xa0
EndSplineSet
Validated: 5
EndChar

StartChar: uni03A9
Encoding: 937 937 523
Width: 718
VWidth: 0
Flags: W
HStem: 40 21G<99 139 579 619> 40 21G<99 139 579 619> 700 20G<159 211 507 559> 720 80<159 319 399 559>
VStem: 79 80<160 360> 559 80<80 360>
LayerCount: 2
Fore
SplineSet
199 720 m 1x2c
 319 520 l 1
 319 440 l 1
 279 440 l 1
 159 640 l 1
 159 720 l 1
 199 720 l 1x2c
519 720 m 1
 559 720 l 1
 559 640 l 1
 439 440 l 1
 399 440 l 1
 399 520 l 1
 519 720 l 1
519 80 m 1
 399 280 l 1
 399 360 l 1
 439 360 l 1
 559 160 l 1
 559 80 l 1
 519 80 l 1
199 80 m 1
 159 80 l 1
 159 160 l 1
 279 360 l 1
 319 360 l 1
 319 280 l 1
 199 80 l 1
79 80 m 1
 79 360 l 1
 119 400 l 1
 159 360 l 1
 159 80 l 1
 119 40 l 1x8c
 79 80 l 1
559 80 m 1
 559 360 l 1
 599 400 l 1
 639 360 l 1
 639 80 l 1
 599 40 l 1
 559 80 l 1
559 800 m 1x1c
 599 760 l 1
 559 720 l 1x2c
 399 720 l 1
 359 760 l 1
 319 720 l 1x1c
 159 720 l 1x2c
 119 760 l 1
 159 800 l 1
 559 800 l 1x1c
EndSplineSet
Validated: 5
EndChar

StartChar: tonos
Encoding: 900 900 526
Width: 718
VWidth: 0
Flags: W
HStem: 816 178
VStem: 199 160
LayerCount: 2
Fore
SplineSet
359 994 m 25
 359 920 l 25
 199 816 l 25
 199 890 l 25
 359 994 l 25
EndSplineSet
Validated: 1
EndChar

StartChar: dieresistonos
Encoding: 901 901 527
Width: 718
VWidth: 0
Flags: W
HStem: 822 100<87.4375 170.562 547.438 630.562>
VStem: 79 100<830.438 913.562> 539 100<830.438 913.562>
LayerCount: 2
Fore
SplineSet
539 872 m 0
 539 900 561 922 589 922 c 0
 617 922 639 900 639 872 c 0
 639 844 617 822 589 822 c 0
 561 822 539 844 539 872 c 0
79 872 m 0
 79 900 101 922 129 922 c 0
 157 922 179 900 179 872 c 0
 179 844 157 822 129 822 c 0
 101 822 79 844 79 872 c 0
359 994 m 25
 359 920 l 25
 199 816 l 25
 199 890 l 25
 359 994 l 25
EndSplineSet
Validated: 1
EndChar

StartChar: OE
Encoding: 338 338 571
Width: 718
VWidth: 0
Flags: W
HStem: 0 80<159 319 399 559> 40 21G<99 139 339 379> 40 21G<99 139 339 379> 360 80<399 559> 720 80<159 319 399 559> 740 20G<99 139 339 379> 740 20G<99 139 339 379>
VStem: 79 80<80 360 440 720> 319 80<80 360 440 720>
LayerCount: 2
Fore
SplineSet
399 80 m 1x9180
 451 80 507 80 559 80 c 1x9180
 599 40 l 1x3180
 559 0 l 1
 159 0 l 1x9180
 119 40 l 1x5180
 159 80 l 1
 319 80 l 1x9180
 359 40 l 1x5180
 399 80 l 1x9180
319 440 m 1
 319 720 l 1x1980
 359 760 l 1x1580
 399 720 l 1x1980
 399 440 l 1
 359 400 l 1
 319 440 l 1
319 80 m 1x9180
 319 360 l 1
 359 400 l 1
 399 360 l 1
 399 80 l 1x9180
 359 40 l 1x5180
 319 80 l 1x9180
79 440 m 1
 79 720 l 1x1980
 119 760 l 1x1580
 159 720 l 1x1980
 159 440 l 1
 119 400 l 1
 79 440 l 1
79 80 m 1x9180
 79 360 l 1
 119 400 l 1
 159 360 l 1
 159 80 l 1x9180
 119 40 l 1x5180
 79 80 l 1x9180
399 440 m 1
 559 440 l 1
 599 400 l 1
 559 360 l 1
 399 360 l 1
 359 400 l 1
 399 440 l 1
559 800 m 1x1980
 599 760 l 1x1380
 559 720 l 1
 399 720 l 1x1980
 359 760 l 1x1580
 319 720 l 1
 159 720 l 1x1980
 119 760 l 1x1580
 159 800 l 1
 559 800 l 1x1980
EndSplineSet
Validated: 5
EndChar

StartChar: SF010000
Encoding: 9484 9484 585
Width: 718
VWidth: 0
Flags: W
HStem: 40 21G<339 379> 40 21G<339 379> 360 80<399 559>
VStem: 319 80<80 360>
LayerCount: 2
Fore
SplineSet
319 80 m 1xb0
 319 360 l 1
 359 400 l 1
 399 360 l 1
 399 80 l 1
 359 40 l 1
 319 80 l 1xb0
399 440 m 1
 559 440 l 1
 599 400 l 1
 559 360 l 1
 399 360 l 1
 359 400 l 1
 399 440 l 1
EndSplineSet
Validated: 5
EndChar

StartChar: SF030000
Encoding: 9488 9488 589
Width: 718
VWidth: 0
Flags: W
HStem: 40 21G<339 379> 40 21G<339 379> 360 80<159 319>
VStem: 319 80<80 360>
LayerCount: 2
Fore
SplineSet
319 80 m 1xb0
 319 360 l 1
 359 400 l 1
 399 360 l 1
 399 80 l 1
 359 40 l 1
 319 80 l 1xb0
159 440 m 1
 319 440 l 1
 359 400 l 1
 319 360 l 1
 159 360 l 1
 119 400 l 1
 159 440 l 1
EndSplineSet
Validated: 5
EndChar

StartChar: SF020000
Encoding: 9492 9492 614
Width: 718
VWidth: 0
Flags: W
HStem: 360 80<159 319> 740 20G<99 139> 740 20G<99 139>
VStem: 79 80<440 720>
LayerCount: 2
Fore
SplineSet
79 440 m 1xd0
 79 720 l 1
 119 760 l 1
 159 720 l 1
 159 440 l 1
 119 400 l 1
 79 440 l 1xd0
159 440 m 1
 319 440 l 1
 359 400 l 1
 319 360 l 1
 159 360 l 1
 119 400 l 1
 159 440 l 1
EndSplineSet
Validated: 5
EndChar

StartChar: SF040000
Encoding: 9496 9496 618
Width: 718
VWidth: 0
Flags: W
HStem: 360 80<159 319> 740 20G<339 379> 740 20G<339 379>
VStem: 319 80<440 720>
LayerCount: 2
Fore
SplineSet
319 440 m 1xd0
 319 720 l 1
 359 760 l 1
 399 720 l 1
 399 440 l 1
 359 400 l 1
 319 440 l 1xd0
159 440 m 1
 319 440 l 1
 359 400 l 1
 319 360 l 1
 159 360 l 1
 119 400 l 1
 159 440 l 1
EndSplineSet
Validated: 5
EndChar

StartChar: SF080000
Encoding: 9500 9500 637
Width: 718
VWidth: 0
Flags: W
HStem: 40 21G<339 379> 40 21G<339 379> 360 80<399 559> 740 20G<339 379> 740 20G<339 379>
VStem: 319 80<80 360 440 720>
LayerCount: 2
Fore
SplineSet
399 440 m 1x24
 559 440 l 1
 599 400 l 1
 559 360 l 1
 399 360 l 1
 359 400 l 1
 399 440 l 1x24
319 440 m 1
 319 720 l 1
 359 760 l 1x34
 399 720 l 1
 399 440 l 1
 359 400 l 1
 319 440 l 1
319 80 m 1
 319 360 l 1
 359 400 l 1
 399 360 l 1
 399 80 l 1
 359 40 l 1xa4
 319 80 l 1
EndSplineSet
Validated: 5
EndChar

StartChar: SF090000
Encoding: 9508 9508 645
Width: 718
VWidth: 0
Flags: W
HStem: 40 21G<339 379> 40 21G<339 379> 360 80<159 319> 740 20G<339 379> 740 20G<339 379>
VStem: 319 80<80 360 440 720>
LayerCount: 2
Fore
SplineSet
319 440 m 1x34
 319 720 l 1
 359 760 l 1
 399 720 l 1
 399 440 l 1
 359 400 l 1
 319 440 l 1x34
319 80 m 1
 319 360 l 1
 359 400 l 1
 399 360 l 1
 399 80 l 1
 359 40 l 1xa4
 319 80 l 1
159 440 m 1
 319 440 l 1
 359 400 l 1
 319 360 l 1
 159 360 l 1
 119 400 l 1
 159 440 l 1
EndSplineSet
Validated: 5
EndChar

StartChar: SF060000
Encoding: 9516 9516 653
Width: 718
VWidth: 0
Flags: W
HStem: 40 21G<339 379> 40 21G<339 379> 360 80<159 319 399 559>
VStem: 319 80<80 360>
LayerCount: 2
Fore
SplineSet
319 80 m 1xb0
 319 360 l 1
 359 400 l 1
 399 360 l 1
 399 80 l 1
 359 40 l 1
 319 80 l 1xb0
159 440 m 1
 319 440 l 1
 359 400 l 1
 319 360 l 1
 159 360 l 1
 119 400 l 1
 159 440 l 1
399 440 m 1
 559 440 l 1
 599 400 l 1
 559 360 l 1
 399 360 l 1
 359 400 l 1
 399 440 l 1
EndSplineSet
Validated: 5
EndChar

StartChar: SF070000
Encoding: 9524 9524 661
Width: 718
VWidth: 0
Flags: W
HStem: 360 80<159 319 399 559> 740 20G<339 379> 740 20G<339 379>
VStem: 319 80<440 720>
LayerCount: 2
Fore
SplineSet
319 440 m 1xd0
 319 720 l 1
 359 760 l 1
 399 720 l 1
 399 440 l 1
 359 400 l 1
 319 440 l 1xd0
159 440 m 1
 319 440 l 1
 359 400 l 1
 319 360 l 1
 159 360 l 1
 119 400 l 1
 159 440 l 1
399 440 m 1
 559 440 l 1
 599 400 l 1
 559 360 l 1
 399 360 l 1
 359 400 l 1
 399 440 l 1
EndSplineSet
Validated: 5
EndChar

StartChar: colon.alt
Encoding: 65538 -1 702
Width: 718
VWidth: 0
Flags: W
HStem: 40 21G<339 379> 40 21G<339 379> 740 20G<579 619> 740 20G<579 619>
VStem: 319 80<80 360> 559 80<440 720>
LayerCount: 2
Fore
SplineSet
319 80 m 1x8c
 319 360 l 1
 359 400 l 1
 399 360 l 1
 399 80 l 1
 359 40 l 1
 319 80 l 1x8c
559 440 m 1
 559 720 l 1
 599 760 l 1x2c
 639 720 l 1
 639 440 l 1
 599 400 l 1
 559 440 l 1
EndSplineSet
Validated: 1
EndChar

